SplineFontDB: 3.2
FontName: DayRomanBold
FullName: Day Roman Bold
FamilyName: Day Roman
Weight: Bold
Copyright: 2002, Fredrick Nader. All rights reserved. apostrophe@apostrophiclab.com
Version: 1.0; December 2002
ItalicAngle: 0
UnderlinePosition: -147
UnderlineWidth: 40
Ascent: 800
Descent: 200
InvalidEm: 0
sfntRevision: 0x00010000
LayerCount: 2
Layer: 0 1 "Back" 1
Layer: 1 1 "Fore" 0
XUID: [1021 620 -25745864 21292]
StyleMap: 0x0040
FSType: 0
OS2Version: 3
OS2_WeightWidthSlopeOnly: 0
OS2_UseTypoMetrics: 0
CreationTime: 1039457615
ModificationTime: 1641435929
PfmFamily: 17
TTFWeight: 700
TTFWidth: 5
LineGap: 27
VLineGap: 0
Panose: 2 2 5 0 6 4 11 2 4 3
OS2TypoAscent: 797
OS2TypoAOffset: 0
OS2TypoDescent: -274
OS2TypoDOffset: 0
OS2TypoLinegap: 53
OS2WinAscent: 1002
OS2WinAOffset: 0
OS2WinDescent: 291
OS2WinDOffset: 0
HheadAscent: 1002
HheadAOffset: 0
HheadDescent: -291
HheadDOffset: 0
OS2SubXSize: 700
OS2SubYSize: 650
OS2SubXOff: 0
OS2SubYOff: 140
OS2SupXSize: 700
OS2SupYSize: 650
OS2SupXOff: 0
OS2SupYOff: 477
OS2StrikeYSize: 50
OS2StrikeYPos: 250
OS2FamilyClass: 258
OS2Vendor: 'APOS'
OS2CodePages: 20000111.00000000
OS2UnicodeRanges: 80000027.4000004a.00000000.00000000
Lookup: 1 0 0 "'smcp' Gemeine in Kapit+AOQA-lchen in Lateinisch Nachschlagetabelle 0" { "'smcp' Gemeine in Kapit+AOQA-lchen in Lateinisch Nachschlagetabelle 0 Subtabelle"  } ['smcp' ('latn' <'dflt' > ) ]
Lookup: 1 0 0 "'c2sc' Versalien in Kapit+AOQA-lchen in Lateinisch Nachschlagetabelle 0" { "'c2sc' Versalien in Kapit+AOQA-lchen in Lateinisch Nachschlagetabelle 0 Subtabelle"  } ['c2sc' ('latn' <'dflt' > ) ]
Lookup: 258 0 0 "'kern' Interletraje horizontal in Latin lookup 0" { "'kern' Interletraje horizontal in Latin lookup 0 subtable"  } ['kern' ('DFLT' <'dflt' > 'latn' <'dflt' > ) ]
MarkAttachClasses: 1
DEI: 91125
ShortTable: maxp 16
  1
  0
  248
  235
  7
  0
  0
  1
  0
  0
  0
  0
  0
  0
  0
  0
EndShort

StartChar: breve
Encoding: 5 5 4
Width: 469
Flags: W
LayerCount: 2
Fore
SplineSet
94.7182646344 673 m 1,0,-1
 191.151845524 673 l 1,1,-1
 192.92564728 649.940577164 l 2,2,3
 195.175715789 630.256315231 195.175715789 630.256315231 207.987345766 614.756184684 c 0,4,5
 215.064566792 607.100903669 215.064566792 607.100903669 222.471963755 602.370814885 c 0,6,7
 229.502547142 598.630480817 229.502547142 598.630480817 235.940577164 597.92564728 c 2,8,-1
 240.803399778 597.551584002 l 1,9,-1
 241.850423371 597.028072206 l 1,10,11
 263.289377805 598.419431218 263.289377805 598.419431218 278.744668282 612.583446708 c 0,12,13
 286.550300165 620.627396995 286.550300165 620.627396995 290.960983325 629.322332543 c 0,14,15
 294.798877505 638.416062341 294.798877505 638.416062341 295 648 c 2,16,-1
 295 673 l 1,17,-1
 386 673 l 1,18,-1
 386 648 l 2,19,20
 385.561639743 615.959133271 385.561639743 615.959133271 373.075849429 589.254502337 c 0,21,22
 346.408560332 535.396326658 346.408560332 535.396326658 293.206939669 512.457346829 c 0,23,24
 265.507400669 501.19891036 265.507400669 501.19891036 236 501 c 0,25,26
 228.413254543 501.266178386 228.413254543 501.266178386 221.310006189 503.26237562 c 0,27,28
 196.288214823 505.878320639 196.288214823 505.878320639 174.328170647 519.252130534 c 0,29,30
 130.394278691 547.550531744 130.394278691 547.550531744 108.096672614 597.469497186 c 0,31,32
 97.4315066632 622.653287957 97.4315066632 622.653287957 96.0315923514 646.73344566 c 2,33,-1
 94.7182646344 673 l 1,0,-1
EndSplineSet
EndChar

StartChar: dotaccent
Encoding: 6 6 5
Width: 455
Flags: W
LayerCount: 2
Fore
SplineSet
333 623 m 0,0,1
 332.183554258 585.289915769 332.183554258 585.289915769 305.941427575 559.096024743 c 0,2,3
 278.475415511 533.432600845 278.475415511 533.432600845 242 533 c 0,4,5
 235.124586848 533.318750097 235.124586848 533.318750097 229.942221931 534.710620971 c 0,6,7
 200.493527238 540.392931193 200.493527238 540.392931193 178.868030979 567.02731127 c 0,8,9
 157.39877742 595.386165595 157.39877742 595.386165595 157 626 c 0,10,11
 157.78377997 659.216470631 157.78377997 659.216470631 181.851145417 685.186550143 c 0,12,13
 207.924909764 711.501556267 207.924909764 711.501556267 241 712 c 0,14,15
 277.045109125 711.230330687 277.045109125 711.230330687 304.485589464 686.337164062 c 0,16,17
 332.51030426 659.216230805 332.51030426 659.216230805 333 623 c 0,0,1
EndSplineSet
EndChar

StartChar: ring
Encoding: 8 8 6
Width: 463
Flags: W
LayerCount: 2
Fore
SplineSet
272 620 m 0,0,1
 271.07162604 634.663281909 271.07162604 634.663281909 261.327170046 644.338157105 c 0,2,3
 249.292592052 654.6740884 249.292592052 654.6740884 236 655 c 0,4,5
 224.281379449 653.98636952 224.281379449 653.98636952 216.205450654 645.873386327 c 0,6,7
 207.313389849 635.322937176 207.313389849 635.322937176 207 624 c 0,8,9
 207.895535756 611.229748389 207.895535756 611.229748389 216.744323963 599.329307411 c 0,10,11
 226.354938439 588.173036879 226.354938439 588.173036879 234.5129578 586.875023727 c 2,12,-1
 241.390988028 586.187220704 l 1,13,14
 253.545769306 588.039233541 253.545769306 588.039233541 262.085749305 595.930415445 c 0,15,16
 271.673425258 606.519290066 271.673425258 606.519290066 272 620 c 0,0,1
354 620 m 0,17,18
 353.20176302 569.741994622 353.20176302 569.741994622 318.321643509 535.480082366 c 0,19,20
 281.562278868 501.412626308 281.562278868 501.412626308 234 501 c 0,21,22
 224.938645645 501.38053863 224.938645645 501.38053863 218.591794234 503.621226302 c 0,23,24
 179.884121751 509.727376413 179.884121751 509.727376413 150.331940227 546.573135425 c 0,25,26
 121.397291322 584.550421344 121.397291322 584.550421344 121 625 c 0,27,28
 121.810889486 669.641995687 121.810889486 669.641995687 153.966123216 703.807114365 c 0,29,30
 188.614747497 738.547284392 188.614747497 738.547284392 232 739 c 0,31,32
 285.485964656 738.215888335 285.485964656 738.215888335 319.674203125 704.674203125 c 0,33,34
 353.579821405 669.620677475 353.579821405 669.620677475 354 620 c 0,17,18
EndSplineSet
EndChar

StartChar: hungarumlaut
Encoding: 10 10 7
Width: 520
Flags: W
LayerCount: 2
Fore
SplineSet
260.199618011 536.360707551 m 0,0,1
 266.253479203 551.578773574 266.253479203 551.578773574 288.986669071 599.947377681 c 0,2,3
 297.016137745 617.031394209 297.016137745 617.031394209 304.014778703 631.662906495 c 1,4,5
 296.480503604 622.566954492 296.480503604 622.566954492 284.174820385 607.193408059 c 0,6,7
 216.083603083 522.126722949 216.083603083 522.126722949 192.587783372 498.350488233 c 0,8,9
 185.061587977 491.300102498 185.061587977 491.300102498 181.334902158 488.849904894 c 0,10,11
 169.964445657 482.214921884 169.964445657 482.214921884 159.017013233 481.869565217 c 0,12,13
 146.653237765 482.449351927 146.653237765 482.449351927 136.737908685 489.327245422 c 0,14,15
 122.991394122 500.595078383 122.991394122 500.595078383 122.333333333 517.308641975 c 0,16,17
 122.748805469 527.298031187 122.748805469 527.298031187 127.199618011 536.360707551 c 0,18,19
 133.253479203 551.578773574 133.253479203 551.578773574 155.986669071 599.947377681 c 0,20,21
 194.872732435 682.683879467 194.872732435 682.683879467 209.581943689 707.899670188 c 0,22,23
 219.929002718 722.702698156 219.929002718 722.702698156 230.366350306 727.857764131 c 0,24,25
 236.810436284 730.316420827 236.810436284 730.316420827 243.03125 730.5 c 0,26,27
 255.571412869 729.996731077 255.571412869 729.996731077 268.957913697 721.072397191 c 0,28,29
 272.515253284 718.107947535 272.515253284 718.107947535 274.520816274 716.691256772 c 0,30,31
 280.074931235 713.606616996 280.074931235 713.606616996 283.401804228 711.105771534 c 0,32,33
 287.273939714 708.195046513 287.273939714 708.195046513 300.938314616 699.085463245 c 0,34,35
 308.121953373 695.171826736 308.121953373 695.171826736 312.695319644 690.522222351 c 0,36,37
 321.019508117 680.389367562 321.019508117 680.389367562 321.518360938 667.678682557 c 1,38,39
 335.142436202 695.146228784 335.142436202 695.146228784 342.581943689 707.899670188 c 0,40,41
 352.929002718 722.702698156 352.929002718 722.702698156 363.366350306 727.857764131 c 0,42,43
 369.810436284 730.316420827 369.810436284 730.316420827 376.03125 730.5 c 0,44,45
 388.571412869 729.996731077 388.571412869 729.996731077 401.957913697 721.072397191 c 0,46,47
 405.515253284 718.107947535 405.515253284 718.107947535 407.520816274 716.691256772 c 0,48,49
 413.074931235 713.606616996 413.074931235 713.606616996 416.401804228 711.105771534 c 0,50,51
 420.273939714 708.195046513 420.273939714 708.195046513 433.938314616 699.085463245 c 0,52,53
 441.121953373 695.171826736 441.121953373 695.171826736 445.695319644 690.522222351 c 0,54,55
 454.121512721 680.265199562 454.121512721 680.265199562 454.529411765 667.366782007 c 0,56,57
 453.99519204 649.601818341 453.99519204 649.601818341 441.814629259 637.390833782 c 0,58,59
 433.903724321 628.092908167 433.903724321 628.092908167 417.174820385 607.193408059 c 0,60,61
 349.083603083 522.126722949 349.083603083 522.126722949 325.587783372 498.350488233 c 0,62,63
 318.061587977 491.300102498 318.061587977 491.300102498 314.334902158 488.849904894 c 0,64,65
 302.964445657 482.214921884 302.964445657 482.214921884 292.017013233 481.869565217 c 0,66,67
 279.653237765 482.449351927 279.653237765 482.449351927 269.737908685 489.327245422 c 0,68,69
 255.991394122 500.595078383 255.991394122 500.595078383 255.333333333 517.308641975 c 0,70,71
 255.748805469 527.298031187 255.748805469 527.298031187 260.199618011 536.360707551 c 0,0,1
EndSplineSet
EndChar

StartChar: ogonek
Encoding: 11 11 8
Width: 473
Flags: W
LayerCount: 2
Fore
SplineSet
256.25 -56.78125 m 0,0,1
 256.872336182 -16.5906206958 256.872336182 -16.5906206958 277.919191624 12.3866653871 c 0,2,3
 294.992052194 34.4339517296 294.992052194 34.4339517296 317.638179352 47.008182462 c 0,4,5
 352.797783651 65.3846153846 352.797783651 65.3846153846 394.875739645 65.3846153846 c 0,6,7
 416.575537458 65.1655450811 416.575537458 65.1655450811 423.901530483 62.7235474061 c 0,8,9
 440.741544854 56.4061954795 440.741544854 56.4061954795 444.596453336 36.9938715867 c 0,10,11
 445.132785372 33.2081410828 445.132785372 33.2081410828 445.022038978 26.1144038622 c 0,12,13
 444.909863003 18.9290964776 444.909863003 18.9290964776 436.192842166 -26.3994118751 c 1,14,-1
 412.3 -23.8 l 1,15,16
 400.765980827 -25.0578407759 400.765980827 -25.0578407759 389.308181693 -33.1388741734 c 0,17,18
 375.82805076 -44.2388920237 375.82805076 -44.2388920237 374.789061941 -53.2592676533 c 0,19,20
 374.490785443 -56.4077900095 374.490785443 -56.4077900095 374.792839685 -63.0090123383 c 0,21,22
 375.094893928 -69.610234667 375.094893928 -69.610234667 380.71100233 -78.2671956409 c 0,23,24
 386.602827136 -87.3491601888 386.602827136 -87.3491601888 411.66875343 -88.0087898282 c 0,25,-1
 412.152156081 -88.0261324968 l 2,26,27
 432.49931752 -88.8313929137 432.49931752 -88.8313929137 449.976783556 -86.9546874595 c 0,28,29
 467.894608373 -85.0306969055 467.894608373 -85.0306969055 505.25707864 -76.0637040414 c 1,30,-1
 515.212924202 -88.0107187166 l 2,31,32
 524.801267855 -100.620529744 524.801267855 -100.620529744 525.879886496 -109.320299728 c 0,33,34
 528.075321961 -127.027933207 528.075321961 -127.027933207 530.221637905 -144.198460757 c 1,35,36
 488.708165271 -160.442863092 488.708165271 -160.442863092 462.51062838 -169.564815949 c 0,37,38
 432.229334338 -180.108728449 432.229334338 -180.108728449 402.54828822 -179.956144644 c 0,39,40
 372.867242101 -179.803560839 372.867242101 -179.803560839 347.742929157 -171.771208769 c 0,41,42
 288.529707611 -151.505466119 288.529707611 -151.505466119 265.096672614 -99.5305028142 c 0,43,44
 256.45492119 -78.814234157 256.45492119 -78.814234157 256.25 -56.78125 c 0,0,1
EndSplineSet
EndChar

StartChar: caron
Encoding: 12 12 9
Width: 422
Flags: W
LayerCount: 2
Fore
SplineSet
326 724 m 0,0,1
 342.370945758 722.891262046 342.370945758 722.891262046 351.447422006 710.953243224 c 0,2,3
 356.828983586 702.294397124 356.828983586 702.294397124 357 692 c 0,4,5
 357 685.641099176 357 685.641099176 355.632918117 682.19732387 c 0,6,7
 354.265836235 678.753548565 354.265836235 678.753548565 353.036322455 675.54951053 c 0,8,9
 347.330302287 660.679969455 347.330302287 660.679969455 333.401814068 635.438935764 c 0,10,11
 273.88820774 527.589116118 273.88820774 527.589116118 251.011414798 499.039920943 c 0,12,13
 245.353289895 492.714787793 245.353289895 492.714787793 241.979002409 489.98811406 c 2,14,-1
 229.026839419 480.273991818 l 1,15,-1
 214.885414286 488.130339114 l 2,16,17
 207.322599055 492.603951488 207.322599055 492.603951488 203.251430165 495.918010892 c 0,18,19
 196.998041899 502.170081292 196.998041899 502.170081292 194.576833467 506.769176038 c 0,20,21
 165.949873634 554.098742807 165.949873634 554.098742807 139.197671655 597.196910327 c 0,22,23
 112.113874477 640.829282299 112.113874477 640.829282299 97.4332548668 679.628062698 c 0,24,25
 94.2113371983 689.810980523 94.2113371983 689.810980523 94 696 c 0,26,27
 95.0783426604 711.991372594 95.0783426604 711.991372594 105.595104564 721.237491024 c 0,28,29
 114.717089187 727.870393586 114.717089187 727.870393586 126.111111111 728.111111111 c 0,30,31
 130.735842397 727.951960187 130.735842397 727.951960187 136.522251933 726.579339229 c 0,32,33
 146.970145522 724.100946086 146.970145522 724.100946086 162.028005182 705.974597203 c 0,34,35
 177.085864841 687.84824832 177.085864841 687.84824832 191.385038206 669.146666568 c 0,36,37
 213.281622696 640.630219523 213.281622696 640.630219523 226.567073132 626.455271507 c 1,38,39
 236.969960251 638.884068453 236.969960251 638.884068453 254.419642996 662.941514927 c 0,40,41
 271.869325741 686.998961402 271.869325741 686.998961402 284.847912594 701.63940583 c 0,42,43
 305.598277243 723.395001924 305.598277243 723.395001924 326 724 c 0,0,1
EndSplineSet
EndChar

StartChar: dotlessi
Encoding: 13 13 10
Width: 313
Flags: W
LayerCount: 2
Fore
SplineSet
223.972059275 397.737270652 m 0,0,1
 220.017957671 278.68427602 220.017957671 278.68427602 223.990729773 131.686765208 c 2,2,-1
 224 131.343766793 l 2,3,4
 224 113.625108927 224 113.625108927 223.699957469 103.129383864 c 0,5,6
 223.078357246 81.3853163533 223.078357246 81.3853163533 224.379490488 69.4292604173 c 0,7,8
 225.68062373 57.4732044813 225.68062373 57.4732044813 226.966944659 55.0733596076 c 0,9,10
 234.994151575 50.7490225652 234.994151575 50.7490225652 246.211676261 48.5674375993 c 0,11,12
 257.429200946 46.3858526335 257.429200946 46.3858526335 268.555513439 43.8794154778 c 0,13,14
 284.661096928 39.2476479712 284.661096928 39.2476479712 293.008726179 27.068023375 c 0,15,16
 298.777670613 16.9575261053 298.777670613 16.9575261053 299 5 c 0,17,18
 298.306631431 -8.19390527119 298.306631431 -8.19390527119 292.30605354 -17.2775568775 c 0,19,20
 282.439752306 -29.8750874216 282.439752306 -29.8750874216 268.169967595 -31.4111437172 c 0,21,22
 238.366773814 -34.6192778527 238.366773814 -34.6192778527 206.939181931 -30.247858221 c 0,23,24
 174.667225087 -25.9112711191 174.667225087 -25.9112711191 125.329807764 -30.3926600498 c 0,25,26
 96.6960113563 -32.9536434221 96.6960113563 -32.9536434221 70 -33 c 2,27,-1
 59 -33 l 2,28,29
 47.0525901034 -32.7296762371 47.0525901034 -32.7296762371 37.1275229077 -30.0419000774 c 0,30,31
 22.332858657 -24.8022851028 22.332858657 -24.8022851028 15.5249519188 -11.1336496937 c 0,32,33
 12.1287666196 -2.57620060117 12.1287666196 -2.57620060117 12 7 c 0,34,35
 12.7864939816 20.4286874524 12.7864939816 20.4286874524 21.325796875 29.674203125 c 2,36,-1
 27.6706925891 35.7443239633 l 1,37,38
 42.6591402292 46.7061364814 42.6591402292 46.7061364814 60.1702048009 49.2797605065 c 2,39,-1
 82.5965785007 52.2698321393 l 2,40,41
 87.6353520829 53.2647316071 87.6353520829 53.2647316071 90.7505648118 54.7903592324 c 0,42,43
 92.1620414785 58.984787391 92.1620414785 58.984787391 94 70 c 1,44,-1
 94 85 l 1,45,-1
 94.0123842685 85.7936370082 l 2,46,47
 94.7974365134 110.915308846 94.7974365134 110.915308846 94.5653849234 149.996572979 c 0,48,49
 94.3333333333 189.077837111 94.3333333333 189.077837111 95.0123842685 210.793637008 c 0,50,-1
 95.0219744136 211.056700149 l 2,51,52
 96.0333744123 235.330300117 96.0333744123 235.330300117 97.5012388769 258.827892001 c 0,53,54
 100.179135928 301.69569999 100.179135928 301.69569999 97.5975757949 331.778186906 c 0,55,56
 96.5190266348 340.873934975 96.5190266348 340.873934975 93.6565193445 345.15750844 c 0,57,58
 89.2477993043 348.233758884 89.2477993043 348.233758884 75.6020602186 353.92623269 c 0,59,60
 61.9563211329 359.618706495 61.9563211329 359.618706495 54.6735447222 363.4727379 c 0,61,62
 35.8973460444 375.109956431 35.8973460444 375.109956431 35 394 c 0,63,64
 35.77538745 412.338267079 35.77538745 412.338267079 52.1577523731 423.816174571 c 0,65,66
 71.1922260099 435.915519194 71.1922260099 435.915519194 102.350224272 444.110117836 c 0,67,68
 110.903567722 447.324464938 110.903567722 447.324464938 134.113445333 460.214250065 c 0,69,70
 174.036484834 482.385818972 174.036484834 482.385818972 181.294605654 485.231914197 c 0,71,72
 189.524609796 487.818770327 189.524609796 487.818770327 195 488 c 0,73,74
 205.674938812 487.277697597 205.674938812 487.277697597 212.990395775 482.82852025 c 0,75,76
 225.415268259 473.638517439 225.415268259 473.638517439 226 458 c 0,77,78
 226 428.337875768 226 428.337875768 223.972059275 397.737270652 c 0,0,1
EndSplineSet
EndChar

StartChar: fraction
Encoding: 25 25 11
Width: 265
Flags: W
LayerCount: 2
Fore
SplineSet
435.816174571 632.157752373 m 2,0,1
 406.860406367 588.894870726 406.860406367 588.894870726 375.751155493 549.217336527 c 0,2,3
 344.641904619 509.539802329 344.641904619 509.539802329 312.611611103 469.501028383 c 0,4,5
 218.597651755 349.483934748 218.597651755 349.483934748 125.805346949 232.745219172 c 0,6,7
 33.0057183378 115.997289777 33.0057183378 115.997289777 -66.0107762137 -23.5259525454 c 1,8,-1
 -84.2702227727 -16.2221739218 l 2,9,10
 -91.8841950796 -13.176584999 -91.8841950796 -13.176584999 -107.031646835 -2.68974485855 c 0,11,12
 -118.388105229 4.69994916044 -118.388105229 4.69994916044 -137.206383886 11.3802746703 c 2,13,-1
 -169.461984342 22.5996139595 l 1,14,15
 -27.8188624104 212.237512745 -27.8188624104 212.237512745 96.1290941329 368.172175863 c 0,16,17
 220.085020664 524.116865749 220.085020664 524.116865749 347.272754665 699 c 1,18,-1
 360 699 l 2,19,20
 379.2332202 698.381958201 379.2332202 698.381958201 401.342247627 683.816174571 c 0,21,22
 417.055658961 673.428946916 417.055658961 673.428946916 426.945056313 667.962985905 c 2,23,-1
 450.955323873 654.866476326 l 1,24,-1
 435.816174571 632.157752373 l 2,0,1
EndSplineSet
EndChar

StartChar: fi
Encoding: 26 26 12
Width: 610
Flags: W
LayerCount: 2
Fore
SplineSet
205 350 m 2,0,-1
 204 80 l 2,1,2
 204.113832067 66.0832018459 204.113832067 66.0832018459 207.107075932 60.3956775698 c 0,3,4
 211.212795485 55.1424877578 211.212795485 55.1424877578 215.156051125 52.8752583288 c 0,5,6
 222.917767229 49.5015395582 222.917767229 49.5015395582 235.973964974 48.0727921572 c 0,7,8
 249.54595321 46.5876014993 249.54595321 46.5876014993 274.092558652 42.2558475978 c 1,9,-1
 279.674203125 36.674203125 l 2,10,11
 290.615811215 24.7507392742 290.615811215 24.7507392742 291 8 c 0,12,13
 290.522852351 -1.09678758854 290.522852351 -1.09678758854 287.693731264 -7.75608322683 c 0,14,15
 285.237169153 -12.2424533028 285.237169153 -12.2424533028 282.529290777 -15.48430037 c 1,16,-1
 280.702625156 -20.964297234 l 1,17,-1
 272.376741435 -25.7219450744 l 2,18,19
 258.92571924 -32.8293087253 258.92571924 -32.8293087253 241 -33 c 0,20,21
 219.521926623 -32.8444679376 219.521926623 -32.8444679376 200.77036138 -29.9222339688 c 0,22,23
 164.575625 -24.2816654741 164.575625 -24.2816654741 109.59802353 -29.8663705244 c 0,24,25
 61.2947179452 -34.7022225897 61.2947179452 -34.7022225897 31.1047170927 -31.8865109449 c 0,26,27
 19.481015283 -30.1639565274 19.481015283 -30.1639565274 11.8625089325 -25.1771264426 c 0,28,29
 -1.39534486332 -14.8018439454 -1.39534486332 -14.8018439454 -2 2 c 0,30,31
 -1.43528035684 15.3525775159 -1.43528035684 15.3525775159 3.77909256175 24.8742670444 c 0,32,33
 12.8357108631 38.7295823422 12.8357108631 38.7295823422 27.305361538 42.58971387 c 0,34,35
 41.775012213 46.4498453979 41.775012213 46.4498453979 56.3053071708 49.8473623354 c 0,36,37
 65.6372174141 52.6047342807 65.6372174141 52.6047342807 72.4718993625 58.2513059743 c 0,38,39
 75.6690947622 63.0971207573 75.6690947622 63.0971207573 75.9779074051 76.9871606775 c 0,40,41
 75.9944765044 78.4975323797 75.9944765044 78.4975323797 76 79 c 2,42,-1
 76 366 l 2,43,44
 76 368.00642916 76 368.00642916 75.9064735319 370.07742119 c 0,45,46
 62.8054797714 370.964520228 62.8054797714 370.964520228 51.347670453 371.083893544 c 0,47,48
 39.8898611346 371.20326686 39.8898611346 371.20326686 28.0778059311 373.485310147 c 0,49,50
 12.1705188246 377.652901924 12.1705188246 377.652901924 3.85442708412 389.626041618 c 0,51,52
 -1.78229374554 399.421051441 -1.78229374554 399.421051441 -1.8441455451 408.124117398 c 0,53,54
 -2.01313547869 431.902415664 -2.01313547869 431.902415664 4.54678009017 442.835608279 c 0,55,56
 13.9640702152 457.130942235 13.9640702152 457.130942235 33.3320317256 461.464242909 c 0,57,58
 52.0384249029 465.26010497 52.0384249029 465.26010497 76.3844546462 467.549946301 c 1,59,60
 78.2608094762 496.896342808 78.2608094762 496.896342808 79.2886063062 533.874341076 c 0,61,62
 80.3164031362 570.852339344 80.3164031362 570.852339344 90.7425071506 611.074136384 c 0,63,64
 112.41383978 699.784276607 112.41383978 699.784276607 168.996212541 755.843003516 c 0,65,66
 233.322338271 817.669354151 233.322338271 817.669354151 317.900390625 818.0625 c 0,67,68
 320.596419526 818.0625 320.596419526 818.0625 333.510810591 817.951019964 c 0,69,70
 346.425201656 817.839539927 346.425201656 817.839539927 370.643888183 814.330967163 c 0,71,72
 423.201526557 806.716916816 423.201526557 806.716916816 451.668059773 771.426864575 c 0,73,74
 466.685882948 751.316963731 466.685882948 751.316963731 468.837015513 724.50167821 c 0,75,76
 469.85321489 718.501228462 469.85321489 718.501228462 469.947368421 713.520775623 c 0,77,78
 469.428555798 698.328398172 469.428555798 698.328398172 462.039080532 685.308587271 c 0,79,80
 440.612320504 651.740336134 440.612320504 651.740336134 401.517194531 648.080364213 c 0,81,82
 398.950141865 647.875 398.950141865 647.875 396.4453125 647.875 c 0,83,84
 377.369035895 648.567698782 377.369035895 648.567698782 363.775251479 659.144764987 c 0,85,86
 351.486797749 668.855493722 351.486797749 668.855493722 345.671261476 686.42139835 c 0,87,88
 342.942001062 692.91166254 342.942001062 692.91166254 337.958739049 698.737288161 c 0,89,90
 330.944956497 705.408688619 330.944956497 705.408688619 317.239171932 711.480174517 c 0,91,92
 300.836387323 717.831426668 300.836387323 717.831426668 268 718 c 0,93,94
 255.958896733 717.304086522 255.958896733 717.304086522 248.360359796 711.1024421 c 0,95,96
 237.046060711 700.558568319 237.046060711 700.558568319 229.483403836 685.562916486 c 0,97,98
 202.179007022 627.735164576 202.179007022 627.735164576 202 506 c 2,99,-1
 202 492 l 2,100,101
 202.032181684 480.66976153 202.032181684 480.66976153 202.408228895 467 c 1,102,-1
 412 467 l 2,103,104
 429.92771147 467.412472576 429.92771147 467.412472576 453.774319059 478.585296684 c 0,105,106
 465.724515069 484.1731393 465.724515069 484.1731393 473.599753715 487.051393138 c 0,107,108
 481.466221453 489.452635937 481.466221453 489.452635937 487.537190083 489.636363636 c 0,109,110
 498.781836597 488.919247832 498.781836597 488.919247832 507.025676387 483.014583584 c 0,111,112
 512.191888279 480.122373853 512.191888279 480.122373853 515.485867019 476.993924974 c 0,113,114
 522.622098591 468.649977891 522.622098591 468.649977891 523 458 c 0,115,116
 523 428.337875768 523 428.337875768 520.972059275 397.737270652 c 0,117,118
 517.017957671 278.68427602 517.017957671 278.68427602 520.990729773 131.686765208 c 2,119,-1
 521 131.343766793 l 2,120,121
 521 113.625108927 521 113.625108927 520.699957469 103.129383864 c 0,122,123
 520.078357246 81.3853163533 520.078357246 81.3853163533 521.379490488 69.4292604173 c 0,124,125
 522.68062373 57.4732044813 522.68062373 57.4732044813 523.966944659 55.0733596076 c 0,126,127
 531.994151575 50.7490225652 531.994151575 50.7490225652 543.211676261 48.5674375993 c 0,128,129
 554.429200946 46.3858526335 554.429200946 46.3858526335 565.555513439 43.8794154778 c 0,130,131
 581.661096928 39.2476479712 581.661096928 39.2476479712 590.008726179 27.068023375 c 0,132,133
 595.777670613 16.9575261053 595.777670613 16.9575261053 596 5 c 0,134,135
 595.306631431 -8.1939052712 595.306631431 -8.1939052712 589.30605354 -17.2775568775 c 0,136,137
 579.439752306 -29.8750874216 579.439752306 -29.8750874216 565.169967595 -31.4111437172 c 0,138,139
 535.366773814 -34.6192778527 535.366773814 -34.6192778527 503.939181931 -30.247858221 c 0,140,141
 471.667225087 -25.9112711191 471.667225087 -25.9112711191 422.329807764 -30.3926600498 c 0,142,143
 393.696011356 -32.9536434221 393.696011356 -32.9536434221 367 -33 c 2,144,-1
 356 -33 l 2,145,146
 344.052590103 -32.7296762371 344.052590103 -32.7296762371 334.127522908 -30.0419000774 c 0,147,148
 319.332858657 -24.8022851028 319.332858657 -24.8022851028 312.524951919 -11.1336496937 c 0,149,150
 309 -3.20250787633 309 -3.20250787633 309 7 c 0,151,152
 309.786493982 20.4286874524 309.786493982 20.4286874524 318.325796875 29.674203125 c 2,153,-1
 324.670692589 35.7443239633 l 1,154,155
 339.659140229 46.7061364814 339.659140229 46.7061364814 357.170204801 49.2797605065 c 2,156,-1
 379.596578501 52.2698321393 l 2,157,158
 384.635352083 53.2647316071 384.635352083 53.2647316071 387.750564812 54.7903592324 c 0,159,160
 389.162041479 58.9847873908 389.162041479 58.9847873908 391 70 c 1,161,-1
 391 85 l 1,162,-1
 391.012384269 85.7936370082 l 2,163,164
 391.797436513 110.915308846 391.797436513 110.915308846 391.565384923 149.996572979 c 0,165,166
 391.333333333 189.077837111 391.333333333 189.077837111 392.012384269 210.793637008 c 0,167,-1
 392.021974414 211.056700149 l 2,168,169
 393.033374412 235.330300117 393.033374412 235.330300117 394.501238877 258.827892001 c 0,170,171
 397.576622122 308.058663731 397.576622122 308.058663731 393.800441363 333.116206628 c 0,172,173
 391.58681733 345.243454906 391.58681733 345.243454906 386.9727379 354.173544722 c 0,174,175
 381.980687893 362.059577179 381.980687893 362.059577179 375.46697072 366.812281231 c 0,176,177
 367.82501583 371.090234616 367.82501583 371.090234616 356.319466734 372 c 2,178,-1
 253 372 l 2,179,180
 230.152427518 371.977743692 230.152427518 371.977743692 204.599278079 371.320397163 c 1,181,182
 204.982176366 358.149074583 204.982176366 358.149074583 205 350 c 2,0,-1
EndSplineSet
EndChar

StartChar: fl
Encoding: 27 27 13
Width: 616
Flags: W
LayerCount: 2
Fore
SplineSet
339 436 m 1,0,-1
 340 418 l 2,1,2
 339.439388888 399.534473148 339.439388888 399.534473148 331.215654884 385.77648753 c 2,3,-1
 325.478165442 376.596504422 l 1,4,5
 302.967681373 372.094407608 302.967681373 372.094407608 287 372 c 2,6,-1
 205 372 l 1,7,8
 204.981796127 358.366841389 204.981796127 358.366841389 205 350 c 2,9,-1
 204 80 l 2,10,11
 204.113832067 66.0832018459 204.113832067 66.0832018459 207.107075932 60.3956775698 c 0,12,13
 211.212795485 55.1424877578 211.212795485 55.1424877578 215.156051125 52.8752583288 c 0,14,15
 222.917767229 49.5015395582 222.917767229 49.5015395582 235.973964974 48.0727921572 c 0,16,17
 249.54595321 46.5876014993 249.54595321 46.5876014993 274.092558652 42.2558475978 c 1,18,-1
 279.674203125 36.674203125 l 2,19,20
 290.615811215 24.7507392742 290.615811215 24.7507392742 291 8 c 0,21,22
 290.522852351 -1.09678758854 290.522852351 -1.09678758854 287.693731264 -7.75608322683 c 0,23,24
 285.237169153 -12.2424533028 285.237169153 -12.2424533028 282.529290777 -15.48430037 c 2,25,-1
 280.702625156 -20.964297234 l 1,26,-1
 272.376741435 -25.7219450744 l 2,27,28
 258.92571924 -32.8293087253 258.92571924 -32.8293087253 241 -33 c 0,29,30
 219.521926623 -32.8444679376 219.521926623 -32.8444679376 200.77036138 -29.9222339688 c 0,31,32
 164.575625 -24.2816654741 164.575625 -24.2816654741 109.59802353 -29.8663705244 c 0,33,34
 61.2947179452 -34.7022225897 61.2947179452 -34.7022225897 31.1047170927 -31.8865109449 c 0,35,36
 19.481015283 -30.1639565274 19.481015283 -30.1639565274 11.8625089325 -25.1771264426 c 0,37,38
 -1.39534486332 -14.8018439454 -1.39534486332 -14.8018439454 -2 2 c 0,39,40
 -1.43528035684 15.3525775159 -1.43528035684 15.3525775159 3.77909256175 24.8742670444 c 0,41,42
 12.8357108631 38.7295823422 12.8357108631 38.7295823422 27.305361538 42.58971387 c 0,43,44
 41.775012213 46.4498453979 41.775012213 46.4498453979 56.3053071708 49.8473623354 c 0,45,46
 65.6372174141 52.6047342807 65.6372174141 52.6047342807 72.4718993625 58.2513059743 c 0,47,48
 75.6690947622 63.0971207573 75.6690947622 63.0971207573 75.9779074051 76.9871606775 c 0,49,50
 75.9944765044 78.4975323797 75.9944765044 78.4975323797 76 79 c 2,51,-1
 76 366 l 2,52,53
 76 368.00642916 76 368.00642916 75.9064735319 370.07742119 c 0,54,55
 62.8054797714 370.964520228 62.8054797714 370.964520228 51.347670453 371.083893544 c 0,56,57
 39.8898611346 371.20326686 39.8898611346 371.20326686 28.0778059311 373.485310147 c 0,58,59
 12.1705188246 377.652901924 12.1705188246 377.652901924 3.85442708412 389.626041618 c 0,60,61
 -1.78229374554 399.421051441 -1.78229374554 399.421051441 -1.8441455451 408.124117398 c 0,62,63
 -2.01313547869 431.902415664 -2.01313547869 431.902415664 4.54678009017 442.835608279 c 0,64,65
 13.9640702152 457.130942235 13.9640702152 457.130942235 33.3320317256 461.464242909 c 0,66,67
 52.0384249029 465.26010497 52.0384249029 465.26010497 76.3844546462 467.549946301 c 1,68,69
 78.2608094762 496.896342808 78.2608094762 496.896342808 79.2886063062 533.874341076 c 0,70,71
 80.3164031362 570.852339344 80.3164031362 570.852339344 90.7425071506 611.074136384 c 0,72,73
 112.41383978 699.784276607 112.41383978 699.784276607 168.996212541 755.843003516 c 0,74,75
 233.322338271 817.669354151 233.322338271 817.669354151 317.900390625 818.0625 c 0,76,77
 320.751497672 818.0625 320.751497672 818.0625 323.619972297 817.992446917 c 2,78,-1
 323.84631358 817.985914723 l 2,79,80
 357.112671319 816.661650321 357.112671319 816.661650321 383.542590876 809.633694007 c 0,81,82
 406.275759696 802.99938097 406.275759696 802.99938097 424.008236874 788.765200474 c 1,83,84
 459.630438962 801.567537221 459.630438962 801.567537221 486.686948755 810.586373819 c 1,85,-1
 514 792.377672989 l 1,86,-1
 514 779 l 1,87,-1
 514.999969652 724.960666235 l 1,88,-1
 514.000030352 76.9999999532 l 2,89,90
 514.000030352 61.6981607755 514.000030352 61.6981607755 516.573377585 58.9088701177 c 2,91,-1
 517.418720385 57.99259005 l 1,92,93
 530.650763463 51.5753190684 530.650763463 51.5753190684 553.786605708 48.8461398891 c 2,94,-1
 561.584099064 47.9797517385 l 2,95,96
 576.263048827 46.9101994093 576.263048827 46.9101994093 586.040730804 40.0489229768 c 0,97,98
 600.557779311 28.1976548459 600.557779311 28.1976548459 601 8 c 0,99,100
 600.426247332 -4.13219053773 600.426247332 -4.13219053773 595.506138262 -12.985976759 c 0,101,102
 588.625506996 -23.1270343415 588.625506996 -23.1270343415 577.698400195 -28.2914923736 c 0,103,104
 571.28020005 -31.9172033727 571.28020005 -31.9172033727 561 -32 c 2,105,-1
 557 -32 l 2,106,107
 532.143529889 -31.8938512948 532.143529889 -31.8938512948 508.659417774 -29.4731658855 c 0,108,109
 460.535908911 -24.5127111246 460.535908911 -24.5127111246 409.689025843 -29.8567884291 c 0,110,111
 379.827838073 -32.948265641 379.827838073 -32.948265641 350 -33 c 0,112,113
 314.576361432 -32.2207181914 314.576361432 -32.2207181914 304.491328878 -13.8714667465 c 0,114,115
 300 -5.6997010666 300 -5.6997010666 300 3 c 0,116,117
 300.793239497 20.4002879463 300.793239497 20.4002879463 307.654780727 30.2012246316 c 0,118,119
 315.062772983 38.8009641664 315.062772983 38.8009641664 323.193537872 41.1181125476 c 0,120,121
 355.28089798 50.2625381395 355.28089798 50.2625381395 372.078447348 57.4508488301 c 0,122,123
 377.759681267 61.488665774 377.759681267 61.488665774 380.628391107 67.8898820169 c 0,124,125
 383.874323457 78.7410901771 383.874323457 78.7410901771 384.000045193 100.047998698 c 2,126,-1
 384.9999548 631.000000085 l 2,127,128
 384.376401067 688.008348851 384.376401067 688.008348851 352.038108608 710.764085515 c 0,129,130
 332.789699358 722.932429821 332.789699358 722.932429821 306.975069252 723.157894737 c 0,131,132
 290.346782441 722.887739084 290.346782441 722.887739084 274.074402191 718.744394516 c 0,133,134
 251.582991578 712.125262466 251.582991578 712.125262466 239.15283315 693.176498254 c 0,135,136
 209.896743906 645.598103391 209.896743906 645.598103391 204.444027545 566.815445062 c 0,137,138
 202.039618791 529.974658363 202.039618791 529.974658363 202 506 c 2,139,-1
 202 492 l 2,140,141
 202.032181684 480.66976153 202.032181684 480.66976153 202.408228895 467 c 1,142,-1
 295 467 l 2,143,144
 318.476939529 466.139216282 318.476939529 466.139216282 331.674203125 453.674203125 c 2,145,-1
 339 446.34840625 l 1,146,-1
 339 436 l 1,0,-1
517.418720385 57.99259005 m 1,147,-1
 517.431170113 57.9790955988 l 2,148,149
 517.446835382 57.9714863406 517.446835382 57.9714863406 517.418720385 57.99259005 c 1,147,-1
EndSplineSet
EndChar

StartChar: Lslash
Encoding: 28 28 14
Width: 627
Flags: W
LayerCount: 2
Fore
SplineSet
17.2602990576 293.604784783 m 0,0,1
 15.0992020227 298.319905586 15.0992020227 298.319905586 14.8571428571 304.887755102 c 0,2,3
 15.3018851535 314.336074886 15.3018851535 314.336074886 20.4208134676 321.927727218 c 0,4,5
 28.5268193646 332.224815168 28.5268193646 332.224815168 47.8285299764 342.61001313 c 0,6,7
 57.3943786019 347.617365056 57.3943786019 347.617365056 66.2152406411 351.840108647 c 2,8,-1
 82.1701170212 359.990353911 l 2,9,10
 95.2714251096 365.764756052 95.2714251096 365.764756052 105.644600761 371.808148302 c 0,11,12
 116.017776412 377.851540552 116.017776412 377.851540552 124 382.466156325 c 1,13,-1
 124 600 l 2,14,15
 123.65317272 646.952437021 123.65317272 646.952437021 113.670117021 651.509646089 c 0,16,17
 98.7593085831 657.58474134 98.7593085831 657.58474134 80.9067729973 659.956389907 c 0,18,19
 63.0542374116 662.328038475 63.0542374116 662.328038475 47.4952507041 664.819645416 c 0,20,21
 33.2484446388 667.770798775 33.2484446388 667.770798775 24.2390726569 675.257765535 c 0,22,23
 11.4385446331 687.578099056 11.4385446331 687.578099056 11 706 c 0,24,25
 11.57932166 719.408912753 11.57932166 719.408912753 16.7215394211 728.746878471 c 0,26,27
 26.1805535097 743.12273812 26.1805535097 743.12273812 43.1938088599 746.629834666 c 0,28,29
 57.3022989873 748.91399674 57.3022989873 748.91399674 70 749 c 0,30,31
 106.787956482 748.898350356 106.787956482 748.898350356 140.320653839 745.474347427 c 0,32,33
 199.313861046 739.450587629 199.313861046 739.450587629 275.989845242 743.955046615 c 0,34,35
 310.90636882 745.973976235 310.90636882 745.973976235 353 746 c 2,36,-1
 362.498096901 746 l 1,37,-1
 369.597817793 739.689136985 l 2,38,39
 386.402528665 723.451853198 386.402528665 723.451853198 387 705 c 0,40,41
 386.413983523 692.204331948 386.413983523 692.204331948 380.976264528 682.840516326 c 0,42,43
 372.40116138 670.448160124 372.40116138 670.448160124 357.780055935 665.578338726 c 0,44,45
 343.17107569 661.361082253 343.17107569 661.361082253 325.358461863 659.610009688 c 2,46,-1
 293.358461863 656.610009688 l 2,47,48
 285.089137752 655.506446975 285.089137752 655.506446975 280.954959292 652.742929818 c 0,49,50
 272.159820581 639.833100615 272.159820581 639.833100615 272.07991029 594.345737249 c 0,51,52
 272 548.858373882 272 548.858373882 271.612146692 514.725735859 c 0,53,54
 271.224293384 480.593097835 271.224293384 480.593097835 271.100937021 456.171152409 c 1,55,56
 281.242801344 461.233577331 281.242801344 461.233577331 300.24093152 470.890895752 c 0,57,58
 332.879552027 487.482083842 332.879552027 487.482083842 339.067449014 489.758686774 c 0,59,60
 345.255346002 492.035289706 345.255346002 492.035289706 350.141975309 492.222222222 c 0,61,62
 363.819514504 491.712328029 363.819514504 491.712328029 373.464486298 480.928118254 c 0,63,64
 379.306024023 473.78794002 379.306024023 473.78794002 385.584586255 460.497657438 c 2,65,-1
 402.723547406 424.901530483 l 2,66,67
 404.047613188 419.948787017 404.047613188 419.948787017 404.2 415.78 c 0,68,69
 403.649173104 401.714281207 403.649173104 401.714281207 392.450321249 391.680782764 c 0,70,71
 378.29487755 379.825137811 378.29487755 379.825137811 362.829882979 373.009646089 c 0,72,73
 356.208323561 370.110986401 356.208323561 370.110986401 351.29133907 367.692312912 c 2,74,-1
 270 325.763095918 l 1,75,-1
 270 199 l 2,76,77
 270.068394661 148.987274847 270.068394661 148.987274847 272.453033575 126.067039395 c 0,78,79
 276.212677082 89.9307867023 276.212677082 89.9307867023 281.413490769 80.939487476 c 1,80,81
 301.289313661 67.0539793959 301.289313661 67.0539793959 325.579793947 63.8118108982 c 0,82,83
 355.133686258 60.4208781778 355.133686258 60.4208781778 383.176604383 64.5158582259 c 0,84,85
 411.219522509 68.6108382741 411.219522509 68.6108382741 433.002217033 76.4323761293 c 0,86,87
 452.341230521 83.3764585478 452.341230521 83.3764585478 463.770083256 89.8051882111 c 0,88,89
 486.634328902 104.254656303 486.634328902 104.254656303 520.662892366 159.527179099 c 0,90,91
 535.586323667 183.97045982 535.586323667 183.97045982 544.177742967 199.131772071 c 0,92,93
 560.509293073 227.95212434 560.509293073 227.95212434 566.670692589 232.744323963 c 0,94,95
 580.654031085 242.772204169 580.654031085 242.772204169 596.349030471 243.157894737 c 0,96,97
 602.413729776 242.948051438 602.413729776 242.948051438 607.555513439 241.879415478 c 0,98,99
 630.430821425 235.550550925 630.430821425 235.550550925 639.857764131 216.133649694 c 2,100,-1
 645.242124486 204.018838893 l 1,101,-1
 638.215654884 192.77648753 l 2,102,103
 614.625727154 154.610118167 614.625727154 154.610118167 601.276103327 117.010943598 c 0,104,105
 587.926479499 79.4117690288 587.926479499 79.4117690288 580.008195588 48.3845185266 c 0,106,107
 572.089911677 17.3572680244 572.089911677 17.3572680244 566.564850654 -2.29163158428 c 0,108,109
 560.404366857 -21.8292440333 560.404366857 -21.8292440333 552.174203125 -30.5075364583 c 0,110,111
 541.931450467 -39.4627184958 541.931450467 -39.4627184958 530 -40 c 0,112,113
 461.839173297 -39.8684463954 461.839173297 -39.8684463954 392.110103057 -30.9342231977 c 0,114,115
 322.381032817 -22 322.381032817 -22 258 -22 c 0,116,117
 225.770933008 -22.0675501498 225.770933008 -22.0675501498 201.741129699 -24.0095288417 c 0,118,119
 177.71132639 -25.9515075336 177.71132639 -25.9515075336 155.148355343 -27.9515134707 c 0,120,121
 132.585384297 -29.9515194078 132.585384297 -29.9515194078 107.453601803 -31.9588778663 c 0,122,123
 82.3218193099 -33.9662363248 82.3218193099 -33.9662363248 49 -34 c 0,124,125
 31.0196342898 -33.1503906756 31.0196342898 -33.1503906756 19.4689561643 -19.5996828156 c 0,126,127
 10 -7.76348761029 10 -7.76348761029 10 7 c 0,128,129
 10.4678168478 19.2725889694 10.4678168478 19.2725889694 14.390011958 28.0960513118 c 0,130,131
 22.2313447049 42.3996856513 22.2313447049 42.3996856513 36.7482326249 48.1038904548 c 0,132,133
 50.6649907885 52.6674710064 50.6649907885 52.6674710064 66.7932810296 53.8351116338 c 0,134,135
 82.9215712706 55.0027522612 82.9215712706 55.0027522612 98.3376133857 57.2331351263 c 0,136,137
 107.997775512 59.4176143861 107.997775512 59.4176143861 115.550227886 65.9107192227 c 0,138,139
 128.599700522 83.6186359801 128.599700522 83.6186359801 128.6 165.78 c 0,140,141
 128.545891111 194.356838328 128.545891111 194.356838328 127.383227415 216.458160887 c 0,142,143
 126.220563719 238.559483447 126.220563719 238.559483447 125.597534926 251.900967712 c 1,144,145
 111.882037893 244.871881734 111.882037893 244.871881734 97.0840217279 238.998370186 c 0,146,147
 74.8105067923 230.157742785 74.8105067923 230.157742785 64.9591836735 229.857142857 c 0,148,149
 57.8319096298 230.443163058 57.8319096298 230.443163058 53.0544354839 232.414894454 c 0,150,151
 45.4864803367 236.917181059 45.4864803367 236.917181059 40.8566744852 243.879279824 c 0,152,153
 36.2268686337 250.841378589 36.2268686337 250.841378589 31.8969117067 260.967471674 c 0,154,155
 27.5669547798 271.093564758 27.5669547798 271.093564758 17.2602990576 293.604784783 c 0,0,1
EndSplineSet
EndChar

StartChar: lslash
Encoding: 29 29 15
Width: 317
Flags: W
LayerCount: 2
Fore
SplineSet
223 650 m 1,0,-1
 222 515 l 1,1,-1
 222 483.242112206 l 1,2,3
 223.978294662 484.321005625 223.978294662 484.321005625 230.434659684 487.855792989 c 0,4,5
 236.891024705 491.390580354 236.891024705 491.390580354 249.512896348 497.965643029 c 0,6,7
 280.687124125 514.205112681 280.687124125 514.205112681 280.729777227 514.222173922 c 0,8,9
 286.255346002 516.035289706 286.255346002 516.035289706 291.141975309 516.222222222 c 0,10,11
 304.819514504 515.712328029 304.819514504 515.712328029 314.464486298 504.928118254 c 0,12,13
 320.306024023 497.78794002 320.306024023 497.78794002 326.584586255 484.497657438 c 2,14,-1
 343.723547406 448.901530483 l 2,15,16
 345.047613188 443.948787017 345.047613188 443.948787017 345.2 439.78 c 0,17,18
 344.649173104 425.714281207 344.649173104 425.714281207 333.450321249 415.680782764 c 0,19,20
 319.29487755 403.825137811 319.29487755 403.825137811 303.829882979 397.009646089 c 0,21,22
 297.305847915 394.153852425 297.305847915 394.153852425 292.45978781 391.776244553 c 2,23,-1
 222 354.029929655 l 1,24,-1
 222 76 l 1,25,-1
 225.431170113 56.9790955988 l 1,26,27
 239.936868503 50.4279946917 239.936868503 50.4279946917 261.786605708 47.8461398891 c 2,28,-1
 269.584099064 46.9797517385 l 2,29,30
 284.263048827 45.9101994093 284.263048827 45.9101994093 294.040730804 39.0489229768 c 0,31,32
 308.557779311 27.1976548459 308.557779311 27.1976548459 309 7 c 0,33,34
 308.426247332 -5.13219053773 308.426247332 -5.13219053773 303.506138262 -13.985976759 c 0,35,36
 296.625506996 -24.1270343416 296.625506996 -24.1270343416 285.698400195 -29.2914923737 c 0,37,38
 279.28020005 -32.9172033727 279.28020005 -32.9172033727 269 -33 c 2,39,-1
 265 -33 l 2,40,41
 240.143529889 -32.8938512948 240.143529889 -32.8938512948 216.659417774 -30.4731658855 c 0,42,43
 168.535908911 -25.5127111246 168.535908911 -25.5127111246 117.689025843 -30.8567884291 c 0,44,45
 87.827838073 -33.948265641 87.827838073 -33.948265641 58 -34 c 0,46,47
 32.7732655827 -33.4450390751 32.7732655827 -33.4450390751 20.607335415 -24.509634224 c 0,48,49
 8.54190006949 -13.9636555598 8.54190006949 -13.9636555598 8 2 c 0,50,51
 8.79323949693 19.4002879463 8.79323949693 19.4002879463 15.6547807269 29.2012246316 c 0,52,53
 23.0627729833 37.8009641664 23.0627729833 37.8009641664 31.1935378719 40.1181125476 c 0,54,55
 63.2808979797 49.2625381395 63.2808979797 49.2625381395 80.0784473479 56.4508488301 c 0,56,57
 85.7596812666 60.488665774 85.7596812666 60.488665774 88.6283911069 66.8898820169 c 0,58,59
 91.8741489611 77.7405068357 91.8741489611 77.7405068357 92 99 c 2,60,-1
 92 286.789627132 l 1,61,62
 43.3453951992 261.448687132 43.3453951992 261.448687132 23.9591836735 260.857142857 c 0,63,64
 16.8319096298 261.443163058 16.8319096298 261.443163058 12.0544354839 263.414894454 c 0,65,66
 4.48648033674 267.917181059 4.48648033674 267.917181059 -0.143325514806 274.879279824 c 0,67,68
 -4.77313136635 281.841378589 -4.77313136635 281.841378589 -9.10308829327 291.967471674 c 2,69,-1
 -24.7235474061 327.098469517 l 2,70,71
 -25.9946276746 331.865809313 -25.9946276746 331.865809313 -26.1428571429 335.887755102 c 0,72,73
 -25.6981148465 345.336074886 -25.6981148465 345.336074886 -20.5791865324 352.927727218 c 0,74,75
 -12.4731806354 363.224815168 -12.4731806354 363.224815168 6.82852997638 373.61001313 c 0,76,77
 16.3943786019 378.617365056 16.3943786019 378.617365056 25.2152406411 382.840108647 c 0,78,79
 34.7502139501 387.404713247 34.7502139501 387.404713247 40.1119357046 390.6217463 c 0,80,81
 47.7515945011 393.486618349 47.7515945011 393.486618349 58.84964081 399.846439976 c 0,82,83
 69.9476871188 406.206261603 69.9476871188 406.206261603 93 417.603907955 c 1,84,-1
 93 461 l 1,85,-1
 94 570 l 1,86,-1
 94 630 l 2,87,88
 93.9078686395 644.539827982 93.9078686395 644.539827982 92.5921339303 660.340755355 c 0,89,90
 91.2471658186 669.324237355 91.2471658186 669.324237355 87.1106104569 674.508272637 c 0,91,92
 83.3109175726 677.099247953 83.3109175726 677.099247953 70.5595931182 683.9593861 c 0,93,94
 57.8082686638 690.819524247 57.8082686638 690.819524247 51.1577523731 695.183825429 c 0,95,96
 34.7648167192 707.541935255 34.7648167192 707.541935255 34 725 c 2,97,-1
 34 729 l 2,98,99
 34.6403559625 737.201521736 34.6403559625 737.201521736 37.3208462067 742.812912486 c 0,100,101
 42.3044385069 750.356904856 42.3044385069 750.356904856 49.1250627392 754.265174421 c 0,102,103
 55.1539987848 756.808399167 55.1539987848 756.808399167 61 757 c 0,104,105
 79.2685395796 759.066911632 79.2685395796 759.066911632 126.676367224 776.895829669 c 0,106,107
 151.365135428 786.321549547 151.365135428 786.321549547 166 793.704379045 c 1,108,-1
 166 828.711006323 l 1,109,-1
 222 791.377672989 l 1,110,-1
 222 778 l 1,111,-1
 223 724 l 1,112,-1
 223 650 l 1,0,-1
EndSplineSet
EndChar

StartChar: Zcaron
Encoding: 30 30 16
Width: 757
Flags: W
LayerCount: 2
Fore
SplineSet
222.444444444 58.3333333333 m 2,0,-1
 247 59 l 2,1,2
 291.858477183 59 291.858477183 59 344.35993353 59.4999176011 c 0,3,4
 396.861389876 59.9998352022 396.861389876 59.9998352022 437.007867636 60.0195737249 c 0,5,6
 477.154345395 60.0393122475 477.154345395 60.0393122475 515.909724835 61.5587313642 c 0,7,8
 554.665104275 63.0781504809 554.665104275 63.0781504809 585.872125554 71.6868231195 c 0,9,10
 603.706232141 79.6076299521 603.706232141 79.6076299521 612.694599423 90.7504580134 c 0,11,12
 625.556345254 107.660433429 625.556345254 107.660433429 638.303244614 128.437157717 c 0,13,14
 642.962931437 137.618626018 642.962931437 137.618626018 647.036381019 150.8108657 c 0,15,16
 659.378597329 190.782264012 659.378597329 190.782264012 684.598469517 200.223547406 c 0,17,18
 690.439968295 201.85420794 690.439968295 201.85420794 695.68 202 c 0,19,20
 712.008177754 201.368841475 712.008177754 201.368841475 727.989281283 188.212924202 c 2,21,-1
 735.03552478 182.341054622 l 1,22,23
 739.903197841 154.757573942 739.903197841 154.757573942 739.824893057 135.535019323 c 0,24,25
 739.746588274 116.312464703 739.746588274 116.312464703 735.085169915 97.7938108053 c 0,26,27
 727.515942526 67.7231560179 727.515942526 67.7231560179 724.346139889 39.7133942916 c 0,28,29
 722.271703333 23.0264562996 722.271703333 23.0264562996 717.61972533 9.29361611403 c 0,30,31
 710.764711198 -8.59793543734 710.764711198 -8.59793543734 698.450321249 -19.8192172363 c 0,32,33
 682.639933519 -32.7477325946 682.639933519 -32.7477325946 658 -33 c 0,34,35
 618.832166877 -32.9477155052 618.832166877 -32.9477155052 580.832150053 -30.9868386021 c 0,36,37
 542.832133229 -29.025961699 542.832133229 -29.025961699 506 -29 c 2,38,-1
 419 -29 l 2,39,40
 328.490191612 -29 328.490191612 -29 229.98870944 -32.4993676369 c 0,41,42
 131.487227268 -35.9987352738 131.487227268 -35.9987352738 40 -36 c 0,43,44
 24.2695313569 -35.2818275598 24.2695313569 -35.2818275598 13.9592691955 -28.0489229768 c 0,45,46
 -0.557779310516 -16.1976548459 -0.557779310516 -16.1976548459 -1 4 c 0,47,48
 -0.716686811563 11.5767535992 -0.716686811563 11.5767535992 2.13962403918 16.412746068 c 0,49,50
 7.12213446867 24.8485866234 7.12213446867 24.8485866234 22.6221179434 44.1405434674 c 0,51,52
 38.1221014181 63.4325003115 38.1221014181 63.4325003115 64.614353912 96.8966583274 c 0,53,54
 85.0836190451 122.752773169 85.0836190451 122.752773169 196.403091112 258.332302282 c 0,55,56
 307.722563178 393.911831395 307.722563178 393.911831395 338.308771204 430.515280176 c 0,57,58
 393.426507265 496.519456382 393.426507265 496.519456382 418.255676037 528.329307411 c 0,59,60
 426.846877579 539.156707319 426.846877579 539.156707319 445.613317286 559.9160616 c 0,61,62
 508.818280267 629.83311776 508.818280267 629.83311776 527.924280727 653.655056984 c 1,63,64
 513.029815369 653.015939655 513.029815369 653.015939655 511 653 c 2,65,-1
 441 653 l 2,66,67
 407.088526095 652.980887728 407.088526095 652.980887728 319.862744716 651.482182928 c 0,68,69
 232.636963338 649.983478129 232.636963338 649.983478129 211.369649414 649.035998544 c 0,70,71
 182.127207309 646.97645876 182.127207309 646.97645876 159.352551601 640.100523798 c 0,72,73
 139.866225346 633.334106404 139.866225346 633.334106404 120.674203125 613.325796875 c 0,74,75
 112.20846956 604.12444235 112.20846956 604.12444235 96.4978371452 575.119060427 c 0,76,77
 88.4418263261 560.694854452 88.4418263261 560.694854452 80.3062314828 550.623351579 c 0,78,79
 64.8606215708 533.649585958 64.8606215708 533.649585958 48 533 c 0,80,81
 25.4828984901 533.679727755 25.4828984901 533.679727755 12.6068528118 543.530701062 c 0,82,83
 1.86901137148 553.50680105 1.86901137148 553.50680105 1.28 567.4768 c 0,84,85
 1.89941607038 580.71793669 1.89941607038 580.71793669 17.100523798 630.352551601 c 2,86,-1
 33.4969443827 683.534373244 l 2,87,88
 41.3834712216 705.339619449 41.3834712216 705.339619449 46.6447845131 721.994875443 c 0,89,90
 51.4625797746 735.545868472 51.4625797746 735.545868472 58.9820910201 743.851620759 c 0,91,92
 72.1572347437 756.527117379 72.1572347437 756.527117379 90 757 c 0,93,94
 110.329027926 756.735445735 110.329027926 756.735445735 123.767122741 751.917099383 c 0,95,96
 132.276697879 748.749177517 132.276697879 748.749177517 134.732071334 748.149103916 c 0,97,98
 137.825551914 747.393082045 137.825551914 747.393082045 149.579728707 746.324520518 c 1,99,-1
 154.842247627 742.816174571 l 2,100,101
 160.133938849 740.271546061 160.133938849 740.271546061 173.966566603 738.664195383 c 0,102,103
 187.799194357 737.056844704 187.799194357 737.056844704 202 737 c 2,104,-1
 221 737 l 2,105,106
 266.418422069 737.019923013 266.418422069 737.019923013 321.040880452 738.009004838 c 0,107,108
 349.757499936 738.528994001 349.757499936 738.528994001 379.269548856 738.913799285 c 1,109,110
 373.803151059 744.540277031 373.803151059 744.540277031 371.576833467 748.769176038 c 0,111,112
 342.949873633 796.098742807 342.949873633 796.098742807 316.197671654 839.196910327 c 0,113,114
 289.113874477 882.829282299 289.113874477 882.829282299 274.433254867 921.628062698 c 0,115,116
 271.211337198 931.810980523 271.211337198 931.810980523 271 938 c 0,117,118
 272.07834266 953.991372594 272.07834266 953.991372594 282.595104564 963.237491024 c 0,119,120
 291.187129674 970.111111111 291.187129674 970.111111111 303.111111111 970.111111111 c 0,121,122
 307.735842397 969.951960187 307.735842397 969.951960187 313.522251933 968.579339229 c 0,123,124
 323.970145522 966.100946086 323.970145522 966.100946086 339.028005182 947.974597203 c 0,125,126
 354.085864841 929.84824832 354.085864841 929.84824832 368.385038206 911.146666568 c 0,127,128
 390.281622696 882.630219523 390.281622696 882.630219523 403.567073132 868.455271507 c 1,129,130
 413.969960251 880.884068453 413.969960251 880.884068453 431.419642996 904.941514927 c 0,131,132
 448.869325741 928.998961402 448.869325741 928.998961402 461.847912594 943.63940583 c 0,133,134
 482.598277243 965.395001924 482.598277243 965.395001924 503 966 c 0,135,136
 519.370945758 964.891262046 519.370945758 964.891262046 528.447422006 952.953243224 c 0,137,138
 533.828983586 944.294397124 533.828983586 944.294397124 534 934 c 0,139,140
 534 927.641099176 534 927.641099176 532.632918117 924.19732387 c 0,141,142
 531.265836235 920.753548565 531.265836235 920.753548565 530.036322455 917.54951053 c 0,143,144
 524.330302287 902.679969455 524.330302287 902.679969455 510.401814068 877.438935764 c 0,145,146
 450.88820774 769.589116118 450.88820774 769.589116118 428.011414798 741.039920943 c 0,147,148
 427.267534742 740.208348562 427.267534742 740.208348562 426.563130042 739.438973362 c 1,149,150
 429.858665633 739.469327306 429.858665633 739.469327306 433.163709264 739.498064395 c 0,151,152
 490.664079694 739.998042128 490.664079694 739.998042128 546.390302943 740.99409559 c 0,153,154
 602.116526191 741.990149051 602.116526191 741.990149051 647 742 c 0,155,156
 655.756141246 742.212161582 655.756141246 742.212161582 670.030928568 744.51599015 c 0,157,158
 691.909048318 748.046931534 691.909048318 748.046931534 704.34 748.2 c 0,159,160
 719.652491021 747.759706688 719.652491021 747.759706688 731.122713496 742.634040074 c 0,161,162
 742.181500989 736.463624546 742.181500989 736.463624546 747.75009369 726.849574192 c 0,163,164
 753.447696732 714.483874992 753.447696732 714.483874992 750.793592814 700.281062262 c 0,165,166
 750.103916876 694.685498548 750.103916876 694.685498548 747.03757106 690.331792316 c 0,167,168
 736.282602008 675.061506904 736.282602008 675.061506904 682.451636571 612.702246268 c 2,169,-1
 465.411664049 360.155930615 l 2,170,171
 431.919020585 321.420792761 431.919020585 321.420792761 376.027910709 255.240541071 c 0,172,173
 320.136800833 189.060289381 320.136800833 189.060289381 312.976627459 179.968571416 c 0,174,175
 303.656563689 167.397111208 303.656563689 167.397111208 287.225739579 147.936629205 c 0,176,177
 231.053911031 81.4073515995 231.053911031 81.4073515995 217.886452708 58.4423557297 c 1,178,179
 220.649053229 58.3333333333 220.649053229 58.3333333333 222.444444444 58.3333333333 c 2,0,-1
EndSplineSet
EndChar

StartChar: zcaron
Encoding: 31 31 17
Width: 465
Flags: W
LayerCount: 2
Fore
SplineSet
286 474 m 1,0,-1
 359 476 l 1,1,-1
 374 476 l 2,2,3
 409.901518118 475.723002582 409.901518118 475.723002582 428.53764224 469.420257496 c 0,4,5
 442.176951579 463.759589818 442.176951579 463.759589818 447.35673797 456.507888871 c 0,6,7
 454.411197104 445.525093818 454.411197104 445.525093818 454.777777778 433.913580247 c 0,8,9
 454.335050691 423.7635336 454.335050691 423.7635336 449.441516257 413.976464731 c 2,10,-1
 259.261701779 153.359681928 l 2,11,12
 237.439695966 123.322498274 237.439695966 123.322498274 211.116893249 90.0082342655 c 0,13,14
 198.874011399 74.3268239001 198.874011399 74.3268239001 189.87099865 60 c 1,15,-1
 215 60 l 2,16,17
 273.551931344 60.0604285437 273.551931344 60.0604285437 299.443597362 62.9435651195 c 0,18,19
 325.33526338 65.8267016954 325.33526338 65.8267016954 340.940258253 68.9867760162 c 2,20,-1
 353.743815316 72.9873457664 l 1,21,22
 358.839491795 79.6705970165 358.839491795 79.6705970165 362.274319487 93.801859937 c 0,23,24
 365.70914718 107.933122858 365.70914718 107.933122858 369.409469071 121.44570511 c 0,25,26
 373.109790963 134.958287363 373.109790963 134.958287363 382.325796875 144.674203125 c 2,27,-1
 389.65159375 152 l 1,28,-1
 403.896452749 152 l 2,29,30
 406.059510153 152.166666667 406.059510153 152.166666667 408.138888889 152.166666667 c 0,31,32
 429.475236858 150.912682752 429.475236858 150.912682752 439.45321991 135.835608279 c 0,33,34
 445.843116286 124.225294303 445.843116286 124.225294303 446 109 c 2,35,-1
 446 86 l 2,36,37
 445.860558642 37.4229143457 445.860558642 37.4229143457 439.464242909 6.33203172558 c 0,38,39
 437.380849848 -2.30832312353 437.380849848 -2.30832312353 435.028428792 -7.52085941835 c 0,40,41
 423.062983028 -28.7919452667 423.062983028 -28.7919452667 403.555555556 -29.6666666667 c 0,42,43
 394.985466319 -29.2572634197 394.985466319 -29.2572634197 387.673544722 -25.5272621005 c 0,44,45
 386.692368877 -24.9989366455 386.692368877 -24.9989366455 386.096113712 -24.9990711557 c 0,46,47
 311.169962002 -25 311.169962002 -25 241.169556671 -26.0000910055 c 0,48,49
 171.169151339 -27.000182011 171.169151339 -27.000182011 96 -27 c 2,50,-1
 82 -27 l 2,51,52
 41.4578816446 -26.7530280884 41.4578816446 -26.7530280884 24.1757280044 -19.2720821304 c 0,53,54
 13.5995488426 -13.4535352793 13.5995488426 -13.4535352793 8.60650534131 -6.49980784104 c 0,55,56
 4.33301090276 1.21263716025 4.33301090276 1.21263716025 4 9 c 0,57,58
 4.65856530126 21.9133222729 4.65856530126 21.9133222729 10.1838254287 30.8422476269 c 2,59,-1
 14.1838254287 37.8422476269 l 2,60,61
 23.7430007215 51.8417078333 23.7430007215 51.8417078333 34.0443084129 63.288306009 c 0,62,63
 44.3456161043 74.7349041847 44.3456161043 74.7349041847 52.5051368759 84.6463721222 c 0,64,65
 97.4274826194 141.64121082 97.4274826194 141.64121082 138.226898429 198.124275873 c 2,66,-1
 221.45690906 313.250817525 l 2,67,68
 228.626659692 323.76416564 228.626659692 323.76416564 240.496356119 339.14885855 c 0,69,70
 258.621872959 362.641920242 258.621872959 362.641920242 279.967946989 392.73972646 c 1,71,-1
 254 392 l 1,72,-1
 223 392 l 2,73,74
 196.654529908 391.981802024 196.654529908 391.981802024 169.898513671 391.429144303 c 0,75,76
 142.554161027 390.864334225 142.554161027 390.864334225 125.22753393 386.532677451 c 0,77,78
 115.296972418 384.78022542 115.296972418 384.78022542 110.686550143 380.851145417 c 0,79,80
 102.443698666 372.750407488 102.443698666 372.750407488 95.1218362048 363.183468376 c 0,81,82
 87.7999737439 353.616529265 87.7999737439 353.616529265 80.2773554921 345.450105504 c 0,83,84
 65.1911805533 330.427444596 65.1911805533 330.427444596 43 330 c 0,85,86
 33.8508533782 330.280979116 33.8508533782 330.280979116 25.814490657 332.549769336 c 0,87,88
 4.98826248651 340.648280992 4.98826248651 340.648280992 4.42857142857 361.448979592 c 0,89,90
 4.81988263057 370.639810048 4.81988263057 370.639810048 9.05921392145 382.008661187 c 0,91,92
 13.2985452123 393.377512326 13.2985452123 393.377512326 14.7954574099 396.577531325 c 0,93,94
 17.687847031 402.760727478 17.687847031 402.760727478 23.017681747 421.859872578 c 0,95,96
 28.347516463 440.959017679 28.347516463 440.959017679 31.7395927184 450.063803529 c 0,97,98
 35.1316689738 459.16858938 35.1316689738 459.16858938 40.7687133238 467.181943157 c 0,99,100
 52.9223865142 482.458447298 52.9223865142 482.458447298 73 483 c 0,101,102
 92.4914908947 482.606008924 92.4914908947 482.606008924 107.329882979 476.490353911 c 0,103,104
 114.354603863 474.195539897 114.354603863 474.195539897 130 474 c 2,105,-1
 230.320024691 474 l 1,106,-1
 222.885414286 478.130339114 l 2,107,108
 215.322599055 482.603951488 215.322599055 482.603951488 211.251430165 485.918010892 c 0,109,110
 204.998041899 492.170081292 204.998041899 492.170081292 202.576833467 496.769176038 c 0,111,112
 173.949873634 544.098742807 173.949873634 544.098742807 147.197671655 587.196910327 c 0,113,114
 120.113874477 630.829282299 120.113874477 630.829282299 105.433254867 669.628062698 c 0,115,116
 102.211337198 679.810980523 102.211337198 679.810980523 102 686 c 0,117,118
 103.07834266 701.991372594 103.07834266 701.991372594 113.595104564 711.237491024 c 0,119,120
 122.717089187 717.870393586 122.717089187 717.870393586 134.111111111 718.111111111 c 0,121,122
 138.735842397 717.951960187 138.735842397 717.951960187 144.522251933 716.579339229 c 0,123,124
 154.970145522 714.100946086 154.970145522 714.100946086 170.028005182 695.974597203 c 0,125,126
 185.085864841 677.84824832 185.085864841 677.84824832 199.385038206 659.146666568 c 0,127,128
 221.281622696 630.630219523 221.281622696 630.630219523 234.567073132 616.455271507 c 1,129,130
 244.969960251 628.884068453 244.969960251 628.884068453 262.419642996 652.941514927 c 0,131,132
 279.869325741 676.998961402 279.869325741 676.998961402 292.847912594 691.63940583 c 0,133,134
 313.598277243 713.395001924 313.598277243 713.395001924 334 714 c 0,135,136
 350.370945758 712.891262046 350.370945758 712.891262046 359.447422006 700.953243224 c 0,137,138
 364.828983586 692.294397124 364.828983586 692.294397124 365 682 c 0,139,140
 365 675.641099176 365 675.641099176 363.632918117 672.19732387 c 0,141,142
 362.265836235 668.753548565 362.265836235 668.753548565 361.036322455 665.54951053 c 0,143,144
 355.330302287 650.679969455 355.330302287 650.679969455 341.401814068 625.438935764 c 0,145,146
 281.88820774 517.589116118 281.88820774 517.589116118 259.011414798 489.039920943 c 0,147,148
 253.353289895 482.714787793 253.353289895 482.714787793 249.979002409 479.98811406 c 2,149,-1
 241.994850329 474 l 1,150,-1
 286 474 l 1,0,-1
EndSplineSet
EndChar

StartChar: exclam
Encoding: 33 33 18
Width: 242
Flags: W
LayerCount: 2
Fore
SplineSet
204 45 m 0,0,1
 203.102414206 5.14329378229 203.102414206 5.14329378229 175.341666971 -18.3349869348 c 0,2,3
 148.28162615 -39.6353073119 148.28162615 -39.6353073119 114 -40 c 0,4,5
 78.2742615708 -39.1064610967 78.2742615708 -39.1064610967 54.870359358 -12.088699422 c 0,6,7
 33.3995971011 14.505278854 33.3995971011 14.505278854 33 46 c 0,8,9
 33.7688017597 82.13773658 33.7688017597 82.13773658 57.3381571052 107.672829954 c 0,10,11
 82.9527982022 133.545214697 82.9527982022 133.545214697 119 134 c 0,12,13
 154.304756683 133.13240502 154.304756683 133.13240502 179.585532714 105.71365063 c 0,14,15
 203.568695999 77.9572224102 203.568695999 77.9572224102 204 45 c 0,0,1
172 750 m 0,16,17
 216.351643901 748.230323713 216.351643901 748.230323713 216.571428571 708.204081633 c 0,18,19
 216.321274255 696.372343973 216.321274255 696.372343973 198.060250422 547.595196904 c 0,20,21
 163.326849309 264.613455424 163.326849309 264.613455424 153.514689853 210.077805931 c 1,22,23
 149.809122995 196.669527219 149.809122995 196.669527219 138.774067167 189.774833104 c 0,24,25
 128.89504138 184.893001186 128.89504138 184.893001186 117.170204801 186.220239494 c 0,26,27
 102.911837565 188.710285533 102.911837565 188.710285533 94.0209975906 194.98811406 c 2,28,-1
 85.1269255169 201.658668116 l 1,29,30
 79.172430059 265.967219061 79.172430059 265.967219061 72.1635950753 328.627142912 c 2,31,-1
 57.6708778444 455.06430937 l 2,32,33
 40.8919141616 598.244799464 40.8919141616 598.244799464 37.0312834718 698.692340621 c 0,34,35
 36.7805371198 703.493764513 36.7805371198 703.493764513 37.0934380048 713.583389277 c 0,36,37
 37.4063388899 723.67301404 37.4063388899 723.67301404 42.5467800902 732.835608279 c 0,38,39
 54.1030788901 750.306653912 54.1030788901 750.306653912 77.68 750.6 c 0,40,41
 87.1940511441 750.424322078 87.1940511441 750.424322078 97.6415020047 748.712161039 c 0,42,43
 108.088952865 747 108.088952865 747 122.905350483 747.05186607 c 0,44,45
 137.7217481 747.10373214 137.7217481 747.10373214 149.752333777 748.517998358 c 0,46,47
 161.782919454 749.932264577 161.782919454 749.932264577 172 750 c 0,16,17
EndSplineSet
EndChar

StartChar: quotedbl
Encoding: 34 34 19
Width: 297
Flags: W
LayerCount: 2
Fore
SplineSet
216 753 m 1,0,-1
 244.541429973 752.012465466 l 2,1,2
 248.883656664 752.756507211 248.883656664 752.756507211 252.204081633 752.857142857 c 0,3,4
 272.873631219 751.662523787 272.873631219 751.662523787 282.167997962 733.050250835 c 0,5,6
 286.479654858 722.675490468 286.479654858 722.675490468 286.727272727 713.966942149 c 0,7,8
 286.452722315 708.337810645 286.452722315 708.337810645 285.318545058 703.92426345 c 0,9,10
 281.426622648 680.321734168 281.426622648 680.321734168 275.570330404 627.836263312 c 0,11,12
 266.691713963 548.264010934 266.691713963 548.264010934 261.240112624 523.811823534 c 0,13,14
 258.763090234 514.062165417 258.763090234 514.062165417 256.745990671 509.600020356 c 0,15,16
 245.013239828 486.975014206 245.013239828 486.975014206 218.68 486.4 c 0,17,18
 203.909334666 486.834006075 203.909334666 486.834006075 191.687241781 495.005281389 c 0,19,20
 177.748522807 505.841342641 177.748522807 505.841342641 175.291479218 521.174009085 c 0,21,22
 153.612789606 662.085491565 153.612789606 662.085491565 152.714285714 715.734693878 c 0,23,24
 153.375817143 728.742104169 153.375817143 728.742104169 158.284345116 737.22351247 c 0,25,26
 164.708039515 746.362347495 164.708039515 746.362347495 175.066565941 750.340142148 c 0,27,28
 183.32360083 752.92612817 183.32360083 752.92612817 193 753 c 2,29,-1
 216 753 l 1,0,-1
75 753 m 1,30,-1
 103.541429973 752.012465466 l 2,31,32
 107.883656664 752.756507211 107.883656664 752.756507211 111.204081633 752.857142857 c 0,33,34
 131.873631219 751.662523787 131.873631219 751.662523787 141.167997962 733.050250835 c 0,35,36
 145.479654858 722.675490468 145.479654858 722.675490468 145.727272727 713.966942149 c 0,37,38
 145.452722315 708.337810645 145.452722315 708.337810645 144.318545058 703.92426345 c 0,39,40
 140.426622648 680.321734168 140.426622648 680.321734168 134.570330404 627.836263312 c 0,41,42
 125.691713963 548.264010934 125.691713963 548.264010934 120.240112624 523.811823534 c 0,43,44
 117.763090234 514.062165417 117.763090234 514.062165417 115.745990671 509.600020356 c 0,45,46
 104.013239828 486.975014206 104.013239828 486.975014206 77.68 486.4 c 0,47,48
 62.9093346662 486.834006075 62.9093346662 486.834006075 50.6872417805 495.005281389 c 0,49,50
 36.7485228075 505.841342641 36.7485228075 505.841342641 34.2914792182 521.174009085 c 0,51,52
 12.6127896058 662.085491565 12.6127896058 662.085491565 11.7142857143 715.734693878 c 0,53,54
 12.3758171429 728.742104169 12.3758171429 728.742104169 17.2843451157 737.22351247 c 0,55,56
 23.708039515 746.362347495 23.708039515 746.362347495 34.0665659413 750.340142148 c 0,57,58
 42.3236008296 752.92612817 42.3236008296 752.92612817 52 753 c 2,59,-1
 75 753 l 1,30,-1
EndSplineSet
EndChar

StartChar: numbersign
Encoding: 35 35 20
Width: 512
Flags: W
LayerCount: 2
Fore
SplineSet
275.710921665 257 m 1,0,1
 284.859602933 300.456236022 284.859602933 300.456236022 285.337735291 302.755205094 c 1,2,3
 278.568058226 302.652123855 278.568058226 302.652123855 267.197670763 302.422169235 c 0,4,5
 255.8272833 302.192214615 255.8272833 302.192214615 240.067879633 302.071369414 c 1,6,7
 235.924800979 283.077054965 235.924800979 283.077054965 233.880051098 272.878958858 c 0,8,9
 231.835301217 262.68086275 231.835301217 262.68086275 230.618872476 257 c 1,10,-1
 275.710921665 257 l 1,0,1
263.998871454 414.811004744 m 1,11,-1
 307.014144831 414.105333688 l 1,12,13
 319.24851215 484.427773395 319.24851215 484.427773395 332.738662556 570.427482234 c 1,14,-1
 347.814490657 574.950230664 l 2,15,16
 367.787966595 580.470342641 367.787966595 580.470342641 400.184554938 578.444027545 c 0,17,18
 409.670364755 577.69266352 409.670364755 577.69266352 415.922194069 576.514689853 c 2,19,-1
 438.558116437 571.987505379 l 1,20,21
 430.783858469 506.683738441 430.783858469 506.683738441 424.51039875 473.546191975 c 0,22,23
 418.236939031 440.408645509 418.236939031 440.408645509 412.801965582 414 c 1,24,-1
 498.499128667 414 l 1,25,-1
 502.514689853 393.922194069 l 2,26,27
 504.893235105 381.086377528 504.893235105 381.086377528 505 374 c 2,28,-1
 505 360 l 2,29,30
 504.945231316 350.71970576 504.945231316 350.71970576 504.46501288 341.167290964 c 0,31,32
 502.842824874 323.179780628 502.842824874 323.179780628 493.212924202 311.010718717 c 2,33,-1
 484.706516015 300.803028892 l 1,34,35
 463.243981513 302.949282342 463.243981513 302.949282342 453 303 c 2,36,-1
 389.170926938 303 l 1,37,38
 384.966092105 283.296497137 384.966092105 283.296497137 382.900696661 272.988679944 c 0,39,40
 380.835301217 262.68086275 380.835301217 262.68086275 379.618872476 257 c 1,41,-1
 447.779526514 257 l 1,42,-1
 455.280071058 246.614630632 l 2,43,44
 470.510373122 224.42483681 470.510373122 224.42483681 470.903225806 204.268470343 c 0,45,46
 470.278985113 184.630292933 470.278985113 184.630292933 457.634040074 157.377286504 c 2,47,-1
 451.20248807 143.710238496 l 1,48,49
 400.282075649 141.395674295 400.282075649 141.395674295 355.546470438 141.07328722 c 1,50,51
 351.119218209 117.665657995 351.119218209 117.665657995 328.26997427 -23 c 1,52,-1
 307 -23 l 1,53,-1
 279.777777778 -24.3333333333 l 2,54,55
 266.472413972 -24.238804467 266.472413972 -24.238804467 222.599181023 -20.728945831 c 1,56,57
 240.620805653 81.3935937384 240.620805653 81.3935937384 252.439251409 141 c 1,58,-1
 206.532515424 141 l 1,59,60
 202.112302687 117.623084317 202.112302687 117.623084317 179.26997427 -23 c 1,61,-1
 158 -23 l 1,62,-1
 130.777777778 -24.3333333333 l 2,63,64
 117.472413972 -24.238804467 117.472413972 -24.238804467 73.5991810228 -20.728945831 c 1,65,66
 90.7008201562 76.1803425913 90.7008201562 76.1803425913 103.603464479 142.17137839 c 1,67,68
 67.548542704 142.597032417 67.548542704 142.597032417 18 145.349729234 c 1,69,-1
 18 169 l 2,70,71
 17.7923780407 173.762454261 17.7923780407 173.762454261 15.468615762 181.010861469 c 0,72,73
 13.1448534832 188.259268676 13.1448534832 188.259268676 13 201 c 0,74,75
 13.2784133274 211.132233999 13.2784133274 211.132233999 15.8885277547 220.803617444 c 0,76,77
 18.4986421821 230.475000889 18.4986421821 230.475000889 19.3407414475 235.133401551 c 2,78,-1
 22.8185078558 256 l 1,79,-1
 44 256 l 2,80,81
 62.5447256793 256.022316747 62.5447256793 256.022316747 84.6218251791 256.428021005 c 0,82,83
 106.698924679 256.833725262 106.698924679 256.833725262 126.692379534 256.947101642 c 1,84,85
 129.630644471 270.806933837 129.630644471 270.806933837 132.044641072 281.911335683 c 0,86,87
 134.458637673 293.015737528 134.458637673 293.015737528 136.349058816 302 c 1,88,-1
 74.4007473265 302 l 1,89,-1
 66.9953942302 313.444636603 l 2,90,91
 51.3206382725 338.68996564 51.3206382725 338.68996564 50.9285714286 358.334183673 c 0,92,93
 51.5208948456 378.179958374 51.5208948456 378.179958374 66.4609194684 403.691412729 c 2,94,-1
 73.7341755833 416 l 1,95,-1
 88 416 l 1,96,-1
 158.088060171 415.105666186 l 1,97,98
 162.799034683 441.965635538 162.799034683 441.965635538 183.852028098 570.461491896 c 1,99,-1
 198.814490657 574.950230664 l 2,100,101
 218.787966595 580.470342641 218.787966595 580.470342641 251.184554938 578.444027545 c 0,102,103
 260.670364755 577.69266352 260.670364755 577.69266352 266.922194069 576.514689853 c 2,104,-1
 289.558116437 571.987505379 l 1,105,106
 281.786847408 506.708845531 281.786847408 506.708845531 275.559022688 473.399120889 c 0,107,108
 269.331197968 440.089396248 269.331197968 440.089396248 263.998871454 414.811004744 c 1,11,-1
EndSplineSet
EndChar

StartChar: dollar
Encoding: 36 36 21
Width: 621
Flags: W
LayerCount: 2
Fore
SplineSet
209.423451476 649.1171875 m 0,0,1
 180.947277367 626.022460938 180.947277367 626.022460938 180.500050864 587 c 0,2,3
 181.472385004 549.827148438 181.472385004 549.827148438 210.643589219 524.3984375 c 0,4,5
 230.008850834 508.169921875 230.008850834 508.169921875 251.852148485 494.375 c 1,6,7
 251.98313039 543.081054688 251.98313039 543.081054688 252.405576533 587.078125 c 128,-1,8
 252.828022677 631.075195312 252.828022677 631.075195312 252.950744461 671.35546875 c 1,9,10
 228.380427153 663.291992188 228.380427153 663.291992188 209.423451476 649.1171875 c 0,0,1
435.29289613 149.497070312 m 128,-1,12
 435.495859082 194.41015625 435.495859082 194.41015625 403.199969426 223.365234375 c 0,13,14
 382.537868952 241.174804688 382.537868952 241.174804688 358.125673944 256.533203125 c 1,15,-1
 358.125673944 49.4228515625 l 1,16,17
 386.0000393 59.2119140625 386.0000393 59.2119140625 405.91164886 76.859375 c 0,18,11
 435.089933179 104.583007812 435.089933179 104.583007812 435.29289613 149.497070312 c 128,-1,12
358.125673944 758.208007812 m 2,19,-1
 358.125673944 736.991210938 l 1,20,21
 392.348531622 729.567382812 392.348531622 729.567382812 433.774214045 712.061523438 c 1,22,23
 442.022533994 724.374023438 442.022533994 724.374023438 452.722929602 734.596679688 c 0,24,25
 469.012695312 751.200195312 469.012695312 751.200195312 495 751.599609375 c 0,26,27
 511.184570312 750.7578125 511.184570312 750.7578125 521.150390625 739.346679688 c 0,28,29
 530.84765625 726.13671875 530.84765625 726.13671875 531 695.90234375 c 0,30,31
 530.899414062 680.98046875 530.899414062 680.98046875 529.485351562 667.053710938 c 128,-1,32
 528.071289062 653.126953125 528.071289062 653.126953125 528.135742188 643.700195312 c 128,-1,33
 528.200195312 634.274414062 528.200195312 634.274414062 528.162109375 608.978515625 c 0,34,35
 528.123046875 583.208007812 528.123046875 583.208007812 524.7890625 542.299804688 c 1,36,37
 522.885742188 534.212890625 522.885742188 534.212890625 520.271484375 528.428710938 c 0,38,39
 516.543945312 521.747070312 516.543945312 521.747070312 512.673828125 517.791015625 c 0,40,41
 501.73046875 508.510742188 501.73046875 508.510742188 488 508.04296875 c 0,42,43
 480.947265625 508.249023438 480.947265625 508.249023438 472.745117188 509.931640625 c 1,44,45
 449.779966805 510.870117188 449.779966805 510.870117188 436.839898627 532.4609375 c 0,46,47
 430.782870544 543.577148438 430.782870544 543.577148438 426.792052509 556.44921875 c 128,-1,48
 422.801234473 569.3203125 422.801234473 569.3203125 419.555007266 580.137695312 c 0,49,50
 416.15419781 591.465820312 416.15419781 591.465820312 410.871260984 598.34375 c 1,51,52
 396.431390996 624.936523438 396.431390996 624.936523438 371.901194271 640.6484375 c 0,53,54
 363.836956999 645.5078125 363.836956999 645.5078125 356.917336372 648.842773438 c 1,55,-1
 356.917336372 438.4296875 l 1,56,57
 383.628204808 427.763671875 383.628204808 427.763671875 415.887513932 415.319335938 c 0,58,59
 448.813532751 402.618164062 448.813532751 402.618164062 474.536132812 388.171875 c 1,60,61
 522.256835938 357.390625 522.256835938 357.390625 548.67578125 310.31640625 c 0,62,63
 574.655273438 262.39453125 574.655273438 262.39453125 575.995117188 209.260742188 c 2,64,-1
 575.995117188 208.790039062 l 2,65,66
 575.2578125 104.545898438 575.2578125 104.545898438 513.173828125 45.310546875 c 0,67,68
 457.572265625 -6.2548828125 457.572265625 -6.2548828125 356.917336372 -20.4326171875 c 1,69,-1
 356.917336372 -47.0390625 l 2,70,71
 356.755674021 -56.6943359375 356.755674021 -56.6943359375 355.404554372 -64.560546875 c 2,72,-1
 351.704020558 -86 l 1,73,-1
 301.333808061 -86 l 2,74,75
 282.295411199 -85.869140625 282.295411199 -85.869140625 273.661225639 -83.7236328125 c 2,76,-1
 256.398754603 -78.9609375 l 1,77,-1
 253.412131171 -64.1337890625 l 2,78,79
 251.878108863 -55.9892578125 251.878108863 -55.9892578125 251.79196761 -47.9462890625 c 2,80,-1
 251.79196761 -24.3564453125 l 1,81,82
 227.489514197 -20.9951171875 227.489514197 -20.9951171875 200.601643186 -12.779296875 c 128,-1,83
 173.712592159 -4.5625 173.712592159 -4.5625 162.278320312 -0.74609375 c 0,84,85
 152.174804688 3.0703125 152.174804688 3.0703125 147 3.0703125 c 1,86,87
 143.234375 -1.4033203125 143.234375 -1.4033203125 138.169921875 -9.142578125 c 128,-1,88
 133.106445312 -16.8818359375 133.106445312 -16.8818359375 124.002929688 -25.103515625 c 0,89,90
 109.05859375 -37.3251953125 109.05859375 -37.3251953125 85 -37.5537109375 c 0,91,92
 57.7509765625 -35.7900390625 57.7509765625 -35.7900390625 51.314453125 -5.8798828125 c 0,93,94
 47.1396484375 20.6845703125 47.1396484375 20.6845703125 50.5869140625 60.7958984375 c 0,95,96
 51.9482421875 76.8720703125 51.9482421875 76.8720703125 51.984375 94.1298828125 c 0,97,98
 52.095703125 146.909179688 52.095703125 146.909179688 55.154296875 177.649414062 c 0,99,100
 56.466796875 186.184570312 56.466796875 186.184570312 58.8349609375 191.874023438 c 0,101,102
 62.9658203125 199.629882812 62.9658203125 199.629882812 68.244140625 204.29296875 c 0,103,104
 79.384765625 212.389648438 79.384765625 212.389648438 92 212.807617188 c 0,105,106
 100.22265625 212.54296875 100.22265625 212.54296875 106.54296875 210.9140625 c 1,107,108
 129.052734375 209.45703125 129.052734375 209.45703125 139.633789062 189.3046875 c 0,109,110
 144.809570312 178.41015625 144.809570312 178.41015625 148.122070312 165.5546875 c 128,-1,111
 151.434570312 152.69921875 151.434570312 152.69921875 154.624023438 140.975585938 c 0,112,113
 166.1994229 98.5498046875 166.1994229 98.5498046875 210.070100879 77.1123046875 c 0,114,115
 231.17824784 67.3642578125 231.17824784 67.3642578125 251.79196761 62.4833984375 c 1,116,-1
 251.79196761 312.159179688 l 1,117,118
 217.311866191 326.944335938 217.311866191 326.944335938 178.301678894 344.577148438 c 0,119,120
 100.344726562 385.99609375 100.344726562 385.99609375 65.9072265625 446.444335938 c 0,121,122
 46.2197265625 482.501953125 46.2197265625 482.501953125 46 529.302734375 c 0,123,124
 46.3701171875 575.852539062 46.3701171875 575.852539062 62.345703125 613.327148438 c 0,125,126
 95.919921875 688.662109375 95.919921875 688.662109375 179.497036278 722.024414062 c 0,127,128
 214.81494988 733.607421875 214.81494988 733.607421875 253.000305182 738.890625 c 1,129,-1
 253.000305182 791.024414062 l 1,130,131
 278.157091019 797.963867188 278.157091019 797.963867188 283.757452461 798.932617188 c 128,-1,132
 289.357813903 799.900390625 289.357813903 799.900390625 292.875445057 800 c 2,133,-1
 303.750483205 800 l 2,134,135
 311.793480168 799.916015625 311.793480168 799.916015625 319.579233391 799.413085938 c 0,136,137
 337.9745209 797.412109375 337.9745209 797.412109375 350.48152278 787.673828125 c 2,138,-1
 361.48046273 778.571289062 l 1,139,140
 358.235415539 763.35546875 358.235415539 763.35546875 358.125673944 758.208007812 c 2,19,-1
145.1796875 -18.115234375 m 1,141,-1
 145.1796875 -18.115234375 l 1,141,-1
472.663085938 519.009765625 m 1,142,-1
 472.663085938 519.009765625 l 1,142,-1
EndSplineSet
EndChar

StartChar: percent
Encoding: 37 37 22
Width: 880
Flags: W
LayerCount: 2
Fore
SplineSet
689.162523674 92.8408203125 m 0,0,1
 709.822591146 110.682617188 709.822591146 110.682617188 711 145.271484375 c 0,2,3
 710.319335938 184.483398438 710.319335938 184.483398438 689.128117109 206.145507812 c 0,4,5
 667.221886837 226.61328125 667.221886837 226.61328125 638.434343434 227 c 0,6,7
 615.381944444 225.895507812 615.381944444 225.895507812 594.94551965 207.158203125 c 0,8,9
 573.576891967 185.708984375 573.576891967 185.708984375 572.367286143 151.434570312 c 0,10,-1
 572.35223327 151.004882812 l 2,11,12
 572.235035906 147.390625 572.235035906 147.390625 572.216757418 144.844726562 c 0,13,14
 572.848978062 109.682617188 572.848978062 109.682617188 590.54040404 93.3466796875 c 0,15,16
 612.069237295 75.357421875 612.069237295 75.357421875 640.636363636 75 c 0,17,18
 667.172427399 75.8486328125 667.172427399 75.8486328125 689.162523674 92.8408203125 c 0,0,1
285.091816604 497.840820312 m 0,19,20
 305.751884075 515.682617188 305.751884075 515.682617188 307.03030303 550.271484375 c 0,21,22
 306.280885022 589.483398438 306.280885022 589.483398438 285.057410038 611.145507812 c 0,23,24
 263.151179766 631.61328125 263.151179766 631.61328125 234.363636364 632 c 0,25,26
 211.311237374 630.895507812 211.311237374 630.895507812 190.874812579 612.158203125 c 0,27,28
 169.506184896 590.708984375 169.506184896 590.708984375 168.296579072 556.434570312 c 0,29,-1
 168.281526199 556.004882812 l 2,30,31
 168.164328835 552.390625 168.164328835 552.390625 168.146050347 549.844726562 c 0,32,33
 168.778270991 514.682617188 168.778270991 514.682617188 186.46969697 498.346679688 c 0,34,35
 207.998530224 480.357421875 207.998530224 480.357421875 236.565656566 480 c 0,36,37
 263.101720328 480.848632812 263.101720328 480.848632812 285.091816604 497.840820312 c 0,19,20
765.955078125 679.866210938 m 1,38,-1
 750.81640625 657.158203125 l 2,39,40
 721.860351562 613.89453125 721.860351562 613.89453125 688.806630761 574.217773438 c 0,41,42
 654.55489465 534.540039062 654.55489465 534.540039062 619.289240057 494.500976562 c 0,43,44
 515.779237689 374.484375 515.779237689 374.484375 413.614316998 257.745117188 c 128,-1,45
 311.440794665 140.997070312 311.440794665 140.997070312 202.422516177 1.4736328125 c 1,46,-1
 182.318329782 8.77734375 l 2,47,48
 173.936030224 11.8232421875 173.936030224 11.8232421875 157.96875 22.310546875 c 0,49,50
 146.612304688 29.7001953125 146.612304688 29.7001953125 127.793945312 36.3798828125 c 2,51,-1
 95.5380859375 47.599609375 l 1,52,53
 244.47164023 237.237304688 244.47164023 237.237304688 380.939906881 393.171875 c 128,-1,54
 517.416775174 549.1171875 517.416775174 549.1171875 657.451497396 724 c 1,55,-1
 671.464646465 724 l 2,56,57
 692.640812421 723.381835938 692.640812421 723.381835938 716.341796875 708.81640625 c 0,58,59
 732.055664062 698.428710938 732.055664062 698.428710938 741.9453125 692.962890625 c 2,60,-1
 765.955078125 679.866210938 l 1,38,-1
814.825195312 234.890625 m 0,61,62
 829.791015625 202.869140625 829.791015625 202.869140625 830 167.73828125 c 0,63,64
 829.640625 131.424804688 829.640625 131.424804688 816.852539062 99.9072265625 c 0,65,66
 788.939453125 34.4912109375 788.939453125 34.4912109375 721.529296875 4.822265625 c 0,67,68
 684.596127289 -10.791015625 684.596127289 -10.791015625 640.636363636 -11 c 0,69,70
 548.933189315 -10.3525390625 548.933189315 -10.3525390625 493.46012863 35.953125 c 0,71,72
 437.332267992 84.8291015625 437.332267992 84.8291015625 436.949494949 159.734375 c 0,73,74
 437.345170455 196.165039062 437.345170455 196.165039062 451.424982244 227.782226562 c 0,75,76
 482.504863084 294.1484375 482.504863084 294.1484375 556.732727667 322.842773438 c 0,77,78
 594.00256471 337 594.00256471 337 638.434343434 337 c 0,79,80
 679.610400884 336.63671875 679.610400884 336.63671875 715.541992188 324.083984375 c 0,81,82
 784.555664062 296.638671875 784.555664062 296.638671875 814.825195312 234.890625 c 0,61,62
421.342891809 607.206054688 m 0,83,84
 437.820411143 572.774414062 437.820411143 572.774414062 438.050505051 535 c 0,85,86
 437.654829545 495.953125 437.654829545 495.953125 423.575017756 462.063476562 c 0,87,88
 392.842428188 391.723632812 392.842428188 391.723632812 318.623165246 359.822265625 c 0,89,90
 280.525420218 344.208984375 280.525420218 344.208984375 236.565656566 344 c 0,91,92
 146.709960938 344.694335938 146.709960938 344.694335938 96.326171875 394.326171875 c 0,93,94
 45.34765625 446.713867188 45.34765625 446.713867188 45 527 c 0,95,96
 45.359375 566.046875 45.359375 566.046875 58.1474609375 599.936523438 c 0,97,98
 86.3759765625 671.069335938 86.3759765625 671.069335938 153.793945312 701.825195312 c 0,99,100
 190.6092369 716.798828125 190.6092369 716.798828125 234.363636364 717 c 0,101,102
 275.539693813 716.609375 275.539693813 716.609375 312.031082307 703.111328125 c 0,103,104
 388.01583215 673.600585938 388.01583215 673.600585938 421.342891809 607.206054688 c 0,83,84
EndSplineSet
EndChar

StartChar: ampersand
Encoding: 38 38 23
Width: 792
Flags: W
LayerCount: 2
Fore
SplineSet
366 535 m 0,0,1
 365.398926556 564.41332398 365.398926556 564.41332398 351.006503766 582.853497329 c 0,2,3
 336.797579043 598.623228586 336.797579043 598.623228586 310 599 c 0,4,5
 285.444082414 598.22701018 285.444082414 598.22701018 271.065472517 583.725857641 c 0,6,7
 256.339766152 567.031568349 256.339766152 567.031568349 256 543 c 0,8,9
 256.464028169 526.648480511 256.464028169 526.648480511 262.936588108 512.984187308 c 0,10,11
 265.74825469 505.955020852 265.74825469 505.955020852 274.114337727 494.970174835 c 0,12,13
 293.538167829 469.466270346 293.538167829 469.466270346 321.921876835 448.281766889 c 0,14,15
 322.975059031 448.88086407 322.975059031 448.88086407 324.045925792 449.44896845 c 0,16,17
 343.83062906 464.359778029 343.83062906 464.359778029 354.546836245 485.498859065 c 0,18,19
 365.778325944 509.418414084 365.778325944 509.418414084 366 535 c 0,0,1
441.839275544 151.117429453 m 0,20,21
 438.561460238 155.725937612 438.561460238 155.725937612 431.032601087 164.077162613 c 0,22,23
 423.503741935 172.428387613 423.503741935 172.428387613 412.331940227 186.573135425 c 0,24,25
 347.445667832 267.037742719 347.445667832 267.037742719 260.299822719 327.612396458 c 1,26,27
 223.549655424 309.518299375 223.549655424 309.518299375 198.843777991 277.799419491 c 0,28,29
 171.31604369 240.769383166 171.31604369 240.769383166 171 193 c 0,30,31
 171.767085601 140.52088319 171.767085601 140.52088319 208.234665715 105.103150969 c 0,32,33
 247.10199565 69.3703939477 247.10199565 69.3703939477 299 69 c 0,34,35
 340.412059125 69.4589021375 340.412059125 69.4589021375 368.351318103 85.5642734093 c 0,36,37
 400.420731658 104.870135527 400.420731658 104.870135527 429.18880784 134.53721409 c 0,38,39
 434.720892801 140.444959082 434.720892801 140.444959082 437.433317638 144.525430337 c 0,40,41
 440.145742474 148.605901592 440.145742474 148.605901592 441.839275544 151.117429453 c 0,20,21
595 435 m 2,42,-1
 660 435 l 2,43,44
 681.351349043 435.089893639 681.351349043 435.089893639 703.366301658 437.023210475 c 0,45,46
 725.381254273 438.956527312 725.381254273 438.956527312 749 439 c 0,47,48
 763.151243838 438.406182465 763.151243838 438.406182465 774.312758219 430.994718611 c 0,49,50
 789.421316584 419.367865453 789.421316584 419.367865453 790 400 c 0,51,52
 788.99220232 380.111756264 788.99220232 380.111756264 774.312758219 369.005281389 c 0,53,54
 757.719399746 358.150072631 757.719399746 358.150072631 735.580276875 356.549237883 c 0,55,56
 726.448591445 356.033114748 726.448591445 356.033114748 720 356 c 0,57,58
 713.802568137 354.700586526 713.802568137 354.700586526 705.74799843 348.58853283 c 0,59,60
 677.51187158 325.058098734 677.51187158 325.058098734 653.023978087 290.229131766 c 0,61,62
 639.778426243 271.282032399 639.778426243 271.282032399 628.634449723 256.796816417 c 0,63,64
 617.490473204 242.311600434 617.490473204 242.311600434 602.543584701 222.413044038 c 0,65,66
 587.596696197 202.514487641 587.596696197 202.514487641 576.341594316 188.197243696 c 1,67,68
 590.213326478 169.332300186 590.213326478 169.332300186 606.958247707 148.65284812 c 0,69,70
 644.178279916 102.687276742 644.178279916 102.687276742 687.171470024 79.6100131299 c 0,71,72
 709.476274148 68.2786920919 709.476274148 68.2786920919 737.320821637 65.4942373429 c 1,73,74
 745.969721557 61.7875659489 745.969721557 61.7875659489 756.230735839 58.54232931 c 0,75,76
 766.491750121 55.2970926712 766.491750121 55.2970926712 775.181943157 49.2312866762 c 0,77,78
 791.034962596 36.4800766927 791.034962596 36.4800766927 791.533333333 17.6133333333 c 0,79,80
 790.99294972 3.29108041015 790.99294972 3.29108041015 781.107075932 -12.3956775698 c 2,81,-1
 776.32067407 -19.9171662105 l 1,82,83
 751.717899807 -28.1180909647 751.717899807 -28.1180909647 725.735878294 -29.4699227448 c 0,84,85
 694.980784778 -30.9701431067 694.980784778 -30.9701431067 687 -31 c 0,86,87
 633.201533042 -30.6086998187 633.201533042 -30.6086998187 597.967297417 -14.2691289683 c 0,88,89
 562.733061791 2.07044188216 562.733061791 2.07044188216 539.278141932 24.5706120495 c 0,90,91
 515.823222073 47.0707822169 515.823222073 47.0707822169 499.207448529 69.9026654157 c 0,92,93
 494.523695301 76.2823463216 494.523695301 76.2823463216 490.570182789 81.1855433446 c 1,94,95
 467.832744755 53.2869670045 467.832744755 53.2869670045 436.450321249 25.6807827637 c 0,96,97
 386.932817561 -17.2179270886 386.932817561 -17.2179270886 349.264212966 -32.2255545789 c 0,98,99
 305.162001613 -49.8211753202 305.162001613 -49.8211753202 252 -50 c 0,100,101
 177.422209906 -49.4974153018 177.422209906 -49.4974153018 124.549774112 -16.0722642673 c 0,102,103
 95.5428077354 3.04386942808 95.5428077354 3.04386942808 76.0416921774 28.4498233628 c 0,104,105
 35.3196328128 83.5989572034 35.3196328128 83.5989572034 35 153 c 2,106,-1
 35 172 l 2,107,108
 35.6440362401 232.542339419 35.6440362401 232.542339419 69.8987634574 279.359126683 c 0,109,110
 103.382402107 323.742965428 103.382402107 323.742965428 148.444636603 353.00460577 c 0,111,112
 167.582375948 365.188443314 167.582375948 365.188443314 190.949749165 376.167997962 c 0,113,114
 195.531215398 378.375512872 195.531215398 378.375512872 198.886542977 380.169247025 c 1,115,116
 178.513958796 401.191789001 178.513958796 401.191789001 161.3394289 428.188757868 c 0,117,118
 137.317712728 467.306594535 137.317712728 467.306594535 137 507 c 0,119,120
 137.393108353 542.474393054 137.393108353 542.474393054 149.964361844 572.723537383 c 0,121,122
 163.301099442 603.18335201 163.301099442 603.18335201 184.363460178 625.699539809 c 0,123,124
 207.051082929 648.918019575 207.051082929 648.918019575 236.906942226 662.3757616 c 0,125,126
 268.296157181 675.795854606 268.296157181 675.795854606 302.697676863 675.796169419 c 0,127,128
 378.273743802 675.796861028 378.273743802 675.796861028 424.492900714 646.544891453 c 0,129,130
 481.572700742 608.18535016 481.572700742 608.18535016 482 536 c 0,131,132
 481.522314787 505.47366763 481.522314787 505.47366763 468.650170298 480.404700061 c 0,133,134
 455.663306997 456.516641478 455.663306997 456.516641478 436.406435297 437.561995739 c 0,135,136
 414.667667376 416.866055848 414.667667376 416.866055848 387.898539374 400.539776448 c 1,137,138
 392.157301964 397.266982927 392.157301964 397.266982927 404.140868973 387.6943429 c 0,139,140
 416.124435982 378.121702874 416.124435982 378.121702874 435.855131891 358.392179614 c 0,141,142
 464.166757958 330.082236184 464.166757958 330.082236184 510.79060995 276.982958474 c 0,143,144
 518.425721652 268.287414591 518.425721652 268.287414591 525.697168504 260.046118078 c 1,145,146
 532.957701912 268.997648897 532.957701912 268.997648897 542.148350764 279.834976089 c 0,147,148
 577.486458979 321.504573878 577.486458979 321.504573878 578 349 c 0,149,150
 577.909233796 355.844314592 577.909233796 355.844314592 577.170325457 360.164688563 c 0,151,152
 570.844470759 362.681481354 570.844470759 362.681481354 565.843948875 365.124741671 c 0,153,154
 557.524431932 370.006950231 557.524431932 370.006950231 552.657948813 377.573540326 c 0,155,156
 547.073487018 387.978517346 547.073487018 387.978517346 547 402 c 0,157,158
 548.420323195 425.88529476 548.420323195 425.88529476 573.705237614 432.200550238 c 0,159,160
 584.903175875 435 584.903175875 435 595 435 c 2,42,-1
EndSplineSet
EndChar

StartChar: quotesingle
Encoding: 39 39 24
Width: 156
Flags: W
LayerCount: 2
Fore
SplineSet
75 753 m 1,0,-1
 103.541429973 752.012465466 l 2,1,2
 107.883656664 752.756507211 107.883656664 752.756507211 111.204081633 752.857142857 c 0,3,4
 131.873631219 751.662523787 131.873631219 751.662523787 141.167997962 733.050250835 c 0,5,6
 145.479654858 722.675490468 145.479654858 722.675490468 145.727272727 713.966942149 c 0,7,8
 145.452722315 708.337810645 145.452722315 708.337810645 144.318545058 703.92426345 c 0,9,10
 140.426622648 680.321734168 140.426622648 680.321734168 134.570330404 627.836263312 c 0,11,12
 125.691713963 548.264010934 125.691713963 548.264010934 120.240112624 523.811823534 c 0,13,14
 117.763090234 514.062165417 117.763090234 514.062165417 115.745990671 509.600020356 c 0,15,16
 104.013239828 486.975014206 104.013239828 486.975014206 77.68 486.4 c 0,17,18
 62.9093346662 486.834006075 62.9093346662 486.834006075 50.6872417805 495.005281389 c 0,19,20
 36.7485228075 505.841342641 36.7485228075 505.841342641 34.2914792182 521.174009085 c 0,21,22
 12.6127896058 662.085491565 12.6127896058 662.085491565 11.7142857143 715.734693878 c 0,23,24
 12.3758171429 728.742104169 12.3758171429 728.742104169 17.2843451157 737.22351247 c 0,25,26
 23.708039515 746.362347495 23.708039515 746.362347495 34.0665659413 750.340142148 c 0,27,28
 42.3236008296 752.92612817 42.3236008296 752.92612817 52 753 c 2,29,-1
 75 753 l 1,0,-1
EndSplineSet
EndChar

StartChar: parenleft
Encoding: 40 40 25
Width: 353
Flags: W
LayerCount: 2
Fore
SplineSet
341.659258552 712.866598449 m 2,0,1
 338.678519241 698.692394257 338.678519241 698.692394257 327.674203125 687.325796875 c 0,2,3
 293.029004205 652.401055543 293.029004205 652.401055543 270.541816879 620.754760541 c 0,4,5
 215.728854109 541.308357951 215.728854109 541.308357951 187.439522362 449.979970764 c 0,6,7
 159.150190614 358.651583576 159.150190614 358.651583576 159 263 c 0,8,9
 159.356581168 144.000396097 159.356581168 144.000396097 195.594013412 40.2799331351 c 0,10,11
 208.34491653 4.58281547449 208.34491653 4.58281547449 224.781303375 -23.7242952034 c 0,12,13
 246.869102555 -63.8839300754 246.869102555 -63.8839300754 269.819361684 -104.795314741 c 0,14,15
 291.578785294 -142.611662473 291.578785294 -142.611662473 325.076670729 -170.526567002 c 1,16,-1
 326.744323963 -172.670692589 l 2,17,18
 336.505828725 -186.327336471 336.505828725 -186.327336471 336.9 -201.335 c 0,19,20
 336.012383635 -225.114633917 336.012383635 -225.114633917 318.449486582 -237.123777259 c 0,21,22
 308.512875221 -242.763180624 308.512875221 -242.763180624 297 -243 c 0,23,24
 286.862501241 -242.59929423 286.862501241 -242.59929423 277.303950521 -238.223149488 c 0,25,26
 267.470698965 -233.187831616 267.470698965 -233.187831616 255.215895122 -222.704297527 c 0,27,28
 241.923891715 -211.333477347 241.923891715 -211.333477347 236.133277377 -205.479579657 c 0,29,30
 142.208143463 -108.949142794 142.208143463 -108.949142794 88.0016681169 2.09357222275 c 0,31,32
 33.2182986863 115.881208231 33.2182986863 115.881208231 33 253 c 0,33,34
 33.410912135 372.183427775 33.410912135 372.183427775 81.3209724996 490.877365548 c 0,35,36
 129.797490968 609.338226926 129.797490968 609.338226926 212.297124953 694.620874799 c 0,37,38
 225.868889211 710.540116489 225.868889211 710.540116489 242.513776421 724.793906082 c 0,39,40
 259.158663632 739.047695675 259.158663632 739.047695675 269.687241781 746.494718611 c 0,41,42
 284.978158195 756.567783745 284.978158195 756.567783745 295.866598449 758.659258552 c 2,43,-1
 304.395757776 760.080785107 l 1,44,-1
 311.945056313 755.962985905 l 2,45,46
 329.43501966 745.551841173 329.43501966 745.551841173 338.962985905 728.945056313 c 2,47,-1
 343.080785107 721.395757776 l 1,48,-1
 341.659258552 712.866598449 l 2,0,1
EndSplineSet
EndChar

StartChar: parenright
Encoding: 41 41 26
Width: 353
Flags: W
LayerCount: 2
Fore
SplineSet
315 263 m 0,0,1
 314.692532995 171.680175977 314.692532995 171.680175977 287.115069637 83.9476147902 c 0,2,3
 252.127288302 -27.359492276 252.127288302 -27.359492276 184.792551471 -121.097334584 c 0,4,5
 149.358964018 -169.789051881 149.358964018 -169.789051881 108.71365063 -206.585532714 c 0,6,7
 86.3935179327 -226.371418552 86.3935179327 -226.371418552 64.8356082788 -239.45321991 c 2,8,-1
 55.6489507007 -244.965214457 l 1,9,-1
 45.3029842106 -242.091334876 l 2,10,11
 31.8310452601 -237.858542195 31.8310452601 -237.858542195 22.7047405193 -230.535907455 c 0,12,13
 10.1267825572 -219.093180943 10.1267825572 -219.093180943 5.74439451645 -203.074402191 c 2,14,-1
 2.63636342514 -190.642277826 l 1,15,16
 43.5210566686 -142.324003992 43.5210566686 -142.324003992 74.1937738827 -102.217484145 c 0,17,18
 104.265713313 -62.8965192875 104.265713313 -62.8965192875 126.760643005 -18.5761911278 c 0,19,20
 188.777821529 102.976489327 188.777821529 102.976489327 189 256 c 0,21,22
 188.566880422 410.292512737 188.566880422 410.292512737 130.244795677 538.638677343 c 0,23,24
 109.846567022 582.800378222 109.846567022 582.800378222 83.4453465506 619.565383117 c 0,25,26
 57.0441260791 656.330388012 57.0441260791 656.330388012 40.99686951 672.126604863 c 0,27,28
 24.3646763363 688.498607701 24.3646763363 688.498607701 14.549431286 701.994569645 c 1,29,30
 10.7716196114 709.550192995 10.7716196114 709.550192995 10.5294117647 717.131487889 c 0,31,32
 11.1049599739 729.9035586 11.1049599739 729.9035586 20.6298733923 742.666186114 c 0,33,34
 27.5608606305 750.941035463 27.5608606305 750.941035463 34.8860644622 755.970517731 c 0,35,36
 42.211268294 761 42.211268294 761 50.2348727079 760.863618167 c 0,37,38
 62.0652361585 760.662530655 62.0652361585 760.662530655 71.9578296253 754.854569311 c 0,39,40
 81.8504230922 749.046607966 81.8504230922 749.046607966 88.5946866153 743.490982282 c 0,41,42
 106.451709919 728.781157117 106.451709919 728.781157117 110.674203125 724.674203125 c 0,43,44
 204.797882112 629.977002841 204.797882112 629.977002841 259.574060997 515.74924405 c 0,45,46
 314.781242143 399.051301498 314.781242143 399.051301498 315 263 c 0,0,1
EndSplineSet
EndChar

StartChar: asterisk
Encoding: 42 42 27
Width: 520
Flags: W
LayerCount: 2
Fore
SplineSet
67.4429467954 507.51161061 m 2,0,1
 40.6742038831 515.528930854 40.6742038831 515.528930854 26.3744324144 522.167604531 c 0,2,3
 12.0746609457 528.806278207 12.0746609457 528.806278207 5.28434511573 538.77648753 c 0,4,5
 0.89280349749 546.666667172 0.89280349749 546.666667172 0.666666666667 555.333333333 c 0,6,7
 1.07874935592 565.824652354 1.07874935592 565.824652354 5.27937832864 574.806667077 c 0,8,9
 9.48000730136 583.788681799 9.48000730136 583.788681799 10.7039225404 586.402688542 c 0,10,11
 11.9278377794 589.016695284 11.9278377794 589.016695284 12.9690810687 591.888563364 c 0,12,13
 14.4519325992 595.97843748 14.4519325992 595.97843748 21.7692865844 612.113021544 c 0,14,15
 23.7218701761 620.000363582 23.7218701761 620.000363582 27.1937608281 625.659135675 c 0,16,17
 37.2997116799 639.32412737 37.2997116799 639.32412737 54 640 c 0,18,19
 70.5084936798 639.283593799 70.5084936798 639.283593799 82.2568174306 629.898073944 c 0,20,21
 92.4060634914 623.587943284 92.4060634914 623.587943284 115.513694147 611.080747107 c 0,22,23
 166.235236566 583.62729284 166.235236566 583.62729284 198.354008505 564.743809937 c 0,24,25
 207.950923008 559.101527871 207.950923008 559.101527871 215.359288986 554.672500285 c 1,26,27
 212.454681392 572.154635693 212.454681392 572.154635693 209.164253373 595.203795586 c 0,28,29
 197.526336183 676.726385523 197.526336183 676.726385523 194.887293164 713.672987794 c 0,30,31
 196.70853664 728.242935604 196.70853664 728.242935604 201.630339114 737.614585714 c 0,32,33
 207.788918394 747.318035084 207.788918394 747.318035084 218.166221033 751.84733756 c 0,34,35
 226.807489558 754.915076951 226.807489558 754.915076951 237 755 c 2,36,-1
 255 755 l 1,37,-1
 276.800726007 754.007307658 l 2,38,39
 281.260884578 754.444586443 281.260884578 754.444586443 286.737489142 754.175884907 c 0,40,41
 292.214093705 753.907183372 292.214093705 753.907183372 299.414004632 750.231839685 c 0,42,43
 317.170439244 738.875746534 317.170439244 738.875746534 317.8 716.32 c 0,44,45
 317.524892611 710.534507643 317.524892611 710.534507643 316.330408521 705.947690153 c 0,46,47
 314.516201209 694.072352258 314.516201209 694.072352258 312.204517436 667.870584668 c 0,48,49
 305.766962459 594.904151575 305.766962459 594.904151575 300.878859049 557.035069788 c 1,50,51
 328.888990339 573.138175111 328.888990339 573.138175111 378.978178785 600.759134679 c 0,52,53
 430.746573463 629.306067844 430.746573463 629.306067844 439.668929383 635.997834784 c 0,54,55
 450.744498921 640.428062599 450.744498921 640.428062599 457.380680671 640.482302245 c 0,56,57
 464.016862422 640.536541891 464.016862422 640.536541891 465.803541368 640.435811896 c 0,58,59
 481.402389241 638.373749171 481.402389241 638.373749171 490.400098137 626.663053356 c 0,60,61
 494.391394276 620.343730338 494.391394276 620.343730338 496.015569109 613.851766483 c 0,62,63
 500.196750187 605.207077363 500.196750187 605.207077363 502.02262041 600.768344088 c 0,64,65
 504.12695415 595.652659483 504.12695415 595.652659483 507.097657579 589.624749403 c 0,66,67
 510.068361007 583.596839322 510.068361007 583.596839322 513.875874269 574.898589687 c 0,68,69
 517.683387531 566.200340051 517.683387531 566.200340051 517.941176471 557.484429066 c 0,70,71
 517.059917687 544.458810857 517.059917687 544.458810857 509.174203125 535.825796875 c 0,72,73
 500.982628277 528.278269113 500.982628277 528.278269113 487.409620688 523.128963107 c 0,74,75
 459.533761272 512.553463951 459.533761272 512.553463951 343.300042598 482.301931435 c 0,76,77
 333.884142371 479.861216929 333.884142371 479.861216929 326.562252915 477.983575925 c 1,78,79
 355.723684696 450.675152289 355.723684696 450.675152289 415.821128079 386.002875206 c 0,80,81
 433.27513154 367.278508541 433.27513154 367.278508541 442.345599069 359.08731237 c 0,82,83
 451.416066598 350.896116199 451.416066598 350.896116199 454.945684204 336.255342318 c 0,84,85
 455.638845545 332.022897612 455.638845545 332.022897612 455.736842105 328.889196676 c 0,86,87
 454.637751039 309.475875548 454.637751039 309.475875548 437.86109783 299.865034469 c 0,88,89
 431.601438995 294.186219957 431.601438995 294.186219957 427.422823745 290.133913743 c 0,90,91
 418.126246016 281.118348191 418.126246016 281.118348191 405.43862984 272.581872382 c 0,92,93
 386.359616975 263.782639931 386.359616975 263.782639931 381.064661788 263.782639931 c 0,94,95
 361.550804564 263.782639931 361.550804564 263.782639931 345.850248813 282.099954974 c 0,96,97
 337.810223623 294.734280272 337.810223623 294.734280272 324.60971616 317.564986483 c 0,98,99
 311.409208696 340.395692695 311.409208696 340.395692695 296.739933609 365.210933716 c 0,100,101
 275.758932775 400.703389167 275.758932775 400.703389167 261.80784066 426.494095445 c 1,102,103
 240.837756533 393.448773497 240.837756533 393.448773497 187.974172211 318.157934298 c 0,104,105
 173.129014683 296.9915268 173.129014683 296.9915268 166.819639748 287.654571041 c 0,106,107
 159.640544348 275.314358696 159.640544348 275.314358696 145.829882979 269.009646089 c 0,108,109
 138.650237854 266.398668163 138.650237854 266.398668163 132.330578512 266.181818182 c 0,110,111
 116.813128945 266.926153403 116.813128945 266.926153403 106.00177955 279.336930722 c 0,112,113
 98.634968149 285.149450369 98.634968149 285.149450369 95.2438153162 288.012654234 c 0,114,115
 91.8549416566 290.87739789 91.8549416566 290.87739789 88.84779442 293.386634742 c 0,116,117
 85.8406471834 295.895871595 85.8406471834 295.895871595 82.9226312058 298.64785489 c 0,118,119
 80.0046152281 301.399838186 80.0046152281 301.399838186 75.34663668 305.310982235 c 0,120,121
 70.6886581319 309.222126285 70.6886581319 309.222126285 64.9007342893 317.300589419 c 0,122,123
 62.3083483255 321.592392154 62.3083483255 321.592392154 61.0605195756 324.423478702 c 0,124,125
 59.1971364387 330.384841109 59.1971364387 330.384841109 59 335 c 0,126,127
 59.4065915481 343.824992977 59.4065915481 343.824992977 63.2625888861 351.49185186 c 0,128,129
 67.2980617997 358.405895758 67.2980617997 358.405895758 75.3897848682 367.071013747 c 0,130,131
 96.5350605931 389.714684017 96.5350605931 389.714684017 130.396293599 419.551822154 c 0,132,133
 167.69717404 452.419837391 167.69717404 452.419837391 192.281092899 472.457418088 c 1,134,135
 155.640180952 481.790914053 155.640180952 481.790914053 120.479414411 492.000915203 c 2,136,-1
 67.4429467954 507.51161061 l 2,0,1
EndSplineSet
EndChar

StartChar: plus
Encoding: 43 43 28
Width: 480
Flags: W
LayerCount: 2
Fore
SplineSet
182.6 102.28 m 2,0,-1
 182.022001916 192 l 1,1,-1
 34.4007473265 192 l 1,2,-1
 26.9953942302 203.444636603 l 2,3,4
 11.3206382725 228.68996564 11.3206382725 228.68996564 10.9285714286 248.334183673 c 0,5,6
 11.5208948456 268.179958374 11.5208948456 268.179958374 26.4609194684 293.691412729 c 2,7,-1
 34.1411559575 306.688736018 l 1,8,9
 69.079537128 305.025003581 69.079537128 305.025003581 89 305 c 2,10,-1
 181 305 l 1,11,-1
 181 452.599252673 l 1,12,-1
 192.444636603 460.00460577 l 2,13,14
 217.68996564 475.679361727 217.68996564 475.679361727 237.334183673 476.071428571 c 0,15,16
 257.179958374 475.479105154 257.179958374 475.479105154 282.691412729 460.539080532 c 2,17,-1
 295.688736018 452.858844042 l 1,18,19
 293.999867201 417.392598891 293.999867201 417.392598891 294 397 c 2,20,-1
 294 304 l 1,21,-1
 458.499128667 304 l 1,22,-1
 462.514689853 283.922194069 l 2,23,24
 464.893235105 271.086377528 464.893235105 271.086377528 465 264 c 2,25,-1
 465 250 l 2,26,27
 464.945231316 240.71970576 464.945231316 240.71970576 464.46501288 231.167290964 c 0,28,29
 462.842824874 213.179780628 462.842824874 213.179780628 453.212924202 201.010718717 c 2,30,-1
 444.940257978 191.083519247 l 1,31,32
 412.661889864 193.566470641 412.661889864 193.566470641 384.4 193.6 c 2,33,-1
 293 193.021289326 l 1,34,-1
 293 28.5008713332 l 1,35,-1
 272.922194069 24.485310147 l 2,36,37
 260.086377528 22.1067648952 260.086377528 22.1067648952 253 22 c 2,38,-1
 239 22 l 2,39,40
 229.71970576 22.0547686842 229.71970576 22.0547686842 220.167290964 22.5349871195 c 0,41,42
 202.179780628 24.157175126 202.179780628 24.157175126 190.010718717 33.7870757975 c 2,43,-1
 180.083519247 42.059742022 l 1,44,45
 182.566278586 74.3356134221 182.566278586 74.3356134221 182.6 102.28 c 2,0,-1
EndSplineSet
EndChar

StartChar: comma
Encoding: 44 44 29
Width: 258
Flags: W
LayerCount: 2
Fore
SplineSet
237 -9 m 0,0,1
 236.535367598 -50.3042289644 236.535367598 -50.3042289644 218.875258329 -86.156051125 c 0,2,3
 200.880046696 -121.214336278 200.880046696 -121.214336278 173.492774334 -147.855445386 c 0,4,5
 151.968357812 -168.94418309 151.968357812 -168.94418309 125.055363397 -186.50460577 c 0,6,7
 94.8346309754 -205.573932477 94.8346309754 -205.573932477 70.1578903592 -209.65792965 c 0,8,9
 66.8732419689 -210.070128927 66.8732419689 -210.070128927 64.5714285714 -210.142857143 c 0,10,11
 48.4202177079 -209.472530026 48.4202177079 -209.472530026 36.7870757975 -195.989281283 c 0,12,13
 27.2867777904 -183.301535099 27.2867777904 -183.301535099 26.8333333333 -170.694444444 c 0,14,15
 27.0972261722 -165.140581034 27.0972261722 -165.140581034 29.1548610982 -158.808467593 c 0,16,17
 33.4860544903 -145.479763096 33.4860544903 -145.479763096 56.4626073297 -131.169148934 c 0,18,19
 92.6780935988 -108.399175072 92.6780935988 -108.399175072 114.426262252 -79.6038211511 c 0,20,21
 123.713401714 -65.9079477074 123.713401714 -65.9079477074 124 -49 c 0,22,23
 123.915997953 -34.8686426931 123.915997953 -34.8686426931 120.783923718 -33.0240725798 c 0,24,25
 115.03596775 -29.9394976019 115.03596775 -29.9394976019 106.004142347 -27.1078480632 c 0,26,27
 72.6590798988 -16.6535349554 72.6590798988 -16.6535349554 48.4350446637 3.35038934514 c 0,28,29
 27 21.3558268626 27 21.3558268626 27 53 c 0,30,31
 28.0237541707 94.6202438583 28.0237541707 94.6202438583 62.3677022198 116.77239224 c 0,32,33
 89.3617196181 132.743452205 89.3617196181 132.743452205 124 133 c 0,34,35
 153.143227307 132.39167044 153.143227307 132.39167044 175.770868234 117.023978087 c 0,36,37
 214.312677572 88.9442753947 214.312677572 88.9442753947 229.997609326 36.5256287632 c 0,38,39
 236.846557494 12.1592298119 236.846557494 12.1592298119 237 -9 c 0,0,1
EndSplineSet
EndChar

StartChar: hyphen
Encoding: 45 45 30
Width: 377
Flags: W
LayerCount: 2
Fore
SplineSet
108 303 m 2,0,1
 165.223619881 303 165.223619881 303 200.848630733 302.374997168 c 0,2,3
 236.473641585 301.749994335 236.473641585 301.749994335 264.777899392 301.776159752 c 0,4,5
 293.082157199 301.802325168 293.082157199 301.802325168 334.667290964 303.96501288 c 0,6,-1
 336 304 l 1,7,8
 351.154264851 303.21153074 351.154264851 303.21153074 360.149507905 290.842247627 c 0,9,10
 366.87471114 279.721755744 366.87471114 279.721755744 367 261 c 2,11,-1
 367 221 l 1,12,13
 365.869051332 202.818755251 365.869051332 202.818755251 349.861682229 194.120761104 c 0,14,15
 336.746257967 188.133227726 336.746257967 188.133227726 309 188 c 2,16,-1
 83 188 l 2,17,18
 57.9336459513 188.151007064 57.9336459513 188.151007064 46.1299793108 190.652082968 c 0,19,20
 39.6058214852 192.55369894 39.6058214852 192.55369894 35.7633703467 194.611836711 c 0,21,22
 24.1825509122 202.895363913 24.1825509122 202.895363913 22.1326114592 215.309803097 c 0,23,24
 21.0391044942 225.079577834 21.0391044942 225.079577834 21.5119708867 235.933829003 c 0,25,26
 21.9848372791 246.788080172 21.9848372791 246.788080172 22 271 c 0,27,28
 22.7276771887 285.178942885 22.7276771887 285.178942885 33.9045753517 294.061643467 c 0,29,30
 43.9209465382 300.726334254 43.9209465382 300.726334254 60.3154450623 301.944027545 c 0,31,32
 76.6099044895 302.966604128 76.6099044895 302.966604128 91 303 c 2,33,-1
 108 303 l 2,0,1
EndSplineSet
EndChar

StartChar: period
Encoding: 46 46 31
Width: 251
Flags: W
LayerCount: 2
Fore
SplineSet
202 43 m 0,0,1
 201.176467274 6.10051611573 201.176467274 6.10051611573 177.126613673 -17.205450654 c 0,2,3
 152.197931101 -39.6123524495 152.197931101 -39.6123524495 117 -40 c 0,4,5
 80.9084967988 -39.238613543 80.9084967988 -39.238613543 56.3570630191 -16.6900738291 c 0,6,7
 31.424495186 7.95812931489 31.424495186 7.95812931489 31 45 c 0,8,9
 31.8248488507 82.8845728344 31.8248488507 82.8845728344 57.3271700462 107.661842895 c 0,10,11
 83.7392361148 131.585303655 83.7392361148 131.585303655 119 132 c 0,12,13
 159.111104241 131.08452149 159.111104241 131.08452149 181.631969021 103.47268873 c 0,14,15
 201.657360267 77.009297295 201.657360267 77.009297295 202 43 c 0,0,1
EndSplineSet
EndChar

StartChar: slash
Encoding: 47 47 32
Width: 378
Flags: W
LayerCount: 2
Fore
SplineSet
75 -55 m 1,0,-1
 47.7777777778 -56.3333333333 l 2,1,2
 34.4724139721 -56.238804467 34.4724139721 -56.238804467 -14.6456152354 -52.3093621304 c 1,3,4
 65.5534534137 169.690958333 65.5534534137 169.690958333 136.493558457 355.534162188 c 0,5,6
 207.437834068 541.388291765 207.437834068 541.388291765 275.35919358 746.213641541 c 1,7,-1
 287.814490657 749.950230664 l 2,8,9
 307.787966595 755.470342641 307.787966595 755.470342641 340.184554938 753.444027545 c 0,10,11
 349.670364755 752.69266352 349.670364755 752.69266352 355.922194069 751.514689853 c 2,12,-1
 382.491420549 746.200844557 l 1,13,-1
 375.041900077 720.127522908 l 2,14,15
 360.501478362 669.580068219 360.501478362 669.580068219 342.32375236 622.48789543 c 0,16,17
 332.437669015 596.931655931 332.437669015 596.931655931 199.379294444 245.632721697 c 0,18,19
 146.570550033 106.636120842 146.570550033 106.636120842 93.0634203752 -55 c 1,20,-1
 75 -55 l 1,0,-1
EndSplineSet
EndChar

StartChar: zero
Encoding: 48 48 33
Width: 678
Flags: W
LayerCount: 2
Fore
SplineSet
480.539333767 156.122070312 m 128,-1,1
 490.330505371 184.358398438 490.330505371 184.358398438 491.569444444 213.385742188 c 0,2,3
 490.795823839 283.100585938 490.795823839 283.100585938 454.749688043 330.244140625 c 0,4,5
 435.843546549 353.444335938 435.843546549 353.444335938 407.169155545 367.799804688 c 0,6,7
 377.164137099 381.763671875 377.164137099 381.763671875 335.479166667 382 c 0,8,-1
 334.694085015 382.008789062 l 2,9,10
 299.396355523 382.799804688 299.396355523 382.799804688 273.215888129 369.614257812 c 0,11,12
 245.719692654 354.696289062 245.719692654 354.696289062 228.465087891 333.158203125 c 0,13,14
 209.996758355 308.887695312 209.996758355 308.887695312 200.560879178 278.864257812 c 0,15,16
 181.126383464 217.020507812 181.126383464 217.020507812 197.342617459 158.90234375 c 0,17,18
 205.973931207 130.23046875 205.973931207 130.23046875 223.848578559 108.470703125 c 0,19,20
 242.624064128 87.060546875 242.624064128 87.060546875 270.217678494 73.9912109375 c 0,21,22
 301.596876356 60.171875 301.596876356 60.171875 345.814737956 59.939453125 c 0,23,24
 381.947977702 60.36328125 381.947977702 60.36328125 406.578911675 71.4775390625 c 0,25,26
 434.410915799 85.0224609375 434.410915799 85.0224609375 451.962361654 105.158203125 c 0,27,0
 470.749308268 127.884765625 470.749308268 127.884765625 480.539333767 156.122070312 c 128,-1,1
606.325195312 320.6171875 m 0,28,29
 627.791992188 276.62890625 627.791992188 276.62890625 628 227.41015625 c 0,30,31
 627.637695312 177.017578125 627.637695312 177.017578125 608.842773438 132.624023438 c 0,32,33
 568.2265625 39.8818359375 568.2265625 39.8818359375 466.130506727 0.2275390625 c 0,34,35
 408.024149577 -21.79296875 408.024149577 -21.79296875 341.347222222 -22 c 0,36,37
 273.276631673 -21.6494140625 273.276631673 -21.6494140625 216.463080512 -3.36328125 c 0,38,39
 159.955078125 14.13671875 159.955078125 14.13671875 124.466796875 45.2275390625 c 0,40,41
 50.353515625 112.098632812 50.353515625 112.098632812 50 216.321289062 c 0,42,43
 50.3642578125 266.763671875 50.3642578125 266.763671875 69.1904296875 310.760742188 c 0,44,45
 109.286132812 401.254882812 109.286132812 401.254882812 212.341688368 441.727539062 c 0,46,47
 269.194207086 464 269.194207086 464 336.652777778 464 c 0,48,49
 400.482781304 463.612304688 400.482781304 463.612304688 456.410393609 444.111328125 c 0,50,51
 563.010742188 406.4453125 563.010742188 406.4453125 606.325195312 320.6171875 c 0,28,29
EndSplineSet
EndChar

StartChar: one
Encoding: 49 49 34
Width: 464
Flags: W
LayerCount: 2
Fore
SplineSet
312 442 m 2,0,-1
 409.348632812 442 l 1,1,-1
 416.673828125 434.673828125 l 2,2,3
 429.456054688 421.999023438 429.456054688 421.999023438 430 409.01953125 c 0,4,5
 429.49609375 397.70703125 429.49609375 397.70703125 425.192382812 389.654296875 c 0,6,7
 416.80859375 376.782226562 416.80859375 376.782226562 401.372070312 372.298828125 c 0,8,9
 386.86328125 368.858398438 386.86328125 368.858398438 367.059570312 368.731445312 c 0,10,11
 334.075195312 368.518554688 334.075195312 368.518554688 325.744140625 360.41015625 c 0,12,13
 323.547851562 356.564453125 323.547851562 356.564453125 322.935546875 351.93359375 c 0,14,15
 322.030273438 339.588867188 322.030273438 339.588867188 322.015625 306.603515625 c 128,-1,16
 322 273.618164062 322 273.618164062 320.5 223.514648438 c 128,-1,17
 319 173.411132812 319 173.411132812 319 122.711914062 c 2,18,-1
 319 111.022460938 l 1,19,20
 320.086914062 99.76171875 320.086914062 99.76171875 322.514648438 88.6435546875 c 0,21,22
 324.45703125 82.2978515625 324.45703125 82.2978515625 327.59765625 79.48828125 c 0,23,24
 332.720703125 76.4189453125 332.720703125 76.4189453125 340.270507812 74.8857421875 c 0,25,26
 355.970703125 72.1845703125 355.970703125 72.1845703125 370.872070312 69.841796875 c 128,-1,27
 385.7734375 67.4990234375 385.7734375 67.4990234375 397.584960938 64.666015625 c 0,28,29
 408.650390625 61.427734375 408.650390625 61.427734375 415.594726562 56.0400390625 c 0,30,31
 426.517578125 46.048828125 426.517578125 46.048828125 427 32.3466796875 c 0,32,33
 426.323242188 18.94140625 426.323242188 18.94140625 419.475585938 9.8017578125 c 0,34,35
 408.641601562 -4.02734375 408.641601562 -4.02734375 390.09765625 -6.3662109375 c 0,36,37
 350.323242188 -10.2294921875 350.323242188 -10.2294921875 294.220331101 -4.8564453125 c 0,38,39
 211.457077753 0.931640625 211.457077753 0.931640625 153.422851562 -5.193359375 c 0,40,41
 128.698242188 -8.9404296875 128.698242188 -8.9404296875 103 -9 c 2,42,-1
 89 -9 l 2,43,44
 52.505859375 -8.150390625 52.505859375 -8.150390625 39.6220703125 14.6171875 c 0,45,46
 35.18359375 23.1708984375 35.18359375 23.1708984375 35 32.8017578125 c 0,47,48
 36.3662109375 56.5498046875 36.3662109375 56.5498046875 61.748046875 65.01171875 c 0,49,50
 74.2353515625 68.751953125 74.2353515625 68.751953125 88.33984375 71.1337890625 c 128,-1,51
 102.4453125 73.515625 102.4453125 73.515625 116.305664062 76.380859375 c 0,52,53
 124.942382812 78.5576171875 124.942382812 78.5576171875 131.286132812 83.1591796875 c 1,54,55
 136.865234375 93.130859375 136.865234375 93.130859375 137 126.477539062 c 2,56,-1
 137 145.532226562 l 1,57,58
 139 290.34375 139 290.34375 139 298.662109375 c 2,59,-1
 139 315.61328125 l 2,60,61
 138.8359375 329.668945312 138.8359375 329.668945312 136.73828125 342.045898438 c 128,-1,62
 134.641601562 354.423828125 134.641601562 354.423828125 132.416015625 359.407226562 c 0,63,64
 127.17578125 362.6640625 127.17578125 362.6640625 121.866210938 363.647460938 c 0,65,66
 107.583007812 365.69140625 107.583007812 365.69140625 92.1728515625 366.8359375 c 128,-1,67
 76.763671875 367.98046875 76.763671875 367.98046875 63.8154296875 372.6640625 c 0,68,69
 39.4033203125 383.404296875 39.4033203125 383.404296875 39 409.2890625 c 0,70,71
 39.6611328125 420.399414062 39.6611328125 420.399414062 45.1748046875 428.22265625 c 0,72,73
 54.279296875 440.338867188 54.279296875 440.338867188 69.5771484375 443.193359375 c 0,74,75
 81.4453125 444.91796875 81.4453125 444.91796875 91 445 c 2,76,-1
 102 445 l 2,77,78
 133.0390625 444.879882812 133.0390625 444.879882812 155.348865327 441.969726562 c 0,79,80
 212.77469308 436.869140625 212.77469308 436.869140625 266.433640253 440.375 c 0,81,82
 291.09640067 441.950195312 291.09640067 441.950195312 312 442 c 2,0,-1
EndSplineSet
EndChar

StartChar: two
Encoding: 50 50 35
Width: 556
Flags: W
LayerCount: 2
Fore
SplineSet
61.818359375 313.307617188 m 0,0,1
 46.609375 324.327148438 46.609375 324.327148438 46 341.564453125 c 0,2,3
 46 350.208007812 46 350.208007812 51.4208984375 360.474609375 c 128,-1,4
 56.841796875 370.741210938 56.841796875 370.741210938 62.943359375 378.357421875 c 0,5,6
 79.740234375 399.323242188 79.740234375 399.323242188 83.859375 403.272460938 c 0,7,8
 106.1328125 425.009765625 106.1328125 425.009765625 125.017578125 436.765625 c 0,9,10
 161.059570312 458.26171875 161.059570312 458.26171875 207.748122793 460.940429688 c 0,11,12
 227.401189276 461.966796875 227.401189276 461.966796875 246.385184363 462 c 0,13,14
 351.109350404 461.177734375 351.109350404 461.177734375 401.282458866 411.606445312 c 0,15,16
 430.861328125 379.981445312 430.861328125 379.981445312 431.166992188 338.255859375 c 0,17,18
 430.580078125 285.990234375 430.580078125 285.990234375 393.858664871 237.456054688 c 0,19,20
 332.357235657 159.26171875 332.357235657 159.26171875 220.756368297 75.2626953125 c 1,21,22
 298.622269388 72.8037109375 298.622269388 72.8037109375 356.861673618 81.607421875 c 0,23,24
 374.749067933 84.4140625 374.749067933 84.4140625 384.661952447 88.4560546875 c 0,25,26
 406.747347076 109.573242188 406.747347076 109.573242188 435.810546875 142.092773438 c 2,27,-1
 463.768554688 178.360351562 l 1,28,29
 477.748046875 194.094726562 477.748046875 194.094726562 497.1171875 194.715820312 c 0,30,31
 505.333984375 194.408203125 505.333984375 194.408203125 512.596679688 191.995117188 c 0,32,33
 533.423828125 183.65625 533.423828125 183.65625 541.857421875 167.939453125 c 2,34,-1
 547.2421875 157.006835938 l 1,35,-1
 540.215820312 146.862304688 l 2,36,37
 517.08203125 113.077148438 517.08203125 113.077148438 508.319335938 86.9541015625 c 128,-1,38
 499.557617188 60.83203125 499.557617188 60.83203125 496.716796875 43.0810546875 c 128,-1,39
 493.875 25.3310546875 493.875 25.3310546875 492.896484375 15.9560546875 c 0,40,41
 491.346679688 6.1455078125 491.346679688 6.1455078125 487.188476562 -0.275390625 c 0,42,43
 481.328125 -8.1767578125 481.328125 -8.1767578125 473.815429688 -12.14453125 c 0,44,45
 465.377929688 -15.546875 465.377929688 -15.546875 456.708007812 -14.900390625 c 0,46,47
 426.974075857 -12.6533203125 426.974075857 -12.6533203125 375.629488597 -6.318359375 c 128,-1,48
 324.284901338 0.0166015625 324.284901338 0.0166015625 249.595277813 2 c 0,49,50
 217.34700268 1.9833984375 217.34700268 1.9833984375 180.5021829 1.533203125 c 0,51,52
 147.93359375 1.083984375 147.93359375 1.083984375 125.34375 1.0126953125 c 1,53,54
 119.94921875 -5.126953125 119.94921875 -5.126953125 115.509765625 -8.490234375 c 0,55,56
 106.341796875 -14.001953125 106.341796875 -14.001953125 100.487304688 -14.111328125 c 0,57,58
 64.0185546875 -14.7255859375 64.0185546875 -14.7255859375 53.9189453125 9.6396484375 c 0,59,60
 51.0947265625 17.8896484375 51.0947265625 17.8896484375 51 27.609375 c 0,61,62
 51.65625 41.3662109375 51.65625 41.3662109375 62.796875 52.1611328125 c 0,63,64
 118.262695312 108.047851562 118.262695312 108.047851562 169.484243643 175.124023438 c 0,65,66
 230.613698146 241.1328125 230.613698146 241.1328125 257.184528092 288.327148438 c 0,67,68
 267.768899422 309.392578125 267.768899422 309.392578125 268.027349384 324.599609375 c 0,69,70
 267.411417232 337.762695312 267.411417232 337.762695312 260.092694017 346.368164062 c 0,71,72
 241.557967087 364.71875 241.557967087 364.71875 196.917378601 365.088867188 c 0,73,74
 165.901367188 364.860351562 165.901367188 364.860351562 153.399414062 359.658203125 c 0,75,76
 140.495117188 353.633789062 140.495117188 353.633789062 133.870117188 347.090820312 c 0,77,78
 125.642578125 338.266601562 125.642578125 338.266601562 121.420898438 331.592773438 c 0,79,80
 111.182617188 316.400390625 111.182617188 316.400390625 99.15625 310.462890625 c 0,81,82
 90.7607421875 307.155273438 90.7607421875 307.155273438 82.94921875 306.924804688 c 0,83,84
 71.2607421875 307.431640625 71.2607421875 307.431640625 61.818359375 313.307617188 c 0,0,1
EndSplineSet
EndChar

StartChar: three
Encoding: 51 51 36
Width: 507
Flags: W
LayerCount: 2
Fore
SplineSet
77.013671875 316.530273438 m 0,0,1
 64.8076171875 317.034179688 64.8076171875 317.034179688 55.2861328125 324.751953125 c 0,2,3
 41.26171875 337.702148438 41.26171875 337.702148438 40.92578125 353.751953125 c 0,4,5
 41.6005859375 373.690429688 41.6005859375 373.690429688 57.7890625 393.409179688 c 0,6,7
 89.0439453125 429.530273438 89.0439453125 429.530273438 145.068359375 451.157226562 c 0,8,9
 179.431501326 462.790039062 179.431501326 462.790039062 216.872290086 462.766601562 c 0,10,11
 299.474191642 462.71875 299.474191642 462.71875 353.978515625 434.424804688 c 0,12,13
 376.625 417.845703125 376.625 417.845703125 390.161132812 394.202148438 c 0,14,15
 403.797851562 368.77734375 403.797851562 368.77734375 404 334.647460938 c 0,16,17
 403.467773438 308.600585938 403.467773438 308.600585938 387.120117188 279.235351562 c 0,18,19
 361.913085938 235.267578125 361.913085938 235.267578125 306.655179618 192.754882812 c 1,20,21
 374.561523438 182.619140625 374.561523438 182.619140625 412.799804688 148.737304688 c 0,22,23
 441.283203125 122.477539062 441.283203125 122.477539062 456.270507812 87.48046875 c 0,24,25
 470.818359375 51.9013671875 470.818359375 51.9013671875 471 12.3994140625 c 0,26,27
 470.456054688 -47.7021484375 470.456054688 -47.7021484375 437.618164062 -101.00390625 c 0,28,29
 404.76953125 -153.006835938 404.76953125 -153.006835938 356.153320312 -191.887695312 c 0,30,31
 290.650017636 -230.861328125 290.650017636 -230.861328125 211.307985138 -253.743164062 c 0,32,33
 137.750976562 -276.791015625 137.750976562 -276.791015625 81.4892578125 -277.995117188 c 2,34,-1
 81 -277.995117188 l 1,35,36
 62.2060546875 -276.880859375 62.2060546875 -276.880859375 52.1435546875 -264.0078125 c 0,37,38
 45.7578125 -254.688476562 45.7578125 -254.688476562 45.4169921875 -244.346679688 c 0,39,40
 45.5126953125 -241.903320312 45.5126953125 -241.903320312 46.470703125 -235.88671875 c 128,-1,41
 47.427734375 -229.87109375 47.427734375 -229.87109375 53.1435546875 -221.93359375 c 0,42,43
 61.892578125 -211.859375 61.892578125 -211.859375 74.9619140625 -209.263671875 c 0,44,45
 118.295898438 -197.485351562 118.295898438 -197.485351562 157.225585938 -179.610351562 c 0,46,47
 208.730568343 -161.736328125 208.730568343 -161.736328125 247.515059226 -137.783203125 c 0,48,49
 285.629024198 -113.458984375 285.629024198 -113.458984375 307.747103238 -83.466796875 c 0,50,51
 328.991908412 -53.1435546875 328.991908412 -53.1435546875 329.288742017 -16.3173828125 c 0,52,53
 328.473774753 23.8935546875 328.473774753 23.8935546875 297.905214014 57.6494140625 c 0,54,55
 282.773325898 73.1904296875 282.773325898 73.1904296875 262.719830594 83.390625 c 0,56,57
 241.211320565 93.4736328125 241.211320565 93.4736328125 215.235729807 97.099609375 c 0,58,59
 177.502082892 102.3671875 177.502082892 102.3671875 157.254882812 102.671875 c 0,60,61
 143.8515625 102.146484375 143.8515625 102.146484375 131.717773438 96.2060546875 c 0,62,63
 126.578125 94.1474609375 126.578125 94.1474609375 116.470703125 87.8896484375 c 128,-1,64
 106.36328125 81.630859375 106.36328125 81.630859375 100.227539062 78.9208984375 c 0,65,66
 90.8134765625 75.4931640625 90.8134765625 75.4931640625 84 75.279296875 c 0,67,68
 62.8154296875 76.2666015625 62.8154296875 76.2666015625 51.525390625 90.0966796875 c 0,69,70
 44.201171875 100.6640625 44.201171875 100.6640625 44 114.534179688 c 0,71,72
 44.94140625 137.583007812 44.94140625 137.583007812 71.677734375 150.087890625 c 0,73,74
 84.4765625 155.857421875 84.4765625 155.857421875 90.4423828125 158.626953125 c 0,75,76
 111.459960938 169.579101562 111.459960938 169.579101562 136.16796875 186.666015625 c 0,77,78
 201.407789313 224.419921875 201.407789313 224.419921875 237.972653908 268.517578125 c 0,79,80
 254.294526746 289.322265625 254.294526746 289.322265625 254.656292702 308.0078125 c 0,81,82
 253.946012289 342.8125 253.946012289 342.8125 232.550140012 357.499023438 c 0,83,84
 208.770322843 372.169921875 208.770322843 372.169921875 180.023843387 372.499023438 c 0,85,86
 151.845703125 372.016601562 151.845703125 372.016601562 139.341796875 362.83984375 c 0,87,88
 120.26953125 347.88671875 120.26953125 347.88671875 99.21875 325.645507812 c 0,89,90
 90.060546875 317.0859375 90.060546875 317.0859375 77.013671875 316.530273438 c 0,0,1
EndSplineSet
EndChar

StartChar: four
Encoding: 52 52 37
Width: 678
Flags: W
LayerCount: 2
Fore
SplineSet
341.516840142 -148.497070312 m 2,0,-1
 341.516840142 -63.3330078125 l 1,1,-1
 342.652857697 -31.513671875 l 2,2,3
 342.624013501 -20.513671875 342.624013501 -20.513671875 340.223288903 -16.828125 c 0,4,5
 337.11588151 -14.333984375 337.11588151 -14.333984375 335.414073962 -13.771484375 c 0,6,7
 327.546264881 -12.3095703125 327.546264881 -12.3095703125 315.554845204 -13.001953125 c 128,-1,8
 303.563425527 -13.693359375 303.563425527 -13.693359375 264.857843038 -13.74609375 c 128,-1,9
 226.15226055 -13.798828125 226.15226055 -13.798828125 163.64134145 -17.4921875 c 0,10,11
 104.395507812 -21.185546875 104.395507812 -21.185546875 47 -21.21875 c 0,12,13
 23.19921875 -20.087890625 23.19921875 -20.087890625 12.3662109375 0.19140625 c 0,14,15
 8.6376953125 8.5966796875 8.6376953125 8.5966796875 8.400390625 16.421875 c 0,16,17
 8.97265625 28.7431640625 8.97265625 28.7431640625 16.4951171875 38.96484375 c 0,18,19
 43.1220703125 76.1796875 43.1220703125 76.1796875 89.2822265625 135.727539062 c 0,20,21
 207.33253223 274.6640625 207.33253223 274.6640625 234.282995568 304.243164062 c 128,-1,22
 261.232349514 333.821289062 261.232349514 333.821289062 276.101532411 348.952148438 c 0,23,24
 290.613491038 364.461914062 290.613491038 364.461914062 296.956995313 373.125976562 c 128,-1,25
 303.300499589 381.791015625 303.300499589 381.791015625 308.395937703 389.668945312 c 128,-1,26
 313.491375817 397.546875 313.491375817 397.546875 320.31968446 407.641601562 c 0,27,28
 328.037725601 419.049804688 328.037725601 419.049804688 342.09039588 435.778320312 c 0,29,30
 356.674464996 451.708984375 356.674464996 451.708984375 378.266564282 457.16796875 c 0,31,32
 399.85977296 463 399.85977296 463 421.373105403 462.772460938 c 128,-1,33
 442.886437846 462.543945312 442.886437846 462.543945312 459.840168581 455.375 c 0,34,35
 484.839211138 443.6484375 484.839211138 443.6484375 485.894243067 423.5546875 c 0,36,37
 485.801054127 420.796875 485.801054127 420.796875 486.923758976 410.688476562 c 128,-1,38
 488.046463825 400.580078125 488.046463825 400.580078125 488.063104707 367.844726562 c 2,39,-1
 488.063104707 81 l 1,40,-1
 538.047877117 81 l 1,41,-1
 607 82 l 1,42,43
 631.498046875 81.212890625 631.498046875 81.212890625 648.673828125 64.673828125 c 0,44,45
 665.543945312 46.6904296875 665.543945312 46.6904296875 666 23 c 0,46,47
 665.26953125 4.6669921875 665.26953125 4.6669921875 656.3828125 -7.1181640625 c 0,48,49
 642.990234375 -22.61328125 642.990234375 -22.61328125 620 -23 c 1,50,-1
 571 -21 l 1,51,-1
 552 -21 l 1,52,-1
 507.126899298 -20.375 l 2,53,54
 495.876553572 -20.4892578125 495.876553572 -20.4892578125 489.199122262 -21.3759765625 c 1,55,-1
 489.199122262 -199.989257812 l 2,56,57
 489.127011772 -208.444335938 489.127011772 -208.444335938 488.567878132 -215.602539062 c 2,58,-1
 488.550127858 -216.028320312 l 2,59,60
 489.178043811 -219.133789062 489.178043811 -219.133789062 492.123479952 -225.415039062 c 1,61,-1
 491.250388335 -230.99609375 l 2,62,63
 488.829694678 -242.982421875 488.829694678 -242.982421875 481.850508704 -251.866210938 c 0,64,65
 471.355659028 -263.453125 471.355659028 -263.453125 455.029844247 -269.451171875 c 0,66,67
 432.616794776 -278 432.616794776 -278 407.405858319 -278 c 0,68,69
 386.060044089 -277.663085938 386.060044089 -277.663085938 369.310441509 -272.502929688 c 0,70,71
 339.416760815 -261.758789062 339.416760815 -261.758789062 338.108787478 -241.1484375 c 1,72,-1
 338.108787478 -239.760742188 l 1,73,74
 341.516840142 -215.8984375 341.516840142 -215.8984375 341.516840142 -148.497070312 c 2,0,-1
485.685677344 -22.2763671875 m 1,75,-1
 485.685677344 -22.2763671875 l 1,75,-1
342.652857697 84.0537109375 m 1,76,-1
 342.652857697 140 l 1,77,-1
 341.516840142 292 l 1,78,-1
 341.516840142 292.911132812 l 1,79,80
 317.320997496 265.48828125 317.320997496 265.48828125 275.277254048 218.98046875 c 128,-1,81
 233.234619993 172.47265625 233.234619993 172.47265625 172.931391258 97.833984375 c 0,82,83
 165.963299206 88.912109375 165.963299206 88.912109375 157.073739961 79.2529296875 c 1,84,-1
 342.652857697 84.0537109375 l 1,76,-1
EndSplineSet
EndChar

StartChar: five
Encoding: 53 53 38
Width: 587
Flags: W
LayerCount: 2
Fore
SplineSet
147.34765625 448.499023438 m 0,0,1
 155.83984375 449.133789062 155.83984375 449.133789062 167 449.161132812 c 2,2,-1
 280.355671357 447.836914062 l 2,3,4
 344.228180284 447.880859375 344.228180284 447.880859375 395.519978458 450.39453125 c 1,5,-1
 447.643554688 527.5078125 l 1,6,7
 459.448242188 542.19140625 459.448242188 542.19140625 476.224609375 542.900390625 c 0,8,9
 483.500976562 542.564453125 483.500976562 542.564453125 489.770507812 540.22265625 c 2,10,-1
 507.030273438 533.318359375 l 1,11,-1
 510.673828125 529.673828125 l 2,12,13
 520.129882812 520.134765625 520.129882812 520.134765625 520.25 505.822265625 c 0,14,15
 519.9140625 494.129882812 519.9140625 494.129882812 515.416992188 477.85546875 c 128,-1,16
 510.918945312 461.581054688 510.918945312 461.581054688 506.041992188 445.609375 c 0,17,18
 501.099609375 429.155273438 501.099609375 429.155273438 497.28515625 411.3515625 c 1,19,20
 494.041015625 401.25390625 494.041015625 401.25390625 489.653320312 388.854492188 c 0,21,22
 478.923828125 358.534179688 478.923828125 358.534179688 451.876953125 343.5234375 c 0,23,24
 435.640625 334.862304688 435.640625 334.862304688 409.485256054 334.862304688 c 2,25,-1
 284.531119006 334.862304688 l 2,26,27
 217.592265711 334.775390625 217.592265711 334.775390625 191.586330919 331.47265625 c 1,28,-1
 190.531595445 330.995117188 l 1,29,30
 181.314439741 316.655273438 181.314439741 316.655273438 172.73519965 294.749023438 c 0,31,32
 164.701171875 272.842773438 164.701171875 272.842773438 161.17578125 261.07421875 c 1,33,34
 235.919049677 288.5390625 235.919049677 288.5390625 303.461989726 288.5390625 c 0,35,36
 326.162361797 288.403320312 326.162361797 288.403320312 348.503906335 286.061523438 c 0,37,38
 409.828377331 278.318359375 409.828377331 278.318359375 449.811523438 257.05859375 c 0,39,40
 523.982421875 212.180664062 523.982421875 212.180664062 542.477539062 130.973632812 c 0,41,42
 551.0859375 90.7666015625 551.0859375 90.7666015625 545.822265625 47.3310546875 c 0,43,44
 536.557617188 -21.1591796875 536.557617188 -21.1591796875 495.701171875 -77.7880859375 c 0,45,46
 454.57421875 -133.60546875 454.57421875 -133.60546875 391.429248867 -173.01171875 c 0,47,48
 374.978286287 -182.875 374.978286287 -182.875 363.368293947 -187.588867188 c 0,49,50
 348.803702058 -192.745117188 348.803702058 -192.745117188 337.798682136 -193 c 0,51,52
 322.995912129 -192.481445312 322.995912129 -192.481445312 310.066413017 -185.448242188 c 0,53,54
 298.28016887 -178.7109375 298.28016887 -178.7109375 287.78604101 -168.189453125 c 0,55,56
 281.430257943 -160.853515625 281.430257943 -160.853515625 280.994391988 -152.791992188 c 0,57,58
 281.473130004 -143.19921875 281.473130004 -143.19921875 288.077809204 -136.236328125 c 128,-1,59
 294.682488404 -129.274414062 294.682488404 -129.274414062 306.057875299 -120.736328125 c 128,-1,60
 317.433262193 -112.198242188 317.433262193 -112.198242188 337.640293687 -93.1220703125 c 128,-1,61
 357.847325181 -74.046875 357.847325181 -74.046875 377.994812146 -45.5068359375 c 0,62,63
 397.328920839 -17.111328125 397.328920839 -17.111328125 405.159026454 22.853515625 c 0,64,65
 410.709767484 56.314453125 410.709767484 56.314453125 409.177091297 81.4912109375 c 0,66,67
 407.21688539 104.54296875 407.21688539 104.54296875 396.975226335 121.048828125 c 0,68,69
 385.480750381 137.7890625 385.480750381 137.7890625 365.52380591 150.5390625 c 0,70,71
 341.895345758 164.780273438 341.895345758 164.780273438 304.774095245 176.330078125 c 0,72,73
 293.404662803 178.903320312 293.404662803 178.903320312 271.768562604 177.749023438 c 128,-1,74
 250.132462404 176.594726562 250.132462404 176.594726562 223.17784484 171.827148438 c 128,-1,75
 196.222036385 167.059570312 196.222036385 167.059570312 172.291090023 159.9375 c 0,76,77
 147.98046875 152.5703125 147.98046875 152.5703125 136.450195312 145.387695312 c 1,78,-1
 133.532226562 144.357421875 l 1,79,80
 127.377929688 135.7734375 127.377929688 135.7734375 120.930664062 129.059570312 c 0,81,82
 104.172851562 113.229492188 104.172851562 113.229492188 82.1865234375 112.845703125 c 0,83,84
 68.7744140625 113.21484375 68.7744140625 113.21484375 51.4609375 119.685546875 c 1,85,-1
 48.6708984375 121.713867188 l 2,86,87
 30.6142578125 135.961914062 30.6142578125 135.961914062 30 156.05078125 c 0,88,89
 30.56640625 179.04296875 30.56640625 179.04296875 43.3642578125 198.428710938 c 0,90,91
 51.0771484375 209.952148438 51.0771484375 209.952148438 53.533203125 215.512695312 c 0,92,93
 85.8857421875 297.970703125 85.8857421875 297.970703125 103.65234375 368.823242188 c 0,94,95
 110.334960938 396.048828125 110.334960938 396.048828125 112.224609375 415.474609375 c 0,96,97
 113.91015625 423.350585938 113.91015625 423.350585938 117.142578125 430.44140625 c 0,98,99
 125.93359375 446.953125 125.93359375 446.953125 147.34765625 448.499023438 c 0,0,1
EndSplineSet
EndChar

StartChar: six
Encoding: 54 54 39
Width: 672
Flags: W
LayerCount: 2
Fore
SplineSet
408.869212963 612.650390625 m 0,0,1
 294.196759259 533.635742188 294.196759259 533.635742188 241.542824074 418.334960938 c 1,2,3
 312.038194444 450.444335938 312.038194444 450.444335938 384.777777778 450.701171875 c 0,4,5
 442.439814815 450.325195312 442.439814815 450.325195312 489.196759259 434.205078125 c 0,6,7
 570.454101562 399.891601562 570.454101562 399.891601562 600.59375 320.897460938 c 0,8,9
 614.838867188 281.971679688 614.838867188 281.971679688 615 238.291992188 c 0,10,11
 614.6484375 189.724609375 614.6484375 189.724609375 597.471679688 145.54296875 c 0,12,13
 559.4375 50.9951171875 559.4375 50.9951171875 467.925925926 9.625 c 0,14,15
 413.550925926 -12.7763671875 413.550925926 -12.7763671875 349.222222222 -13 c 0,16,17
 283.820601852 -12.578125 283.820601852 -12.578125 223.627314815 9.0703125 c 0,18,19
 172.66015625 27.181640625 172.66015625 27.181640625 142.158203125 54.4111328125 c 0,20,21
 83.6171875 108.2109375 83.6171875 108.2109375 64.0869140625 189.78515625 c 0,22,23
 55.107421875 228.811523438 55.107421875 228.811523438 55 268.33984375 c 0,24,25
 55.337890625 346.76171875 55.337890625 346.76171875 81.9453125 417.096679688 c 0,26,27
 109.1640625 487.631835938 109.1640625 487.631835938 155.869140625 547.166015625 c 0,28,29
 208.740740741 607.016601562 208.740740741 607.016601562 282.023148148 654.01953125 c 0,30,31
 369.158564815 709.2578125 369.158564815 709.2578125 472.431712963 743.111328125 c 0,32,33
 494.256944444 750.41796875 494.256944444 750.41796875 508.711914062 751.896484375 c 2,34,-1
 516.862304688 752.637695312 l 1,35,-1
 523.8359375 748.453125 l 2,36,37
 531.478515625 743.580078125 531.478515625 743.580078125 538.306640625 737.500976562 c 0,38,39
 551.470703125 725.241210938 551.470703125 725.241210938 552 708.9609375 c 0,40,41
 551.333007812 692.6953125 551.333007812 692.6953125 535.099609375 680.391601562 c 0,42,43
 519.995117188 669.494140625 519.995117188 669.494140625 492.912037037 658.140625 c 0,44,45
 483.078703704 654.627929688 483.078703704 654.627929688 478.256944444 652.796875 c 0,46,47
 443.946759259 636.528320312 443.946759259 636.528320312 408.869212963 612.650390625 c 0,0,1
398.886574074 348.904296875 m 0,48,49
 373.403935185 360.759765625 373.403935185 360.759765625 338.555555556 361 c 0,50,51
 304.081018519 360.256835938 304.081018519 360.256835938 262.24537037 336.3671875 c 0,52,53
 231.888888889 318.46484375 231.888888889 318.46484375 208.266203704 296.650390625 c 1,54,-1
 205.064814815 270.4140625 l 2,55,56
 200 224.04296875 200 224.04296875 210.733796296 169.685546875 c 0,57,58
 226.711805556 93.494140625 226.711805556 93.494140625 278.355324074 59.33984375 c 0,59,60
 304.664351852 43.2939453125 304.664351852 43.2939453125 344.481481481 43 c 0,61,62
 379.18287037 43.53125 379.18287037 43.53125 401.496527778 56.4375 c 0,63,64
 450.310185185 86.9345703125 450.310185185 86.9345703125 465.996527778 148.631835938 c 0,65,66
 481.146990741 211.6953125 481.146990741 211.6953125 465.06712963 266.92578125 c 0,67,68
 456.302083333 295.1171875 456.302083333 295.1171875 440.03125 316.254882812 c 0,69,70
 423.263888889 336.537109375 423.263888889 336.537109375 398.886574074 348.904296875 c 0,48,49
EndSplineSet
EndChar

StartChar: seven
Encoding: 55 55 40
Width: 583
Flags: W
LayerCount: 2
Fore
SplineSet
154.645295125 446.11328125 m 1,0,-1
 297.434903988 446.11328125 l 2,1,2
 322.284952037 446.158203125 322.284952037 446.158203125 344.843067581 447.022460938 c 0,3,-1
 345.40702047 447.041015625 l 2,4,5
 383.359651644 447.974609375 383.359651644 447.974609375 422.369111888 449.391601562 c 0,6,7
 458.40234375 450.809570312 458.40234375 450.809570312 491 450.809570312 c 2,8,-1
 504 450.809570312 l 2,9,10
 537.325195312 450.204101562 537.325195312 450.204101562 552.712890625 435.754882812 c 0,11,12
 562.616210938 424.873046875 562.616210938 424.873046875 563 410.41796875 c 0,13,14
 562.46484375 397.830078125 562.46484375 397.830078125 540.607421875 354.357421875 c 0,15,16
 531.470703125 336.17578125 531.470703125 336.17578125 521.45703125 315.0703125 c 128,-1,17
 511.444335938 293.96484375 511.444335938 293.96484375 501.483398438 274.740234375 c 128,-1,18
 491.430664062 255.3515625 491.430664062 255.3515625 484.086914062 240.662109375 c 128,-1,19
 476.743164062 225.971679688 476.743164062 225.971679688 473.571289062 219.952148438 c 2,20,-1
 337.665485363 -23.9794921875 l 2,21,22
 266.048129275 -146.078125 266.048129275 -146.078125 180.016183962 -264.607421875 c 0,23,24
 168.32464825 -280.938476562 168.32464825 -280.938476562 142.817431959 -281.545898438 c 0,25,26
 126.91796875 -281.166992188 126.91796875 -281.166992188 112.84375 -274.375 c 0,27,28
 83.34375 -259.291015625 83.34375 -259.291015625 82.4287109375 -236.359375 c 0,29,30
 82.875 -228.4375 82.875 -228.4375 85.490234375 -223.365234375 c 0,31,32
 133.532226562 -130.211914062 133.532226562 -130.211914062 189.448412543 -40.9697265625 c 128,-1,33
 245.482491911 48.2724609375 245.482491911 48.2724609375 302.613016874 141.112304688 c 0,34,35
 330.111546154 189.1484375 330.111546154 189.1484375 357.769706727 234.673828125 c 128,-1,36
 385.4278673 280.198242188 385.4278673 280.198242188 408.299419471 325.85546875 c 1,37,-1
 408.518475552 326.71875 l 1,38,-1
 61 326.71875 l 2,39,40
 35.2802734375 327.282226562 35.2802734375 327.282226562 22.955078125 338.12890625 c 0,41,42
 14.59375 347.078125 14.59375 347.078125 14.142578125 358.568359375 c 0,43,44
 14.4482421875 365.016601562 14.4482421875 365.016601562 16.5830078125 370.686523438 c 0,45,46
 25.2890625 392.770507812 25.2890625 392.770507812 32.16015625 416.203125 c 0,47,48
 49.8173828125 476.420898438 49.8173828125 476.420898438 57.3369140625 493.983398438 c 0,49,50
 62.53515625 504.979492188 62.53515625 504.979492188 67.59375 510.733398438 c 0,51,52
 78.353515625 521.377929688 78.353515625 521.377929688 91 522 c 0,53,54
 115.377929688 521.3203125 115.377929688 521.3203125 127.9453125 509.81640625 c 0,55,56
 138.258035982 499.963867188 138.258035982 499.963867188 138.745086204 486.504882812 c 2,57,-1
 138.745086204 485.877929688 l 2,58,59
 137.645145032 468.205078125 137.645145032 468.205078125 137.974894345 459.451171875 c 128,-1,60
 138.303478466 450.697265625 138.303478466 450.697265625 138.338434224 446.442382812 c 1,61,-1
 154.645295125 446.11328125 l 1,0,-1
EndSplineSet
EndChar

StartChar: eight
Encoding: 56 56 41
Width: 596
Flags: W
LayerCount: 2
Fore
SplineSet
443.419921875 381.612304688 m 0,0,1
 434.776367188 376.983398438 434.776367188 376.983398438 424.444581304 372.495117188 c 1,2,3
 445.8828125 360.2734375 445.8828125 360.2734375 467.607421875 343.467773438 c 0,4,5
 515.999023438 306.030273438 515.999023438 306.030273438 540.03515625 253.73828125 c 0,6,7
 553.061523438 224.029296875 553.061523438 224.029296875 552.865234375 185.984375 c 128,-1,8
 552.668945312 147.940429688 552.668945312 147.940429688 537.040039062 112.938476562 c 0,9,10
 501.23828125 36.1142578125 501.23828125 36.1142578125 416.512109942 3.912109375 c 0,11,12
 365.781608341 -12.8037109375 365.781608341 -12.8037109375 312.330714438 -12.791015625 c 128,-1,13
 258.879820534 -12.779296875 258.879820534 -12.779296875 208.430987871 -3.3740234375 c 0,14,15
 112.063476562 15.65234375 112.063476562 15.65234375 70.9267578125 79.9091796875 c 0,16,17
 47.9130859375 117.561523438 47.9130859375 117.561523438 47.9091796875 169.247070312 c 0,18,19
 48.265625 199.8671875 48.265625 199.8671875 58.6572265625 225.583984375 c 0,20,21
 81.0302734375 278.095703125 81.0302734375 278.095703125 135.881835938 317.45703125 c 0,22,23
 155.303710938 331.096679688 155.303710938 331.096679688 176.288228724 342.083984375 c 1,24,25
 156.439453125 353.700195312 156.439453125 353.700195312 135.44140625 368.657226562 c 0,26,27
 88.1064453125 402.374023438 88.1064453125 402.374023438 62.9404296875 450.735351562 c 0,28,29
 49.3623046875 478.110351562 49.3623046875 478.110351562 48.013671875 510.401367188 c 0,30,-1
 48.0068359375 510.639648438 l 2,31,32
 47.943359375 513.204101562 47.943359375 513.204101562 47.9423828125 515.750976562 c 0,33,34
 48.3759765625 558.786132812 48.3759765625 558.786132812 65.9326171875 593.5625 c 0,35,36
 104.8359375 667.326171875 104.8359375 667.326171875 194.792914953 695.59375 c 0,37,38
 246.012124197 709.83203125 246.012124197 709.83203125 299.909595775 710 c 0,39,40
 349.409902273 709.70703125 349.409902273 709.70703125 396.281298686 698.450195312 c 0,41,42
 486.245117188 674.463867188 486.245117188 674.463867188 525.200195312 612.12890625 c 0,43,44
 547.073242188 575.528320312 547.073242188 575.528320312 547.077148438 530.6015625 c 0,45,46
 546.673828125 494.893554688 546.673828125 494.893554688 533.787109375 467.811523438 c 0,47,48
 519.149414062 438.696289062 519.149414062 438.696289062 495.723632812 417.604492188 c 0,49,50
 472.344726562 397.250976562 472.344726562 397.250976562 443.419921875 381.612304688 c 0,0,1
407.474629671 88.908203125 m 0,51,52
 419.532226884 111.340820312 419.532226884 111.340820312 419.780191846 137.6171875 c 0,53,54
 419.274632214 174.231445312 419.274632214 174.231445312 405.493317401 199.829101562 c 0,55,56
 391.568760691 224.185546875 391.568760691 224.185546875 371.272948911 241.765625 c 0,57,58
 332.07281805 274.27734375 332.07281805 274.27734375 268.213414303 295.987304688 c 1,59,60
 225.07834431 279.073242188 225.07834431 279.073242188 200.299903796 247.732421875 c 0,61,62
 174.352657563 213.11328125 174.352657563 213.11328125 174.014414095 173.129882812 c 0,63,64
 174.014414095 145.219726562 174.014414095 145.219726562 182.543927308 116.467773438 c 0,65,66
 189.811948868 93.8349609375 189.811948868 93.8349609375 203.0202961 77.224609375 c 0,67,68
 216.729388109 61.486328125 216.729388109 61.486328125 235.862412737 52.12890625 c 0,69,70
 256.290632992 43.236328125 256.290632992 43.236328125 282.340194865 43.169921875 c 128,-1,71
 308.388553025 43.1044921875 308.388553025 43.1044921875 327.091851966 44.828125 c 0,72,73
 343.787356942 46.8173828125 343.787356942 46.8173828125 361.798520673 53.5546875 c 0,74,75
 394.748971517 67.470703125 394.748971517 67.470703125 407.474629671 88.908203125 c 0,51,52
261.821696104 450.53125 m 0,76,77
 299.5617226 426.39453125 299.5617226 426.39453125 323.882752019 419.126953125 c 1,78,79
 363.880944869 431.961914062 363.880944869 431.961914062 390.96449656 465.862304688 c 0,80,81
 404.695255411 484.009765625 404.695255411 484.009765625 411.954850977 504.407226562 c 128,-1,82
 419.213242831 524.803710938 419.213242831 524.803710938 419.4708375 543.55078125 c 0,83,84
 416.309886089 593.243164062 416.309886089 593.243164062 382.295352592 624.87109375 c 0,85,86
 345.500241122 656.616210938 345.500241122 656.616210938 288.816173003 657 c 0,87,88
 236.814550043 656.190429688 236.814550043 656.190429688 206.159580669 629.627929688 c 0,89,90
 174.724605006 600.526367188 174.724605006 600.526367188 174.184137686 558.33984375 c 0,91,92
 176.106467999 527.55078125 176.106467999 527.55078125 199.365822191 499.411132812 c 0,93,94
 219.597837161 478.095703125 219.597837161 478.095703125 261.821696104 450.53125 c 0,76,77
EndSplineSet
EndChar

StartChar: nine
Encoding: 57 57 42
Width: 672
Flags: W
LayerCount: 2
Fore
SplineSet
271.113425926 82.095703125 m 0,0,1
 296.596064815 70.240234375 296.596064815 70.240234375 331.444444444 70 c 0,2,3
 365.918981481 70.7431640625 365.918981481 70.7431640625 407.75462963 94.6328125 c 0,4,5
 438.111111111 112.53515625 438.111111111 112.53515625 461.733796296 134.349609375 c 1,6,-1
 464.935185185 160.5859375 l 2,7,8
 469.916666667 206.198242188 469.916666667 206.198242188 459.255787037 260.866210938 c 0,9,10
 443.407407407 337.426757812 443.407407407 337.426757812 391.644675926 371.66015625 c 0,11,12
 365.335648148 387.706054688 365.335648148 387.706054688 325.518518519 388 c 0,13,14
 290.81712963 387.46875 290.81712963 387.46875 268.503472222 374.5625 c 0,15,16
 219.689814815 344.065429688 219.689814815 344.065429688 204.003472222 282.368164062 c 0,17,18
 188.853009259 219.3046875 188.853009259 219.3046875 204.93287037 164.07421875 c 0,19,20
 213.697916667 135.8828125 213.697916667 135.8828125 229.96875 114.745117188 c 0,21,22
 246.736111111 94.462890625 246.736111111 94.462890625 271.113425926 82.095703125 c 0,0,1
69.40625 111.384765625 m 0,23,24
 55.1611328125 150.149414062 55.1611328125 150.149414062 55 193.649414062 c 0,25,26
 55.3515625 242.016601562 55.3515625 242.016601562 72.5283203125 286.016601562 c 0,27,28
 110.5625 380.174804688 110.5625 380.174804688 202.074074074 421.375 c 0,29,30
 256.449074074 443.776367188 256.449074074 443.776367188 320.777777778 444 c 0,31,32
 386.179398148 443.578125 386.179398148 443.578125 446.372685185 421.9296875 c 0,33,34
 497.33984375 403.911132812 497.33984375 403.911132812 527.841796875 376.823242188 c 0,35,36
 586.3828125 323.299804688 586.3828125 323.299804688 605.913085938 242.146484375 c 0,37,38
 614.892578125 203.3203125 614.892578125 203.3203125 615 163.99609375 c 0,39,40
 614.694335938 86.3046875 614.694335938 86.3046875 590.963867188 19.212890625 c 0,41,42
 544.138671875 -113.173828125 544.138671875 -113.173828125 424.740740741 -195.465820312 c 0,43,44
 361.650462963 -235.236328125 361.650462963 -235.236328125 294.55787037 -256.975585938 c 0,45,46
 280.430555556 -262.337890625 280.430555556 -262.337890625 261.271990741 -268.877929688 c 128,-1,47
 242.113425926 -275.41796875 242.113425926 -275.41796875 225.119212963 -276.896484375 c 2,48,-1
 215.459490741 -277.637695312 l 1,49,-1
 207.194444444 -273.453125 l 2,50,51
 198.136574074 -268.580078125 198.136574074 -268.580078125 190.043981481 -262.500976562 c 0,52,53
 174.529296875 -250.291992188 174.529296875 -250.291992188 174 -234.078125 c 0,54,55
 174.547851562 -222.782226562 174.547851562 -222.782226562 185.530092593 -214.029296875 c 0,56,57
 197.570601852 -205.356445312 197.570601852 -205.356445312 235.756944444 -187.473632812 c 2,58,-1
 273.68287037 -169.767578125 l 2,59,60
 290.03587963 -162.00390625 290.03587963 -162.00390625 297.832175926 -156.828125 c 0,61,62
 364.063657407 -111.077148438 364.063657407 -111.077148438 396.935185185 -55.2626953125 c 0,63,64
 416.112268519 -22.013671875 416.112268519 -22.013671875 430.828703704 15.4326171875 c 1,65,66
 421.954861111 11.400390625 421.954861111 11.400390625 403.789351852 4.0224609375 c 128,-1,67
 385.623842593 -3.35546875 385.623842593 -3.35546875 353.175925926 -10.5576171875 c 128,-1,68
 320.728009259 -17.759765625 320.728009259 -17.759765625 285.222222222 -17.884765625 c 0,69,70
 226.318287037 -17.509765625 226.318287037 -17.509765625 180.06712963 -1.40625 c 0,71,72
 99.4208984375 33.04296875 99.4208984375 33.04296875 69.40625 111.384765625 c 0,23,24
EndSplineSet
EndChar

StartChar: colon
Encoding: 58 58 43
Width: 257
Flags: W
LayerCount: 2
Fore
SplineSet
208 396 m 0,0,1
 207.183554258 358.289915769 207.183554258 358.289915769 180.941427575 332.096024743 c 0,2,3
 153.475415511 306.432600845 153.475415511 306.432600845 117 306 c 0,4,5
 110.124586848 306.318750097 110.124586848 306.318750097 104.942221931 307.710620971 c 0,6,7
 75.4935272379 313.392931193 75.4935272379 313.392931193 53.8680309785 340.02731127 c 0,8,9
 32.3987774201 368.386165595 32.3987774201 368.386165595 32 399 c 0,10,11
 32.7837799703 432.216470631 32.7837799703 432.216470631 56.8511454175 458.186550143 c 0,12,13
 82.9249097642 484.501556267 82.9249097642 484.501556267 116 485 c 0,14,15
 152.045109125 484.230330687 152.045109125 484.230330687 179.485589464 459.337164062 c 0,16,17
 207.51030426 432.216230805 207.51030426 432.216230805 208 396 c 0,0,1
208 50 m 0,18,19
 207.241143152 14.1099361227 207.241143152 14.1099361227 182.541260951 -13.7627118394 c 0,20,21
 155.381016179 -42.5085896762 155.381016179 -42.5085896762 118 -43 c 0,22,23
 98.4876717274 -42.5235395633 98.4876717274 -42.5235395633 81.9612588228 -34.179771373 c 0,24,25
 65.8431212854 -25.2281018565 65.8431212854 -25.2281018565 54.870359358 -12.588699422 c 0,26,27
 31.3806162173 16.5113479877 31.3806162173 16.5113479877 31 50 c 0,28,29
 31.8282843416 86.8990687595 31.8282843416 86.8990687595 57.3271700462 111.661842895 c 0,30,31
 83.7392361148 135.585303655 83.7392361148 135.585303655 119 136 c 0,32,33
 152.865873075 135.242953159 152.865873075 135.242953159 179.71365063 111.585532714 c 0,34,35
 207.497189209 85.4272623529 207.497189209 85.4272623529 208 50 c 0,18,19
EndSplineSet
EndChar

StartChar: semicolon
Encoding: 59 59 44
Width: 258
Flags: W
LayerCount: 2
Fore
SplineSet
216 396 m 0,0,1
 215.214960066 358.662932746 215.214960066 358.662932746 190.410060232 332.564819695 c 0,2,3
 163.839896857 306.444235338 163.839896857 306.444235338 127 306 c 0,4,5
 120.102060162 306.390143419 120.102060162 306.390143419 116.417120949 307.569207235 c 0,6,7
 82.9089109958 312.97706023 82.9089109958 312.97706023 64.1069468373 338.543086663 c 0,8,9
 46.3308547664 364.636436963 46.3308547664 364.636436963 46 395 c 0,10,11
 46.7541598551 433.065173193 46.7541598551 433.065173193 69.3099261709 457.642936981 c 0,12,13
 93.9721601934 482.588724198 93.9721601934 482.588724198 132 483 c 0,14,15
 167.310421634 482.13424514 167.310421634 482.13424514 192.109404022 455.187089094 c 0,16,17
 215.565700151 427.941993334 215.565700151 427.941993334 216 396 c 0,0,1
237 -12 m 0,18,19
 236.55758017 -55.15807916 236.55758017 -55.15807916 219.950532608 -89.504213708 c 0,20,21
 202.287002937 -124.298750191 202.287002937 -124.298750191 172.10958052 -151.123125672 c 0,22,23
 158.582283497 -161.944963291 158.582283497 -161.944963291 135.416975129 -177.340234568 c 0,24,25
 100.174972189 -200.76147235 100.174972189 -200.76147235 83.3417322697 -206.497885433 c 0,26,27
 75.0144487175 -208.833331802 75.0144487175 -208.833331802 69 -209 c 0,28,29
 57.5252663633 -208.297387392 57.5252663633 -208.297387392 49.4056617144 -202.938636943 c 0,30,31
 43.4219700223 -197.988308212 43.4219700223 -197.988308212 39.9984132791 -192.059410197 c 0,32,33
 36.2998372115 -187.60598368 36.2998372115 -187.60598368 34.3062687361 -183.756083227 c 0,34,35
 26.7927424466 -165.486118051 26.7927424466 -165.486118051 36.5524838513 -151.809102257 c 0,36,37
 44.6764598469 -141.698892639 44.6764598469 -141.698892639 55.184734946 -133.821203055 c 0,38,39
 65.6930100451 -125.943513472 65.6930100451 -125.943513472 73.8754933517 -120.509532331 c 0,40,41
 97.8002015422 -104.621151232 97.8002015422 -104.621151232 110.302109099 -89.1111775539 c 0,42,43
 116.784001029 -80.199461149 116.784001029 -80.199461149 120.358544082 -70.3563621346 c 0,44,45
 123.851797039 -58.9762357198 123.851797039 -58.9762357198 123.877046919 -47.8072317155 c 0,46,47
 123.902296798 -36.6382277111 123.902296798 -36.6382277111 122.603693193 -33.8648550083 c 0,48,49
 118.182737129 -29.894801472 118.182737129 -29.894801472 113.403362473 -27.790852209 c 0,50,51
 102.989929929 -23.8852818075 102.989929929 -23.8852818075 88.9774161948 -20.433238096 c 0,52,53
 74.9649024601 -16.9811943844 74.9649024601 -16.9811943844 60.8137344228 -8.23997599044 c 0,54,55
 46.0640404114 1.42749747905 46.0640404114 1.42749747905 37.5342553554 13.2072153097 c 0,56,57
 26.3090469807 30.4660410743 26.3090469807 30.4660410743 26 51 c 0,58,59
 27.0286313042 91.4891386791 27.0286313042 91.4891386791 60.3690669547 113.95551471 c 0,60,61
 90.1202123367 132.673739801 90.1202123367 132.673739801 121 133 c 0,62,63
 152.648781701 132.437786616 152.648781701 132.437786616 175.555363397 118.00460577 c 0,64,65
 227.116596787 83.0128173679 227.116596787 83.0128173679 235.575874582 11.9546684281 c 0,66,67
 237 -0.00802135502176 237 -0.00802135502176 237 -12 c 0,18,19
EndSplineSet
EndChar

StartChar: less
Encoding: 60 60 45
Width: 458
Flags: W
LayerCount: 2
Fore
SplineSet
24 179.120485598 m 1,0,-1
 24 269.508654466 l 1,1,2
 110.686282725 319.043673166 110.686282725 319.043673166 166.065598616 356.254443797 c 0,3,4
 192.284686436 373.929177823 192.284686436 373.929177823 215.94520819 390.50607699 c 0,5,6
 300.193294631 449.531488537 300.193294631 449.531488537 394.205536553 500.044458449 c 2,7,-1
 431 519.787829079 l 1,8,-1
 431 478 l 2,9,10
 431.031327641 473.701650531 431.031327641 473.701650531 431.320730682 470.815274469 c 0,11,12
 432.160368199 467.705344385 432.160368199 467.705344385 433.101543233 464.754476337 c 0,13,14
 434.042718267 461.803608289 434.042718267 461.803608289 435.521373473 456.661317636 c 0,15,16
 437.00002868 451.519026984 437.00002868 451.519026984 437 439 c 2,17,-1
 437 426.394174652 l 1,18,19
 338.708520677 353.743950805 338.708520677 353.743950805 293.058073481 317.530119541 c 0,20,21
 227.924516859 265.860622876 227.924516859 265.860622876 174.178103007 224.885416447 c 1,22,-1
 230.166186114 181.870126608 l 2,23,24
 279.32131658 144.35587955 279.32131658 144.35587955 357.678365251 90.0881419552 c 2,25,-1
 446 29.1177231285 l 1,26,-1
 446 16 l 2,27,28
 445.603519293 1.94038177819 445.603519293 1.94038177819 442.989850232 -5.0615585147 c 0,29,30
 440.376181172 -12.0634988076 440.376181172 -12.0634988076 438.545857212 -15.482997158 c 0,31,32
 436.715533253 -18.9024955084 436.715533253 -18.9024955084 436.238276732 -19.9460135543 c 0,33,34
 436.050374694 -22.8385562572 436.050374694 -22.8385562572 436 -25 c 2,35,-1
 436 -66.0792963532 l 1,36,37
 341.596978268 -17.2501471814 341.596978268 -17.2501471814 300.372655132 6.65142447418 c 0,38,39
 232.212764973 46.1700478187 232.212764973 46.1700478187 164.035389896 90.2583513514 c 0,40,41
 95.4439517355 134.614417304 95.4439517355 134.614417304 24 179.120485598 c 1,0,-1
EndSplineSet
EndChar

StartChar: equal
Encoding: 61 61 46
Width: 512
Flags: W
LayerCount: 2
Fore
SplineSet
320 275 m 1,0,-1
 60 274 l 1,1,-1
 46.4007473265 274 l 1,2,-1
 38.9953942302 285.444636603 l 2,3,4
 23.3206382725 310.68996564 23.3206382725 310.68996564 22.9285714286 330.334183673 c 0,5,6
 23.5208948456 350.179958374 23.5208948456 350.179958374 38.4609194684 375.691412729 c 2,7,-1
 45.7341755833 388 l 1,8,-1
 60 388 l 2,9,10
 152.138573934 388 152.138573934 388 235.804881718 386.998175212 c 0,11,12
 319.418809411 386.006874015 319.418809411 386.006874015 380 386 c 2,13,-1
 470.499128667 386 l 1,14,-1
 474.514689853 365.922194069 l 2,15,16
 476.893235105 353.086377528 476.893235105 353.086377528 477 346 c 2,17,-1
 477 332 l 2,18,19
 476.945231316 322.71970576 476.945231316 322.71970576 476.46501288 313.167290964 c 0,20,21
 474.842824874 295.179780628 474.842824874 295.179780628 465.212924202 283.010718717 c 2,22,-1
 456.798819661 272.913793267 l 1,23,24
 434.337917541 274.955693459 434.337917541 274.955693459 422 275 c 2,25,-1
 320 275 l 1,0,-1
56 228 m 1,26,-1
 176 229 l 1,27,-1
 459.779526514 229 l 1,28,-1
 467.280071058 218.614630632 l 2,29,30
 482.510373122 196.42483681 482.510373122 196.42483681 482.903225806 176.268470343 c 0,31,32
 482.278985113 156.630292933 482.278985113 156.630292933 469.634040074 129.377286504 c 2,33,-1
 463.218141189 115.743501374 l 1,34,35
 427.080254878 114.022649645 427.080254878 114.022649645 402 114 c 2,36,-1
 241 114 l 2,37,38
 120.614669585 114 120.614669585 114 30 116.745899078 c 1,39,-1
 30 141 l 2,40,41
 29.7923780407 145.762454261 29.7923780407 145.762454261 27.468615762 153.010861469 c 0,42,43
 25.1448534832 160.259268676 25.1448534832 160.259268676 25 173 c 0,44,45
 25.2784133274 183.132233999 25.2784133274 183.132233999 27.8885277547 192.803617444 c 0,46,47
 30.4986421821 202.475000889 30.4986421821 202.475000889 31.3407414475 207.133401551 c 2,48,-1
 34.8185078558 228 l 1,49,-1
 56 228 l 1,26,-1
EndSplineSet
EndChar

StartChar: greater
Encoding: 62 62 47
Width: 458
Flags: W
LayerCount: 2
Fore
SplineSet
22 16 m 2,0,-1
 22 29.1332523942 l 1,1,2
 76.9927859863 67.0171716292 76.9927859863 67.0171716292 110.327493913 91.2381466477 c 0,3,4
 205.687403513 160.523075302 205.687403513 160.523075302 234.571709887 182.169456161 c 0,5,6
 263.456016261 203.81583702 263.456016261 203.81583702 292.810632929 225.247981455 c 1,7,-1
 122.209472389 357.725574704 l 2,8,9
 85.7961725124 385.892655839 85.7961725124 385.892655839 31 426.394174652 c 1,10,-1
 31 439 l 2,11,12
 31.3016517552 452.074759174 31.3016517552 452.074759174 32.7849158951 457.442419707 c 0,13,14
 34.2681800349 462.81008024 34.2681800349 462.81008024 35.1876742496 465.737321566 c 0,15,16
 36.8896889053 471.155743516 36.8896889053 471.155743516 37 478 c 2,17,-1
 37 519.949824808 l 1,18,-1
 73.8693459766 500.00411305 l 2,19,20
 135.857979741 466.392306332 135.857979741 466.392306332 176.534743036 440.465023398 c 0,21,22
 217.211506332 414.537740464 217.211506332 414.537740464 252.88541969 389.948324674 c 0,23,24
 288.559333049 365.358908885 288.559333049 365.358908885 329.220615548 338.627525332 c 0,25,26
 370.280632381 311.634007391 370.280632381 311.634007391 444 269.508654466 c 1,27,-1
 444 178.963344794 l 1,28,29
 393.392314269 148.104999836 393.392314269 148.104999836 332.616956788 109.330388638 c 0,30,31
 202.817666417 26.5185842083 202.817666417 26.5185842083 137.644932596 -9.85277387881 c 0,32,33
 105.767990744 -27.5856111678 105.767990744 -27.5856111678 32 -66.4108694541 c 1,34,-1
 32 -25 l 2,35,36
 31.9452680246 -21.8016763177 31.9452680246 -21.8016763177 31.7692021646 -19.96436598 c 0,37,38
 30.806898414 -17.90494084 30.806898414 -17.90494084 28.9807198194 -14.4873891419 c 0,39,40
 27.1545412249 -11.0698374438 27.1545412249 -11.0698374438 24.5772706124 -4.30794593616 c 0,41,42
 22 2.45394557153 22 2.45394557153 22 16 c 2,0,-1
EndSplineSet
EndChar

StartChar: question
Encoding: 63 63 48
Width: 359
Flags: W
LayerCount: 2
Fore
SplineSet
195 39 m 0,0,1
 194.123313043 2.51237513373 194.123313043 2.51237513373 166.915851525 -21.8493229612 c 0,2,3
 144.166611631 -40.719258887 144.166611631 -40.719258887 117.079545455 -41.1363636364 c 0,4,5
 72.7025229775 -40.127452196 72.7025229775 -40.127452196 50.3461792858 -10.7878757644 c 0,6,7
 33 12.8029280642 33 12.8029280642 33 43 c 0,8,9
 33.7392219589 77.8307272616 33.7392219589 77.8307272616 54.4989167168 101.307012866 c 0,10,11
 77.7021950791 125.575962855 77.7021950791 125.575962855 114 126 c 0,12,13
 151.112346132 125.078121189 151.112346132 125.078121189 174.08018794 97.0380549163 c 0,14,15
 194.619774075 70.1105455356 194.619774075 70.1105455356 195 39 c 0,0,1
65 231 m 1,16,-1
 66 277 l 2,17,18
 65.9418330975 295.276592053 65.9418330975 295.276592053 65.1567184066 306.615939298 c 0,19,20
 62.7766517406 340.991047427 62.7766517406 340.991047427 69.156948203 358.462087315 c 0,21,22
 75.3857720939 372.709352944 75.3857720939 372.709352944 89.8777991873 383.060800868 c 1,23,24
 118.364066206 394.666317061 118.364066206 394.666317061 145.219656563 407.732839351 c 0,25,26
 172.07524692 420.79936164 172.07524692 420.79936164 193.054580898 437.153467122 c 0,27,28
 212.911292269 453.399806653 212.911292269 453.399806653 224.858315398 473.516153553 c 0,29,30
 235.761984254 493.554802741 235.761984254 493.554802741 236 521 c 0,31,32
 235.267570463 561.458825003 235.267570463 561.458825003 209.572392323 593.771887489 c 0,33,34
 182.434093369 625.536911258 182.434093369 625.536911258 147 626 c 0,35,36
 133.758651046 625.64143546 133.758651046 625.64143546 116.773024257 619.908139214 c 0,37,38
 99.7873974681 614.174842968 99.7873974681 614.174842968 79 614 c 0,39,40
 52.6769414254 614.701346857 52.6769414254 614.701346857 33.4350446637 630.350389345 c 0,41,42
 12.505762988 649.07027415 12.505762988 649.07027415 12 677 c 0,43,44
 12.5943835572 699.821655504 12.5943835572 699.821655504 22.1838254287 714.842247627 c 0,45,46
 41.9979054808 742.399996203 41.9979054808 742.399996203 77.8732375479 747.305985004 c 0,47,48
 91.9267302789 748.939713582 91.9267302789 748.939713582 105 749 c 0,49,50
 154.855540053 748.392195677 154.855540053 748.392195677 199.655526383 719.439455021 c 0,51,52
 242.386055088 690.974337255 242.386055088 690.974337255 274.631969021 650.47268873 c 0,53,54
 307.015989672 608.906690063 307.015989672 608.906690063 325.809766112 561.048152293 c 0,55,56
 344.792745056 511.27892199 344.792745056 511.27892199 345 468 c 0,57,58
 344.569886892 423.826968362 344.569886892 423.826968362 329.375258329 392.843948875 c 0,59,60
 313.816390795 362.651768001 313.816390795 362.651768001 291.699539809 341.363460178 c 0,61,62
 269.239675 320.482369103 269.239675 320.482369103 244.362629425 306.641011107 c 0,63,64
 219.48558385 292.799653111 219.48558385 292.799653111 198.947915845 281.709601883 c 0,65,66
 178.410247839 270.619550656 178.410247839 270.619550656 164.372125546 259.789053306 c 0,67,68
 154.994198318 251.588203151 154.994198318 251.588203151 152.091334876 242.302984211 c 2,69,-1
 149.817432841 234.116936884 l 1,70,-1
 149.002922317 233.506053991 l 1,71,-1
 149.002922317 207 l 2,72,73
 148.425362525 172.493172105 148.425362525 172.493172105 133.581610532 156.677648727 c 0,74,75
 122.760623679 146.789481636 122.760623679 146.789481636 108.288105009 145.103513691 c 2,76,-1
 104.268140235 144.738062348 l 1,77,-1
 100.364119947 145.638990107 l 2,78,79
 87.6106397039 149.223933368 87.6106397039 149.223933368 79.4044139568 156.707820819 c 0,80,81
 69.5041472831 167.219880894 69.5041472831 167.219880894 67.3111609102 181.746757135 c 0,82,83
 65.0757407891 192.646990167 65.0757407891 192.646990167 65 205 c 2,84,-1
 65 231 l 1,16,-1
EndSplineSet
EndChar

StartChar: at
Encoding: 64 64 49
Width: 877
Flags: W
LayerCount: 2
Fore
SplineSet
444.312585202 171.413784803 m 0,0,1
 421.235183528 162.368662685 421.235183528 162.368662685 402.614995994 146.892534579 c 0,2,3
 389.361695184 134.346852601 389.361695184 134.346852601 389 116 c 0,4,5
 389.434176787 96.6513619811 389.434176787 96.6513619811 396.64727743 86.9532784658 c 0,6,7
 403.838267779 80.3783207224 403.838267779 80.3783207224 422 80 c 0,8,9
 437.806557132 80.5226949283 437.806557132 80.5226949283 453.552663652 87.9783995455 c 0,10,11
 470.765056733 96.7993117575 470.765056733 96.7993117575 481.350228928 107.653813432 c 0,12,13
 486.808111457 114.438057775 486.808111457 114.438057775 492.826999582 123.766393416 c 0,14,15
 498.845887706 133.094729057 498.845887706 133.094729057 501.21329924 139.457643654 c 1,16,-1
 503 170.724906961 l 1,17,-1
 503 192.743620233 l 1,18,19
 486.901695537 187.514983659 486.901695537 187.514983659 470.155481492 181.002456973 c 0,20,21
 453.409267446 174.489930287 453.409267446 174.489930287 444.312585202 171.413784803 c 0,0,1
35 231 m 0,22,23
 35.4319848282 314.851939251 35.4319848282 314.851939251 69.7279178696 390.824271996 c 0,24,25
 104.895064427 467.060154364 104.895064427 467.060154364 164.813449857 524.148854583 c 0,26,27
 226.202988558 581.667928147 226.202988558 581.667928147 301.822097929 609.950362023 c 0,28,29
 378.064267128 637.823314307 378.064267128 637.823314307 460 638 c 0,30,31
 512.62962546 637.748621855 512.62962546 637.748621855 565.242519265 624.374663253 c 0,32,33
 670.935040707 597.508104428 670.935040707 597.508104428 748.298307879 519.549227472 c 0,34,35
 809.647938186 456.364673927 809.647938186 456.364673927 833.277243906 361.487177228 c 0,36,37
 841.881101698 325.520151646 841.881101698 325.520151646 842 289 c 0,38,39
 841.702812841 240.836493528 841.702812841 240.836493528 827.154988447 192.066681559 c 0,40,41
 795.847195402 87.1111130467 795.847195402 87.1111130467 720.499305123 26.8890730891 c 0,42,43
 679.133907674 -5.20843784549 679.133907674 -5.20843784549 628.922194069 -15.514689853 c 0,44,45
 615.35442102 -18 615.35442102 -18 602 -18 c 0,46,47
 557.838304558 -17.1629213783 557.838304558 -17.1629213783 531.458739049 11.2372881606 c 0,48,49
 521.671896006 22.4271196995 521.671896006 22.4271196995 514.580267725 34.330908239 c 1,50,51
 495.358937666 17.283275425 495.358937666 17.283275425 471.382823432 3.56685667294 c 0,52,53
 421.995402205 -24.68703568 421.995402205 -24.68703568 375 -25 c 0,54,55
 311.432124417 -24.1045286571 311.432124417 -24.1045286571 283.315749073 13.2535982629 c 0,56,57
 258.275054159 48.6040164231 258.275054159 48.6040164231 258 101 c 0,58,59
 258.557089376 130.478972353 258.557089376 130.478972353 273.252130534 154.671829353 c 0,60,61
 308.869118477 210.05686785 308.869118477 210.05686785 390.951847707 242.309766112 c 0,62,63
 452.811876225 265.824868542 452.811876225 265.824868542 503 279.354747045 c 1,64,-1
 503 333 l 2,65,66
 502.607821846 368.175910837 502.607821846 368.175910837 491.010416761 388.225192304 c 0,67,68
 481.098215759 401.589592976 481.098215759 401.589592976 452 402 c 0,69,70
 428.244577932 401.699319677 428.244577932 401.699319677 415.643305883 395.37509946 c 0,71,72
 402.147204456 387.802629109 402.147204456 387.802629109 394.957421088 379.308728264 c 0,73,74
 387.599276353 369.678805515 387.599276353 369.678805515 384.288968554 359.268337905 c 0,75,76
 382.255950122 352.874771557 382.255950122 352.874771557 378.867270958 341.543592185 c 0,77,78
 370.521046277 317.419787536 370.521046277 317.419787536 348.568076592 301.186387468 c 0,79,80
 325.448178149 285.340391765 325.448178149 285.340391765 299 285 c 0,81,82
 286.789724736 285.594697304 286.789724736 285.594697304 278.114433473 290.453377494 c 0,83,84
 265.241682653 299.146945095 265.241682653 299.146945095 261.535757091 314.332031726 c 0,85,86
 259.109446012 326.818731769 259.109446012 326.818731769 259 337 c 0,87,88
 259.73315946 370.321568383 259.73315946 370.321568383 284.625073562 401.292866084 c 0,89,90
 332.315194856 458.468850968 332.315194856 458.468850968 407.083622765 487.36058087 c 0,91,92
 445.777841303 501.792637779 445.777841303 501.792637779 478 502 c 0,93,94
 492.838933799 501.758854297 492.838933799 501.758854297 513.568623854 497.957894852 c 0,95,96
 549.351811519 491.396752607 549.351811519 491.396752607 565.423808872 483.239356995 c 0,97,98
 607.609721159 460.393235833 607.609721159 460.393235833 619.008960937 423.486726179 c 0,99,100
 627.873145955 391.943467288 627.873145955 391.943467288 627.936572978 352.319991783 c 0,101,102
 628 312.696516278 628 312.696516278 627.000036711 271.196499271 c 0,103,104
 626.000073422 229.696482264 626.000073422 229.696482264 626 188 c 2,105,-1
 626 159 l 2,106,107
 626.132759595 111.814143015 626.132759595 111.814143015 630.204828822 94.8720172932 c 0,108,109
 634.12480385 94.1042583851 634.12480385 94.1042583851 637 94 c 0,110,111
 656.975372388 94.9959486501 656.975372388 94.9959486501 672.639324024 110.485757076 c 0,112,113
 693.453454267 132.341941698 693.453454267 132.341941698 708.379830608 163.15412763 c 0,114,115
 723.306206949 193.966313563 723.306206949 193.966313563 731.081457961 227.003244566 c 0,116,117
 738.856708973 260.04017557 738.856708973 260.04017557 739 281 c 0,118,119
 738.58285815 338.864808376 738.58285815 338.864808376 716.794042637 386.531476558 c 0,120,121
 693.782835707 435.158287163 693.782835707 435.158287163 656.237288161 469.458739049 c 0,122,123
 617.013088483 504.352881111 617.013088483 504.352881111 567.094441734 523.635285359 c 0,124,125
 515.792843384 542.821438567 515.792843384 542.821438567 460 543 c 0,126,127
 391.351659498 542.580149114 391.351659498 542.580149114 337.276921526 516.939175322 c 0,128,129
 226.8089972 462.932756452 226.8089972 462.932756452 184.092467796 342.715669127 c 0,130,131
 163.166070826 282.147507232 163.166070826 282.147507232 163 217 c 0,132,133
 163.34335473 152.318503012 163.34335473 152.318503012 183.332565173 99.989304798 c 0,134,135
 204.210685435 47.0354688486 204.210685435 47.0354688486 240.461893389 5.8537451002 c 0,136,137
 330.741285257 -88.6161842096 330.741285257 -88.6161842096 466 -89 c 0,138,139
 492.58784326 -88.8194741431 492.58784326 -88.8194741431 523.907471394 -83.6218219204 c 0,140,141
 587.104784637 -73.1339050703 587.104784637 -73.1339050703 642.663598293 -41.7550533575 c 0,142,143
 668.082843355 -26.8474097874 668.082843355 -26.8474097874 684.073902264 -8.67262849802 c 2,144,-1
 694.385758479 3.2674155399 l 1,145,146
 738.955757414 -8.88803871523 738.955757414 -8.88803871523 752.493871587 -11.4035466635 c 2,147,-1
 797.145141655 -19.5219594032 l 1,148,-1
 766.394273553 -52.9237644109 l 2,149,150
 640.164414495 -188.585703944 640.164414495 -188.585703944 459 -189 c 0,151,152
 392.844439562 -188.709365815 392.844439562 -188.709365815 331.352823319 -170.06595752 c 0,153,154
 207.658798824 -132.563638618 207.658798824 -132.563638618 124.235935823 -32.4277144517 c 0,155,156
 83.0190760768 17.9617824584 83.0190760768 17.9617824584 59.0884234571 81.6356281125 c 0,157,158
 35.1577708375 145.309473767 35.1577708375 145.309473767 35 231 c 0,22,23
EndSplineSet
EndChar

StartChar: A
Encoding: 65 65 50
Width: 878
Flags: W
LayerCount: 2
Fore
SplineSet
452.056338028 294 m 2,0,-1
 431.383802817 294 l 1,1,-1
 353.045774648 295 l 2,2,3
 314.528089926 294.915039062 314.528089926 294.915039062 293.952244718 292.782226562 c 1,4,5
 246.255384848 196.799804688 246.255384848 196.799804688 216.56517867 108.266601562 c 0,6,7
 212.64551469 96.46484375 212.64551469 96.46484375 210.528959892 87.9169921875 c 0,8,9
 210.712777151 86.1376953125 210.712777151 86.1376953125 210.86259353 85.2724609375 c 0,10,11
 225.522285569 80.984375 225.522285569 80.984375 245.411738006 79.15625 c 128,-1,12
 265.302252971 77.328125 265.302252971 77.328125 283.801919427 73.9619140625 c 0,13,14
 299.29144545 70.494140625 299.29144545 70.494140625 308.927507427 63.0546875 c 0,15,16
 322.142162054 51.294921875 322.142162054 51.294921875 322.580985915 34.45703125 c 0,17,18
 321.695900501 16.9150390625 321.695900501 16.9150390625 307.222150776 5.0693359375 c 0,19,20
 292.227762572 -6.56640625 292.227762572 -6.56640625 273.61971831 -7 c 0,21,22
 236.779764525 -6.8935546875 236.779764525 -6.8935546875 200.89927308 -3.4736328125 c 0,23,24
 133.883538045 2.9150390625 133.883538045 2.9150390625 93.8740234375 -2.2734375 c 0,25,26
 73.0546875 -4.9423828125 73.0546875 -4.9423828125 49 -5 c 0,27,28
 29.111328125 -3.9921875 29.111328125 -3.9921875 18.0048828125 10.6875 c 0,29,30
 10.3369140625 21.896484375 10.3369140625 21.896484375 10 34.3193359375 c 0,31,32
 11.2607421875 60.568359375 11.2607421875 60.568359375 31.84375 71.080078125 c 0,33,34
 43.794921875 76.3359375 43.794921875 76.3359375 56.1923828125 78.4765625 c 128,-1,35
 68.58984375 80.6171875 68.58984375 80.6171875 78.8828125 83.62890625 c 0,36,37
 83.232421875 86.2626953125 83.232421875 86.2626953125 87.8515625 92.0126953125 c 0,38,39
 91.8388671875 98.7392578125 91.8388671875 98.7392578125 102.405273438 121.548828125 c 128,-1,40
 112.97265625 144.359375 112.97265625 144.359375 118.350585938 157.521484375 c 0,41,42
 136.897928587 201.556640625 136.897928587 201.556640625 220.141646264 376.43359375 c 2,43,-1
 380.853182081 713.733398438 l 2,44,45
 384.705906828 723.049804688 384.705906828 723.049804688 389.106895769 729.0078125 c 0,46,47
 400.692695725 742.8515625 400.692695725 742.8515625 422.679577465 743 c 0,48,49
 444.036380392 742.0625 444.036380392 742.0625 456.660269724 727.181640625 c 0,50,51
 463.075810822 718.604492188 463.075810822 718.604492188 466.397271814 711.373046875 c 2,52,-1
 568.846174213 494.1953125 l 1,53,54
 661.920396402 286.7265625 661.920396402 286.7265625 767.607421875 94.8759765625 c 0,55,56
 772.9609375 85.88671875 772.9609375 85.88671875 779.034179688 83.4970703125 c 0,57,58
 794.090820312 78.537109375 794.090820312 78.537109375 809.622070312 75.7333984375 c 128,-1,59
 825.154296875 72.9287109375 825.154296875 72.9287109375 838.002929688 69.48046875 c 0,60,61
 867.439453125 59.8134765625 867.439453125 59.8134765625 868 31.6279296875 c 0,62,63
 866.619140625 6.4736328125 866.619140625 6.4736328125 840.401367188 -2.2236328125 c 0,64,65
 825.576171875 -6.83203125 825.576171875 -6.83203125 812 -7 c 2,66,-1
 801 -7 l 2,67,68
 774.926757812 -6.8759765625 774.926757812 -6.8759765625 751.17578125 -3.9384765625 c 0,69,70
 700.770652234 1.82421875 700.770652234 1.82421875 627.980080188 -3.9052734375 c 0,71,72
 588.70162577 -6.95703125 588.70162577 -6.95703125 549.978873239 -7 c 0,73,74
 529.906666071 -6.302734375 529.906666071 -6.302734375 514.883589624 5.0126953125 c 0,75,76
 506.901882978 11.30078125 506.901882978 11.30078125 502.327702052 20.3115234375 c 0,77,78
 497.753521127 28.5673828125 497.753521127 28.5673828125 497.753521127 37.435546875 c 0,79,80
 498.78417281 54.234375 498.78417281 54.234375 513.062417474 64.2373046875 c 0,81,82
 523.220180458 70.2880859375 523.220180458 70.2880859375 538.30913361 72.1416015625 c 128,-1,83
 553.397024235 73.9951171875 553.397024235 73.9951171875 569.67069556 74.861328125 c 128,-1,84
 585.945429412 75.728515625 585.945429412 75.728515625 596.021377778 77.580078125 c 1,85,86
 590.972247057 91.01171875 590.972247057 91.01171875 583.395363391 107.435546875 c 0,87,88
 549.847119828 179.5546875 549.847119828 179.5546875 504.528196523 271.680664062 c 0,89,90
 498.916988749 281.266601562 498.916988749 281.266601562 496.545427349 285.760742188 c 128,-1,91
 494.17386595 290.255859375 494.17386595 290.255859375 493.658540108 291.174804688 c 0,92,93
 483.237270301 293.923828125 483.237270301 293.923828125 452.056338028 294 c 2,0,-1
382.655228736 386.521484375 m 128,-1,95
 411.026838276 386.889648438 411.026838276 386.889648438 458.894765075 386.977539062 c 1,96,97
 445.68329803 420.361328125 445.68329803 420.361328125 402.544681173 533.50390625 c 1,98,99
 391.838653994 510.28125 391.838653994 510.28125 381.07100022 485.581054688 c 0,100,101
 371.361623845 463.309570312 371.361623845 463.309570312 336.242964624 386.038085938 c 1,102,94
 354.284681723 386.15234375 354.284681723 386.15234375 382.655228736 386.521484375 c 128,-1,95
EndSplineSet
Substitution2: "'c2sc' Versalien in Kapit+AOQA-lchen in Lateinisch Nachschlagetabelle 0 Subtabelle" uni1D00
EndChar

StartChar: B
Encoding: 66 66 51
Width: 789
Flags: W
LayerCount: 2
Fore
SplineSet
516.523644833 491.1015625 m 0,0,1
 529.508196839 513.086914062 529.508196839 513.086914062 529.739695088 543.764648438 c 0,2,3
 528.897389253 593.376953125 528.897389253 593.376953125 493.455333432 617.94140625 c 0,4,5
 454.044115149 643.711914062 454.044115149 643.711914062 393.962168267 644 c 2,6,-1
 378.381140599 644 l 2,7,8
 345.232330339 643.901367188 345.232330339 643.901367188 330.799012299 640.797851562 c 0,9,10
 316.265704404 637.012695312 316.265704404 637.012695312 315.097344698 633.543945312 c 0,11,12
 311.671605356 619.830078125 311.671605356 619.830078125 311.605307736 594.77734375 c 2,13,-1
 311.605307736 431.529296875 l 1,14,15
 316.122240701 431.068359375 316.122240701 431.068359375 320.508752117 431 c 2,16,-1
 358.34839074 431 l 2,17,18
 437.346896395 431.4375 437.346896395 431.4375 481.571756666 457.096679688 c 0,19,20
 503.545613905 470.790039062 503.545613905 470.790039062 516.523644833 491.1015625 c 0,0,1
540.244063978 97.7783203125 m 0,21,22
 581.651818799 137.93359375 581.651818799 137.93359375 582.04743083 201 c 0,23,24
 581.474662863 241.633789062 581.474662863 241.633789062 561.30714407 272.473632812 c 0,25,26
 543.720885093 298.658203125 543.720885093 298.658203125 521.2568602 312.873046875 c 0,27,28
 472.732436212 342.00390625 472.732436212 342.00390625 403.915506114 346.047851562 c 0,29,30
 368.065882954 347.969726562 368.065882954 347.969726562 333.86391869 348 c 2,31,-1
 314.944099379 348 l 2,32,33
 311.455322955 347.782226562 311.455322955 347.782226562 309.37944664 347.401367188 c 1,34,-1
 309.37944664 144 l 2,35,36
 309.54138673 122.190429688 309.54138673 122.190429688 313.00516569 99.4912109375 c 0,37,38
 316.43742611 83.2451171875 316.43742611 83.2451171875 328.91224723 72.732421875 c 0,39,40
 341.328378653 64.0927734375 341.328378653 64.0927734375 360.453611903 61.833984375 c 0,41,42
 388.098632812 59.064453125 388.098632812 59.064453125 408.430265387 59 c 0,43,44
 498.885217237 59.6142578125 498.885217237 59.6142578125 540.244063978 97.7783203125 c 0,21,22
309.439223183 350.040039062 m 1,45,-1
 309.439223183 350.040039062 l 1,45,-1
103.7421875 723.604492188 m 128,-1,47
 118.525390625 724.5 118.525390625 724.5 128.25 724.5 c 2,48,-1
 182.505364201 723 l 1,49,50
 231.869920331 723.088867188 231.869920331 723.088867188 281.412719244 727.022460938 c 128,-1,51
 330.956605003 730.956054688 330.956605003 730.956054688 381.421049526 730.874023438 c 128,-1,52
 431.886580895 730.791992188 431.886580895 730.791992188 484.727958141 721.080078125 c 0,53,54
 537.569335386 712.004882812 537.569335386 712.004882812 582.565856486 691.526367188 c 0,55,56
 629.236328125 669.048828125 629.236328125 669.048828125 656.4375 633.540039062 c 0,57,58
 684.7109375 595.059570312 684.7109375 595.059570312 685 542.536132812 c 0,59,60
 684.241210938 479.744140625 684.241210938 479.744140625 643.043945312 439.0078125 c 0,61,62
 624.092773438 420.942382812 624.092773438 420.942382812 600.278189626 407.69140625 c 1,63,64
 661.086914062 383.364257812 661.086914062 383.364257812 698.489257812 340.380859375 c 0,65,66
 740.666015625 290.317382812 740.666015625 290.317382812 741 221.103515625 c 0,67,68
 740.5625 162.935546875 740.5625 162.935546875 717.8203125 120.408203125 c 0,69,70
 671.391601562 36.9609375 671.391601562 36.9609375 560.68329433 8.9384765625 c 0,71,72
 506.448580207 -4.5625 506.448580207 -4.5625 446.926359137 -5.9501953125 c 0,73,74
 439.63362088 -6.9150390625 439.63362088 -6.9150390625 434.027667984 -7 c 2,75,-1
 99 -7 l 2,76,77
 85.123046875 -6.8125 85.123046875 -6.8125 69.5830078125 -4.1103515625 c 0,78,79
 51.3408203125 0.1162109375 51.3408203125 0.1162109375 41.8740234375 13.4072265625 c 0,80,81
 35.2294921875 23.7119140625 35.2294921875 23.7119140625 35 36.3701171875 c 0,82,83
 35.9296875 53.7880859375 35.9296875 53.7880859375 50.787109375 63.9228515625 c 0,84,85
 59.896484375 69.2158203125 59.896484375 69.2158203125 71.5400390625 71.0927734375 c 2,86,-1
 106.077148438 76.2333984375 l 2,87,88
 122.607421875 78.888671875 122.607421875 78.888671875 137.42841648 84.1083984375 c 0,89,90
 140.266172007 85.3115234375 140.266172007 85.3115234375 141.488874025 86.1650390625 c 0,91,92
 142.808305358 88.7353515625 142.808305358 88.7353515625 143.251738623 90.8447265625 c 0,93,94
 145.403694174 114.381835938 145.403694174 114.381835938 146.149270694 173.12109375 c 128,-1,95
 146.894847213 231.859375 146.894847213 231.859375 148.008864607 287.471679688 c 0,96,97
 150.230378317 398.388671875 150.230378317 398.388671875 150.230378317 513.498046875 c 2,98,-1
 150.230378317 610.604492188 l 2,99,100
 149.927148217 631.936523438 149.927148217 631.936523438 143.576705648 636.737304688 c 0,101,102
 134.767816889 640.94921875 134.767816889 640.94921875 105.298828125 644.240234375 c 0,103,104
 80.376953125 645.526367188 80.376953125 645.526367188 61.1640625 655.93359375 c 0,105,106
 44.8349609375 666.477539062 44.8349609375 666.477539062 44 682.500976562 c 0,107,108
 45.3759765625 708.58203125 45.3759765625 708.58203125 73.0986328125 717.723632812 c 0,109,46
 88.9580078125 722.708984375 88.9580078125 722.708984375 103.7421875 723.604492188 c 128,-1,47
EndSplineSet
Substitution2: "'c2sc' Versalien in Kapit+AOQA-lchen in Lateinisch Nachschlagetabelle 0 Subtabelle" uni0299
EndChar

StartChar: C
Encoding: 67 67 52
Width: 827
Flags: W
LayerCount: 2
Fore
SplineSet
698.8515625 740.686523438 m 0,0,1
 715.940429688 757.57421875 715.940429688 757.57421875 741 758 c 0,2,3
 757.184570312 757.108398438 757.184570312 757.108398438 767.150390625 745.020507812 c 0,4,5
 776.84765625 731.02734375 776.84765625 731.02734375 777 699 c 0,6,7
 776.899414062 684.258789062 776.899414062 684.258789062 775.477539062 670.423828125 c 128,-1,8
 774.055664062 656.587890625 774.055664062 656.587890625 774.028320312 639.796875 c 0,9,10
 773.958007812 597.796875 773.958007812 597.796875 769.7890625 547.259765625 c 1,11,12
 767.885742188 539.270507812 767.885742188 539.270507812 765.271484375 533.556640625 c 0,13,14
 761.543945312 526.95703125 761.543945312 526.95703125 757.673828125 523.047851562 c 0,15,16
 746.73046875 513.879882812 746.73046875 513.879882812 733 513.418945312 c 0,17,18
 724.7734375 513.680664062 724.7734375 513.680664062 718.458984375 515.287109375 c 1,19,20
 696.770507812 516.376953125 696.770507812 516.376953125 686.142578125 537.541015625 c 0,21,22
 681.129882812 548.521484375 681.129882812 548.521484375 677.620442708 561.041992188 c 0,23,24
 668.696831597 591.782226562 668.696831597 591.782226562 664.1015625 599.344726562 c 0,25,26
 632.590060764 626.684570312 632.590060764 626.684570312 589.191623264 641.423828125 c 0,27,28
 541.841362847 656.857421875 541.841362847 656.857421875 493.333333333 657.034179688 c 0,29,30
 423.563368056 656.625 423.563368056 656.625 375.598958333 634.735351562 c 0,31,32
 326.727430556 611.486328125 326.727430556 611.486328125 296.223958333 574.8203125 c 0,33,34
 264.689670139 535.70703125 264.689670139 535.70703125 249.632161458 483.725585938 c 128,-1,35
 234.573567708 431.744140625 234.573567708 431.744140625 234.62890625 372.479492188 c 128,-1,36
 234.683159722 313.213867188 234.683159722 313.213867188 249.890407986 255.524414062 c 0,37,38
 281.968315972 137.880859375 281.968315972 137.880859375 381.065538194 86.654296875 c 0,39,40
 432.006293403 61.353515625 432.006293403 61.353515625 504.444444444 61.1220703125 c 0,41,42
 555.2734375 61.552734375 555.2734375 61.552734375 605.188802083 79.2978515625 c 0,43,44
 657.616102431 98.640625 657.616102431 98.640625 686.018554688 128.303710938 c 0,45,46
 690.463867188 134.508789062 690.463867188 134.508789062 696.329101562 144.553710938 c 0,47,48
 711.077148438 169.8125 711.077148438 169.8125 723.18359375 186.872070312 c 0,49,50
 729.748046875 195.213867188 729.748046875 195.213867188 735.578125 199.498046875 c 0,51,52
 744.5859375 205.669921875 744.5859375 205.669921875 755 205.669921875 c 0,53,54
 775.759765625 204.873046875 775.759765625 204.873046875 787.09765625 196.0546875 c 0,55,56
 799.842773438 184.669921875 799.842773438 184.669921875 800 164.63671875 c 0,57,58
 799.615234375 142.51953125 799.615234375 142.51953125 792.840820312 111.782226562 c 0,59,60
 782.556640625 65.1201171875 782.556640625 65.1201171875 773.76953125 48.4033203125 c 0,61,62
 768.125976562 39.025390625 768.125976562 39.025390625 763.528320312 35.2431640625 c 0,63,64
 742.256835938 18.2919921875 742.256835938 18.2919921875 711.381835938 7.486328125 c 0,65,66
 619.253472222 -24.8076171875 619.253472222 -24.8076171875 497.777777778 -25 c 0,67,68
 393.519965278 -24.5869140625 393.519965278 -24.5869140625 310.060763889 9.783203125 c 0,69,70
 226.266276042 42.7431640625 226.266276042 42.7431640625 168.9140625 97.083984375 c 0,71,72
 116.125 152.478515625 116.125 152.478515625 87.9921875 224.2421875 c 0,73,74
 60.1728515625 296.765625 60.1728515625 296.765625 60 375.05078125 c 0,75,76
 60.3603515625 461.162109375 60.3603515625 461.162109375 89.3369140625 528.094726562 c 0,77,78
 150.02734375 664.77734375 150.02734375 664.77734375 309.651692708 713.58203125 c 0,79,80
 390.361328125 738.83984375 390.361328125 738.83984375 484.444444444 739 c 0,81,82
 557.504340278 738.78515625 557.504340278 738.78515625 640.632595486 723.381835938 c 0,83,84
 651.859809028 720.766601562 651.859809028 720.766601562 661.344401042 717.9375 c 128,-1,85
 670.827907986 715.109375 670.827907986 715.109375 678.120659722 713.181640625 c 0,86,87
 679.702690972 715.494140625 679.702690972 715.494140625 684.137695312 722.560546875 c 128,-1,88
 688.543945312 729.627929688 688.543945312 729.627929688 698.8515625 740.686523438 c 0,0,1
EndSplineSet
Substitution2: "'c2sc' Versalien in Kapit+AOQA-lchen in Lateinisch Nachschlagetabelle 0 Subtabelle" uni1D04
EndChar

StartChar: D
Encoding: 68 68 53
Width: 933
Flags: W
LayerCount: 2
Fore
SplineSet
309.46621075 635.481445312 m 0,0,1
 305.693668104 622.321289062 305.693668104 622.321289062 305.580704963 605 c 2,2,-1
 306.671971536 499 l 2,3,4
 306.671971536 410.85546875 306.671971536 410.85546875 305.580704963 324.35546875 c 128,-1,5
 304.48943839 237.85546875 304.48943839 237.85546875 304.48943839 150 c 0,6,7
 304.643963442 108.225585938 304.643963442 108.225585938 310.013975417 81.6787109375 c 0,8,9
 315.2230682 58.2333984375 315.2230682 58.2333984375 324.846249017 45.7880859375 c 0,10,11
 334.535502615 34.888671875 334.535502615 34.888671875 346.648135302 30.466796875 c 0,12,13
 363.74393449 25.15625 363.74393449 25.15625 387.425697958 25 c 0,14,15
 458.41237541 25.3994140625 458.41237541 25.3994140625 516.594787357 48.857421875 c 0,16,17
 633.731170821 97.6318359375 633.731170821 97.6318359375 681.629674143 212.80859375 c 0,18,19
 704.793512264 270.168945312 704.793512264 270.168945312 704.984270777 334 c 0,20,21
 704.343791079 447.189453125 704.343791079 447.189453125 642.990951343 525.924804688 c 0,22,23
 580.286816671 604.342773438 580.286816671 604.342773438 461.640350459 636.9921875 c 0,24,25
 439.196918787 642.78125 439.196918787 642.78125 417.375850082 646.890625 c 128,-1,26
 395.554781376 651 395.554781376 651 373.239232505 651 c 2,27,-1
 344.903600751 651 l 2,28,29
 335.144011612 650.197265625 335.144011612 650.197265625 328.38966831 648.276367188 c 0,30,31
 321.479734266 645.77734375 321.479734266 645.77734375 314.957711387 641.852539062 c 0,32,33
 311.305591713 638.557617188 311.305591713 638.557617188 309.46621075 635.481445312 c 0,0,1
137.05078125 636.965820312 m 0,34,35
 124.4765625 639.572265625 124.4765625 639.572265625 113 639.677734375 c 2,36,-1
 81 638.744140625 l 1,37,38
 63.9248046875 639.2734375 63.9248046875 639.2734375 49.5400390625 647.66796875 c 1,39,40
 35.728515625 657.986328125 35.728515625 657.986328125 35.154296875 674.71484375 c 0,41,42
 35.3212890625 678.895507812 35.3212890625 678.895507812 35.9287109375 682.286132812 c 0,43,44
 39.6005859375 697.0078125 39.6005859375 697.0078125 48.326171875 705.673828125 c 0,45,46
 55.1650390625 711.928710938 55.1650390625 711.928710938 64.3486328125 714.942382812 c 0,47,48
 97.279296875 725.75 97.279296875 725.75 202.270583728 730.47265625 c 0,49,50
 307.512800956 734.923828125 307.512800956 734.923828125 368.874166212 735 c 0,51,52
 482.612064224 734.713867188 482.612064224 734.713867188 576.229734792 707.849609375 c 0,53,54
 671.694246152 681.73046875 671.694246152 681.73046875 739.963414072 633.072265625 c 0,55,56
 804.491210938 582.764648438 804.491210938 582.764648438 838.8046875 512.400390625 c 0,57,58
 872.802734375 441.034179688 872.802734375 441.034179688 873 352.708984375 c 0,59,60
 872.525390625 266.348632812 872.525390625 266.348632812 834.038085938 199.02734375 c 0,61,62
 794.813476562 132.002929688 794.813476562 132.002929688 730.468116056 86.2705078125 c 0,63,64
 661.465753408 40.78125 661.465753408 40.78125 574.607754592 17.1552734375 c 0,65,66
 487.103947629 -7.845703125 487.103947629 -7.845703125 397.247097117 -8 c 0,67,68
 366.057547508 -7.9404296875 366.057547508 -7.9404296875 335.114172292 -5.9248046875 c 128,-1,69
 304.170797076 -3.908203125 304.170797076 -3.908203125 287.608908585 -2.966796875 c 128,-1,70
 271.045954403 -2.025390625 271.045954403 -2.025390625 236.145672169 -2.0439453125 c 128,-1,71
 201.244324245 -2.0615234375 201.244324245 -2.0615234375 159.160225634 -4.515625 c 0,72,73
 120.260742188 -6.9697265625 120.260742188 -6.9697265625 78 -7 c 0,74,75
 64.9384765625 -6.212890625 64.9384765625 -6.212890625 56.177734375 0.2470703125 c 0,76,77
 44.3935546875 9.8583984375 44.3935546875 9.8583984375 44 25.2294921875 c 0,78,79
 44.9072265625 44.953125 44.9072265625 44.953125 57.693359375 56.5126953125 c 0,80,81
 75.3974609375 70.59765625 75.3974609375 70.59765625 100.552734375 73.626953125 c 0,82,83
 103.8359375 74.0478515625 103.8359375 74.0478515625 116.866210938 76.7431640625 c 128,-1,84
 129.895507812 79.4384765625 129.895507812 79.4384765625 136.43359375 84.30859375 c 0,85,86
 142.809570312 98.0712890625 142.809570312 98.0712890625 144.518554688 137.264648438 c 0,87,88
 146.989257812 199.655273438 146.989257812 199.655273438 147 311.909179688 c 2,89,-1
 147 529.48828125 l 2,90,91
 146.89453125 586.189453125 146.89453125 586.189453125 142.654296875 622.6015625 c 0,92,93
 141.83984375 629.072265625 141.83984375 629.072265625 140.76953125 633.71484375 c 0,94,95
 139.26953125 636.491210938 139.26953125 636.491210938 137.05078125 636.965820312 c 0,34,35
EndSplineSet
Substitution2: "'c2sc' Versalien in Kapit+AOQA-lchen in Lateinisch Nachschlagetabelle 0 Subtabelle" uni1D05
EndChar

StartChar: E
Encoding: 69 69 54
Width: 821
Flags: W
LayerCount: 2
Fore
SplineSet
330.504641132 333.474609375 m 1,0,1
 328.03088068 327.956054688 328.03088068 327.956054688 327.899732874 317.528320312 c 2,2,-1
 328.721512246 298.703125 l 1,3,-1
 328.721512246 154.782226562 l 2,4,5
 328.856269625 127.17578125 328.856269625 127.17578125 332.518782668 112.037109375 c 0,6,7
 335.258448305 102.348632812 335.258448305 102.348632812 339.893139581 94.9033203125 c 0,8,9
 343.404050574 91.0234375 343.404050574 91.0234375 346.463764986 89.443359375 c 0,10,11
 365.380332026 84.6884765625 365.380332026 84.6884765625 406.99990781 83.29296875 c 0,12,13
 475.426576437 81 475.426576437 81 509.835429268 81 c 2,14,-1
 548.029520613 81 l 2,15,16
 579.068235785 81.134765625 579.068235785 81.134765625 606.748845207 83.4951171875 c 0,17,18
 650.552212441 87.2294921875 650.552212441 87.2294921875 663.415526156 93.138671875 c 0,19,20
 675.354789274 100.327148438 675.354789274 100.327148438 685.832175471 113.323242188 c 0,21,22
 697.693359375 132.204101562 697.693359375 132.204101562 708.258789062 151.205078125 c 128,-1,23
 718.823242188 170.20703125 718.823242188 170.20703125 728.573242188 185.174804688 c 0,24,25
 736.979492188 197.149414062 736.979492188 197.149414062 744.696289062 203.209960938 c 0,26,27
 755.172851562 211 755.172851562 211 767 211 c 0,28,29
 778.518554688 210.500976562 778.518554688 210.500976562 786.4765625 206.928710938 c 0,30,31
 805.43359375 196.319335938 805.43359375 196.319335938 805.909179688 173.63671875 c 0,32,33
 805.541992188 163.624023438 805.541992188 163.624023438 802.153320312 154.78125 c 0,34,35
 798.58203125 137.240234375 798.58203125 137.240234375 796.48828125 132.19140625 c 0,36,37
 789.186523438 103.2734375 789.186523438 103.2734375 771.422851562 22.0673828125 c 1,38,-1
 768.81640625 18.158203125 l 2,39,40
 752.606445312 -4.4521484375 752.606445312 -4.4521484375 723 -5 c 2,41,-1
 151 -5 l 2,42,43
 137.344726562 -5.0693359375 137.344726562 -5.0693359375 122.84765625 -6.0185546875 c 0,44,45
 92.728515625 -7.990234375 92.728515625 -7.990234375 68.7119140625 -5.896484375 c 0,46,47
 49.736328125 -3.1162109375 49.736328125 -3.1162109375 40.31640625 12.2939453125 c 0,48,49
 35 21.20703125 35 21.20703125 35 33.4970703125 c 0,50,51
 35.9658203125 57.6875 35.9658203125 57.6875 64.8828125 66.9423828125 c 0,52,53
 79.1162109375 71.099609375 79.1162109375 71.099609375 96.1552734375 74.8232421875 c 128,-1,54
 113.1953125 78.546875 113.1953125 78.546875 128.083984375 83.7919921875 c 0,55,56
 137.799804688 87.8154296875 137.799804688 87.8154296875 142.271484375 93.240234375 c 0,57,58
 146.80078125 101.28515625 146.80078125 101.28515625 149.375 122.501953125 c 0,59,60
 153.467773438 156.229492188 153.467773438 156.229492188 151.01171875 233.08984375 c 0,61,62
 150.016601562 264.998046875 150.016601562 264.998046875 150.008789062 314.45703125 c 128,-1,63
 150 363.916992188 150 363.916992188 149 438.62109375 c 128,-1,64
 148 513.325195312 148 513.325195312 148 589.110351562 c 2,65,-1
 148 614.323242188 l 1,66,-1
 147.07421875 620.915039062 l 2,67,68
 146.133789062 632.331054688 146.133789062 632.331054688 142.190429688 634.123046875 c 0,69,70
 128.802734375 640.166015625 128.802734375 640.166015625 111.428710938 642.338867188 c 128,-1,71
 94.0546875 644.510742188 94.0546875 644.510742188 78.4951171875 646.837890625 c 0,72,73
 64.61328125 649.506835938 64.61328125 649.506835938 55.806640625 655.9453125 c 0,74,75
 42.490234375 667.256835938 42.490234375 667.256835938 42 684.358398438 c 0,76,77
 43.2568359375 708.12890625 43.2568359375 708.12890625 65.9970703125 717.627929688 c 0,78,79
 86.2431640625 725.47265625 86.2431640625 725.47265625 113.59375 725.625 c 2,80,-1
 142 725 l 2,81,82
 179.29193038 725 179.29193038 725 217.586926424 723.5 c 0,83,84
 295.218787085 720.459960938 295.218787085 720.459960938 408.586629747 722.73046875 c 128,-1,85
 521.954472409 725 521.954472409 725 600 725 c 2,86,-1
 611 725 l 2,87,88
 690.841796875 724.616210938 690.841796875 724.616210938 704.841796875 715.853515625 c 0,89,90
 717.494140625 706.353515625 717.494140625 706.353515625 720.514648438 692.921875 c 0,91,92
 724.89453125 670.08203125 724.89453125 670.08203125 724.924804688 655.423828125 c 128,-1,93
 724.955078125 640.765625 724.955078125 640.765625 724.485351562 628.2421875 c 128,-1,94
 724.016601562 615.71875 724.016601562 615.71875 723.94140625 596.25390625 c 128,-1,95
 723.866210938 576.7890625 723.866210938 576.7890625 721.248046875 557.939453125 c 0,96,97
 717.663085938 538.147460938 717.663085938 538.147460938 708.858398438 528.30078125 c 0,98,99
 699.40625 519.478515625 699.40625 519.478515625 687.57421875 518 c 1,100,-1
 686 518 l 1,101,102
 610.475585938 519.004882812 610.475585938 519.004882812 597.125234869 544.705078125 c 0,103,104
 589.485598794 559.125 589.485598794 559.125 582.638090882 576.133789062 c 128,-1,105
 575.790582971 593.142578125 575.790582971 593.142578125 568.148746539 608.17578125 c 0,106,107
 562.673160601 617.301757812 562.673160601 617.301757812 555.804749308 621.193359375 c 0,108,109
 538.691480419 628.301757812 538.691480419 628.301757812 494.782276009 632.11328125 c 0,110,111
 459.668994759 634.96875 459.668994759 634.96875 400.594936709 635 c 2,112,-1
 351.025316456 635 l 2,113,114
 335.305973101 634.801757812 335.305973101 634.801757812 329.055861847 631.3125 c 0,115,116
 321.715474189 625.86328125 321.715474189 625.86328125 318.33242682 619.215820312 c 0,117,118
 313.690775811 608.262695312 313.690775811 608.262695312 312.657708663 593.770507812 c 128,-1,119
 311.625741693 579.278320312 311.625741693 579.278320312 311.594936709 565.033203125 c 2,120,-1
 312.721518987 443.0390625 l 1,121,-1
 312.721518987 422.408203125 l 2,122,123
 312.762225574 419.818359375 312.762225574 419.818359375 312.832636966 418.146484375 c 0,124,125
 321.404123813 417.25 321.404123813 417.25 330.606012658 417.25 c 2,126,-1
 357.784810127 418 l 2,127,128
 387.936288568 418 387.936288568 418 418.636755835 418.549804688 c 128,-1,129
 449.338323279 419.098632812 449.338323279 419.098632812 477.290545886 422.6953125 c 0,130,131
 498.646101167 426.52734375 498.646101167 426.52734375 506.520075158 436.598632812 c 0,132,133
 517.302919798 452.495117188 517.302919798 452.495117188 519.339349288 478.711914062 c 1,134,135
 525.553154668 489.743164062 525.553154668 489.743164062 530.594170293 496.895507812 c 0,136,137
 543.598274328 513.419921875 543.598274328 513.419921875 567.329113924 514 c 0,138,139
 581.867966278 513.330078125 581.867966278 513.330078125 591.896088805 507.732421875 c 0,140,141
 605.745117188 498.04296875 605.745117188 498.04296875 607.875 481.512695312 c 0,142,143
 610.02734375 457.96875 610.02734375 457.96875 608.513671875 426.180664062 c 0,144,145
 606.041992188 374.284179688 606.041992188 374.284179688 650.91918566 343.193359375 c 0,146,147
 652.726378364 312.102539062 652.726378364 312.102539062 652.790147481 299.0625 c 128,-1,148
 652.855119789 286.022460938 652.855119789 286.022460938 653.19802919 281.1875 c 0,149,150
 653.992135172 269.995117188 653.992135172 269.995117188 652.444831698 260.439453125 c 0,151,152
 649.312925833 246.6328125 649.312925833 246.6328125 640.735378039 237.170898438 c 0,153,154
 626.398155494 223.491210938 626.398155494 223.491210938 603.472556436 223 c 0,155,156
 574.811346446 224.192382812 574.811346446 224.192382812 561.757928572 246.866210938 c 0,157,158
 553.005918099 263.599609375 553.005918099 263.599609375 546.021395032 296.193359375 c 0,159,160
 544.813391387 301.545898438 544.813391387 301.545898438 543.536805861 304.487304688 c 2,161,-1
 541.123204953 307.750976562 l 1,162,-1
 540.065600168 311.83203125 l 1,163,164
 536.57514342 320.245117188 536.57514342 320.245117188 529.61348098 323.818359375 c 0,165,166
 500.787433839 336.390625 500.787433839 336.390625 446.499461262 336.5625 c 0,167,168
 443.088415113 336.5625 443.088415113 336.5625 425.911662087 336.311523438 c 128,-1,169
 408.733705871 336.060546875 408.733705871 336.060546875 393.941677173 336.01953125 c 128,-1,170
 379.148445284 335.978515625 379.148445284 335.978515625 369.895907404 335.565429688 c 128,-1,171
 360.643369525 335.15234375 360.643369525 335.15234375 350.167186519 334.719726562 c 0,172,173
 339.473225964 334.227539062 339.473225964 334.227539062 330.504641132 333.474609375 c 1,0,1
EndSplineSet
Substitution2: "'c2sc' Versalien in Kapit+AOQA-lchen in Lateinisch Nachschlagetabelle 0 Subtabelle" uni1D07
EndChar

